<?xml version="1.0" encoding="UTF-8"?><svg xmlns="http://www.w3.org/2000/svg" viewBox="0 0 2541.96 1400.09"><defs><style>.cls-1{opacity:.4;}.cls-1,.cls-2{mix-blend-mode:multiply;}.cls-3{stroke:#6505fc;stroke-width:2.25px;}.cls-3,.cls-4,.cls-5,.cls-6{fill:none;stroke-miterlimit:10;}.cls-7{isolation:isolate;}.cls-4{stroke-width:.9px;}.cls-4,.cls-5{stroke:#00cdbe;}.cls-5{stroke-width:1.44px;}.cls-6{stroke:#570df8;stroke-width:3.29px;}</style></defs><g class="cls-7"><g id="Layer_2"><g id="Layer_1-2"><g class="cls-1"><path class="cls-6" d="M23.46,1086.13c-9.78-46.43-16.63-93.27-20.5-140.16-1.72-20.85-2.79-42.21,3.65-61.8,16.47-50.07,75.57-73.61,130.3-84.6,50.41-10.13,102.44-14.51,154.64-13.04,51.72,1.46,104.44,8.6,154.44-1.31,49.99-9.91,98.31-42.25,105.2-90.03,4.1-28.43-7.19-58.24-25.47-82.44-18.28-24.2-43.08-43.48-68.7-60.83-29.33-19.86-61.55-39.03-78.63-68.86-17.69-30.88-14.78-70.33,7.1-96.61,31.14-37.38,88.35-42.72,138.69-51.99,63.95-11.78,127.25-35.63,169.23-81.2,41.98-45.57,57.68-116.26,24.98-171.72"/><path class="cls-6" d="M38,1090.81c-9.65-45.61-16.23-91.62-19.72-137.67-1.55-20.47-2.44-41.42,3.87-60.66,13.22-40.31,53.87-63.61,97.33-77.17,9.61-3.01,19.35-5.54,28.96-7.67,48.94-10.85,99.62-16.1,150.58-15.62,50.48,.49,102.1,6.82,151.06-3.54,24.95-5.28,49.61-15.56,69.44-30.35,20.47-15.29,35.78-35.65,40.11-60.16,.16-.93,.31-1.86,.44-2.79,4.18-29.57-8.18-60.4-27.01-85.69-18.5-24.77-43.14-44.98-68.22-63.4-28.76-21.22-59.28-42.08-75.33-72.48-16.1-30.49-13.43-68.58,7.81-94.37,30.24-36.73,85.34-42.94,133.53-53.01,61.2-12.71,121.18-37.01,160.42-81.8,39.27-44.72,53.11-113.2,20.57-166.73"/><path class="cls-6" d="M52.53,1095.49c-9.52-44.78-15.83-89.98-18.95-135.17-1.39-20.08-2.09-40.62,4.09-59.53,12.95-39.61,52.16-62.99,94.21-77.01,9.3-3.12,18.75-5.79,28.07-8.07,47.47-11.58,96.79-17.68,146.52-18.19,49.24-.48,99.75,4.99,147.68-5.76,25.81-5.79,51.43-16.36,72.22-31.52,21.4-15.64,37.65-36.7,42.12-62.13,.17-.96,.32-1.93,.46-2.9,4.26-30.71-9.17-62.55-28.54-88.93-18.71-25.33-43.24-46.43-67.74-65.96-28.24-22.51-57-45.08-72.02-76.09-14.56-30.05-12.08-66.82,8.52-92.13,29.35-36.08,82.34-43.16,128.38-54.04,58.46-13.63,115.12-38.39,151.61-82.4,36.56-43.88,48.53-110.13,16.17-161.73"/><path class="cls-6" d="M67.07,1100.17c-9.4-43.95-15.42-88.34-18.17-132.67-1.22-19.7-1.74-39.83,4.31-58.39,12.68-38.9,50.45-62.38,91.09-76.86,9-3.24,18.14-6.03,27.19-8.46,46-12.31,93.97-19.27,142.46-20.77,48-1.45,97.39,3.11,144.3-7.98,26.68-6.31,53.25-17.15,75-32.7,22.33-15.99,39.53-37.74,44.12-64.11,.17-1,.33-2,.47-3.01,4.34-31.85-10.16-64.71-30.08-92.17-18.93-25.89-43.32-47.91-67.26-68.53-27.69-23.85-54.73-48.03-68.72-79.71-13.05-29.56-10.73-65.07,9.23-89.89,28.46-35.44,79.31-43.48,123.23-55.06,55.68-14.69,109.06-39.77,142.8-83,33.85-43.03,43.96-107.07,11.76-156.74"/><path class="cls-6" d="M81.61,1104.85c-9.27-43.13-15.02-86.69-17.39-130.17-1.06-19.32-1.4-39.03,4.52-57.25,12.4-38.2,48.74-61.76,87.97-76.7,8.7-3.35,17.54-6.28,26.3-8.86,44.53-13.04,91.14-20.86,138.4-23.35,46.75-2.42,95.03,1.19,140.93-10.21,27.54-6.84,55.07-17.95,77.78-33.88,23.26-16.35,41.41-38.78,46.12-66.09,.18-1.04,.34-2.08,.48-3.12,4.42-32.99-11.08-66.91-31.61-95.42-19.08-26.5-43.39-49.4-66.78-71.1-27.14-25.19-52.47-50.93-65.41-83.32-11.6-29.01-9.38-63.31,9.94-87.65,27.56-34.79,76.29-43.73,118.08-56.09,52.91-15.65,102.88-41.23,133.99-83.6s39.38-104,7.36-151.75"/><path class="cls-6" d="M96.15,1109.54c-9.14-42.3-14.62-85.05-16.62-127.68-.89-18.94-1.05-38.24,4.74-56.12,12.13-37.5,47.07-61.06,84.85-76.55,8.4-3.45,16.94-6.53,25.41-9.25,43.06-13.76,88.31-22.44,134.34-25.93,45.51-3.38,92.66-.76,137.55-12.43,28.41-7.39,56.89-18.75,80.56-35.05,24.19-16.7,43.28-39.82,48.13-68.06,.18-1.07,.35-2.15,.49-3.23,4.5-34.12-12.06-69.07-33.15-98.66-19.29-27.07-43.47-50.89-66.29-73.66-26.59-26.53-50.22-53.79-62.11-86.94-10.19-28.43-8.03-61.56,10.65-85.42,26.67-34.14,73.27-43.97,112.93-57.11,50.15-16.61,96.79-42.62,125.18-84.21,28.28-41.44,34.81-100.94,2.95-146.76"/><path class="cls-6" d="M110.69,1114.22c-9.01-41.47-14.21-83.41-15.84-125.18-.72-18.56-.7-37.44,4.96-54.98,11.86-36.79,45.37-60.43,81.73-76.39,8.1-3.56,16.33-6.78,24.52-9.65,41.59-14.49,85.49-24.03,130.28-28.51,44.27-4.35,90.28-2.74,134.17-14.66,29.27-7.95,58.71-19.54,83.34-36.23,25.12-17.06,45.16-40.86,50.13-70.04,.19-1.11,.36-2.23,.5-3.34,4.58-35.26-13.04-71.23-34.68-101.91-19.5-27.64-43.54-52.38-65.81-76.23-26.03-27.88-48-56.6-58.8-90.56-8.84-27.8-6.68-59.8,11.35-83.18,25.78-33.49,70.25-44.22,107.78-58.14,47.38-17.57,90.7-44.01,116.36-84.81s30.23-97.87-1.45-141.77"/><path class="cls-6" d="M125.23,1118.9c-8.88-40.64-13.81-81.77-15.06-122.68-.56-18.17-.35-36.65,5.17-53.85,11.59-36.09,43.67-59.8,78.61-76.24,7.8-3.67,15.73-7.03,23.63-10.04,40.11-15.22,82.66-25.61,126.23-31.09,43.03-5.32,87.9-4.76,130.79-16.88,30.13-8.52,60.53-20.34,86.12-37.41,26.05-17.41,47.04-41.9,52.14-72.01,.19-1.15,.37-2.3,.51-3.45,4.66-36.4-14.02-73.39-36.22-105.15-19.71-28.21-43.61-53.88-65.33-78.8-25.47-29.23-45.82-59.36-55.5-94.17-7.54-27.13-5.33-58.05,12.06-80.94,24.88-32.85,67.22-44.46,102.62-59.16,44.62-18.52,84.6-45.4,107.55-85.41,22.8-39.76,25.66-94.81-5.86-136.78"/><path class="cls-6" d="M139.76,1123.58c-8.75-39.82-13.41-80.12-14.29-120.18-.39-17.79,0-35.85,5.39-52.71,11.32-35.39,41.96-59.18,75.49-76.08,7.5-3.78,15.13-7.27,22.74-10.43,38.64-15.95,79.84-27.2,122.17-33.67,41.79-6.29,85.52-6.8,127.42-19.11,30.99-9.1,62.35-21.14,88.9-38.58,26.98-17.77,48.91-42.94,54.14-73.99,.2-1.18,.37-2.37,.52-3.56,4.74-37.54-15.01-75.54-37.75-108.39-19.92-28.77-43.68-55.38-64.85-81.36-24.91-30.58-43.68-62.09-52.19-97.79-6.3-26.43-3.98-56.29,12.77-78.7,23.99-32.2,64.2-44.7,97.47-60.18,41.85-19.47,78.51-46.78,98.74-86.01,20.07-38.92,21.08-91.74-10.26-131.79"/><path class="cls-6" d="M154.3,1128.26c-8.62-38.99-13.01-78.48-13.51-117.69-.23-17.41,.35-35.06,5.61-51.57,11.04-34.68,40.26-58.55,72.37-75.93,7.2-3.9,14.52-7.52,21.85-10.83,37.17-16.68,77.01-28.78,118.11-36.25,40.55-7.26,83.12-8.87,124.04-21.33,31.84-9.7,64.17-21.94,91.68-39.76,27.91-18.12,50.79-43.98,56.14-75.97,.2-1.22,.38-2.45,.54-3.67,4.82-38.68-15.99-77.7-39.29-111.64-20.14-29.33-43.74-56.88-64.37-83.93-24.35-31.94-41.59-64.79-48.88-101.41-5.12-25.71-2.62-54.54,13.48-76.46,23.1-31.55,61.17-44.93,92.32-61.21,39.07-20.42,72.43-48.15,89.93-86.61s16.51-88.68-14.67-126.8"/><path class="cls-6" d="M168.84,1132.94c-8.49-38.16-12.6-76.84-12.73-115.19-.06-17.03,.69-34.26,5.82-50.44,10.77-33.98,38.56-57.94,69.25-75.77,6.9-4.01,13.92-7.77,20.96-11.22,35.7-17.4,74.18-30.37,114.05-38.82,39.31-8.23,80.73-10.95,120.66-23.55,32.69-10.31,65.99-22.73,94.46-40.94,28.83-18.47,52.67-45.02,58.15-77.94,.21-1.26,.39-2.52,.55-3.78,4.9-39.82-16.98-79.85-40.82-114.88-20.35-29.9-43.8-58.39-63.89-86.5-23.78-33.3-39.56-67.45-45.58-105.02-4-24.96-1.27-52.78,14.19-74.23,22.2-30.9,58.15-45.16,87.17-62.23,36.3-21.35,66.34-49.52,81.12-87.21,14.6-37.22,11.93-85.61-19.07-121.81"/><path class="cls-6" d="M183.38,1137.63c-8.36-37.34-12.2-75.19-11.96-112.69,.11-16.65,1.04-33.47,6.04-49.3,10.5-33.28,36.85-57.32,66.13-75.62,6.6-4.13,13.32-8.02,20.07-11.62,34.23-18.13,71.36-31.96,109.99-41.4,38.07-9.2,78.32-13.06,117.29-25.78,33.54-10.94,67.81-23.53,97.24-42.11,29.76-18.83,54.54-46.06,60.15-79.92,.21-1.3,.4-2.59,.56-3.9,4.98-40.95-17.97-82.01-42.36-118.12-20.57-30.46-43.86-59.89-63.4-89.06-23.21-34.66-37.6-70.1-42.27-108.64-2.93-24.21,.08-51.03,14.9-71.99,21.31-30.26,55.12-45.38,82.02-63.26,33.53-22.28,60.26-50.89,72.31-87.81,11.87-36.36,7.36-82.55-23.48-116.82"/><path class="cls-6" d="M197.92,1142.31c-8.23-36.51-11.8-73.55-11.18-110.2,.27-16.27,1.39-32.67,6.26-48.16,10.23-32.57,35.15-56.71,63.01-75.46,6.3-4.24,12.72-8.26,19.18-12.01,32.76-18.86,68.53-33.54,105.93-43.98,36.83-10.17,75.91-15.19,113.91-28,34.38-11.59,69.62-24.33,100.03-43.29,30.69-19.18,56.42-47.1,62.16-81.89,.22-1.33,.41-2.67,.57-4.01,5.06-42.09-18.96-84.16-43.89-121.37-20.79-31.02-43.92-61.4-62.92-91.63-22.64-36.02-35.73-72.74-38.97-112.26-1.92-23.44,1.43-49.27,15.61-69.75,20.42-29.61,52.1-45.6,76.87-64.28,30.76-23.2,54.18-52.25,63.5-88.42,9.14-35.5,2.78-79.48-27.88-111.83"/><path class="cls-6" d="M212.46,1146.99c-8.11-35.68-11.4-71.91-10.4-107.7,.44-15.88,1.74-31.88,6.47-47.03,9.96-31.87,33.44-56.1,59.89-75.31,6-4.36,12.11-8.51,18.29-12.41,31.29-19.59,65.71-35.13,101.88-46.56,35.58-11.14,73.49-17.33,110.53-30.23,35.21-12.26,71.44-25.13,102.81-44.46,31.62-19.54,58.3-48.14,64.16-83.87,.22-1.37,.42-2.74,.58-4.12,5.14-43.23-19.96-86.31-45.43-124.61-21.01-31.58-43.97-62.91-62.44-94.2-22.06-37.38-33.95-75.37-35.66-115.87-.96-22.67,2.78-47.52,16.31-67.51,19.52-28.96,49.07-45.81,71.71-65.3,27.99-24.11,48.11-53.61,54.69-89.02,6.43-34.63-1.79-76.42-32.29-106.84"/><path class="cls-6" d="M226.99,1151.67c-7.98-34.86-10.99-70.26-9.63-105.2,.6-15.5,2.09-31.08,6.69-45.89,9.68-31.16,31.73-55.49,56.77-75.15,5.7-4.47,11.51-8.76,17.4-12.8,29.81-20.32,62.88-36.71,97.82-49.14,34.34-12.11,71.07-19.49,107.15-32.45s73.26-25.92,105.59-45.64c32.55-19.89,60.17-49.18,66.16-85.85,.23-1.41,.43-2.82,.59-4.23,5.22-44.37-20.95-88.46-46.97-127.86-21.23-32.14-44.02-64.42-61.96-96.77-21.48-38.75-32.27-78.01-32.36-119.49-.04-21.91,4.13-45.76,17.02-65.27,18.63-28.31,46.06-46.01,66.56-66.33,25.23-25.01,42.05-54.96,45.87-89.62s-6.37-73.35-36.69-101.85"/><path class="cls-6" d="M241.53,1156.35c-7.85-34.03-10.59-68.62-8.85-102.7,.77-15.12,2.44-30.28,6.91-44.75,9.41-30.46,30.02-54.88,53.65-75,5.39-4.59,10.91-9.01,16.51-13.19,28.34-21.04,60.05-38.3,93.76-51.72,33.1-13.08,68.64-21.66,103.78-34.67,36.85-13.65,75.08-26.72,108.37-46.82,33.48-20.25,62.05-50.22,68.17-87.82,.24-1.44,.44-2.89,.6-4.34,5.31-45.51-22.02-90.56-48.5-131.1-21.51-32.67-44.07-65.93-61.48-99.33-20.9-40.11-30.71-80.67-29.05-123.1,.83-21.15,5.48-44.01,17.73-63.03,17.74-27.67,43.05-46.2,61.41-67.35,22.48-25.9,36.01-56.32,37.06-90.22s-10.94-70.29-41.1-96.86"/><path class="cls-6" d="M256.07,1161.03c-7.72-33.2-10.19-66.98-8.07-100.21,.94-14.74,2.79-29.49,7.13-43.62,9.14-29.76,28.31-54.28,50.53-74.84,5.09-4.71,10.3-9.25,15.63-13.59,26.87-21.77,57.23-39.88,89.7-54.3,31.86-14.04,66.2-23.84,100.4-36.9,37.65-14.37,76.9-27.52,111.15-47.99,34.41-20.6,63.93-51.27,70.17-89.8,.24-1.48,.45-2.96,.62-4.45,5.39-46.64-23.01-92.72-50.04-134.34-21.72-33.23-44.12-67.44-61-101.9-20.32-41.48-29.27-83.36-25.74-126.72,1.66-20.42,6.83-42.25,18.44-60.8,16.84-27.02,40.05-46.38,56.26-68.38,19.75-26.79,29.97-57.67,28.25-90.82s-15.52-67.22-45.5-91.87"/><path class="cls-6" d="M270.61,1165.71c-7.59-32.37-9.78-65.33-7.3-97.71,1.1-14.36,3.13-28.69,7.34-42.48,8.87-29.05,26.59-53.68,47.41-74.69,4.79-4.83,9.7-9.5,14.74-13.98,25.4-22.5,54.4-41.47,85.64-56.87,30.62-15.01,63.75-26.04,97.02-39.12,38.45-15.12,78.72-28.31,113.93-49.17,35.34-20.96,65.8-52.31,72.18-91.77,.25-1.52,.45-3.04,.63-4.56,5.47-47.78-24-94.87-51.57-137.59-21.94-33.79-44.16-68.95-60.51-104.47-19.73-42.85-27.95-86.1-22.44-130.34,2.46-19.71,8.18-40.5,19.15-58.56,15.95-26.37,37.06-46.57,51.11-69.4,17.02-27.67,23.95-59.03,19.44-91.42-4.33-31.16-20.09-64.16-49.91-86.87"/><path class="cls-6" d="M285.15,1170.4c-7.46-31.55-9.38-63.69-6.52-95.21,1.27-13.97,3.48-27.9,7.56-41.34,8.6-28.35,24.87-53.09,44.29-74.53,4.48-4.95,9.1-9.75,13.85-14.38,23.93-23.23,51.58-43.06,81.58-59.45,29.38-15.98,61.3-28.24,93.64-41.35,39.23-15.9,80.54-29.11,116.71-50.35,36.27-21.31,67.68-53.35,74.18-93.75,.25-1.56,.46-3.11,.64-4.67,5.55-48.92-24.98-97.03-53.11-140.83-22.15-34.36-44.14-70.49-60.03-107.03-19.06-44.24-26.77-88.9-19.13-133.95,3.22-19.03,9.54-38.74,19.86-56.32,15.06-25.72,34.09-46.75,45.96-70.42,14.31-28.55,17.93-60.4,10.63-92.02s-24.67-61.09-54.31-81.88"/><path class="cls-6" d="M299.68,1175.08c-7.33-30.72-8.98-62.05-5.74-92.71,1.43-13.59,3.83-27.1,7.78-40.21,8.32-27.65,23.14-52.49,41.17-74.38,4.17-5.07,8.49-10,12.96-14.77,22.46-23.96,48.75-44.64,77.53-62.03,28.14-16.95,58.84-30.45,90.27-43.57,40-16.7,82.36-29.91,119.49-51.52,37.19-21.66,69.56-54.39,76.18-95.73,.26-1.59,.47-3.19,.65-4.78,5.63-50.06-25.97-99.18-54.64-144.07-22.37-34.92-44.2-71.99-59.55-109.6-18.49-45.6-25.71-91.78-15.83-137.57,3.97-18.39,10.89-36.99,20.57-54.08,14.16-25.08,31.12-46.93,40.8-71.45,11.62-29.43,11.93-61.78,1.82-92.63s-29.24-58.03-58.72-76.89"/><path class="cls-6" d="M314.22,1179.76c-7.2-29.89-8.58-60.4-4.97-90.22,1.6-13.21,4.18-26.31,7.99-39.07,8.05-26.94,21.38-51.92,38.05-74.22,3.86-5.19,7.89-10.24,12.07-15.17,20.99-24.68,45.92-46.23,73.47-64.61,26.9-17.92,56.38-32.67,86.89-45.79,40.76-17.53,84.18-30.71,122.27-52.7,38.12-22.02,71.43-55.43,78.19-97.7,.26-1.63,.48-3.26,.66-4.89,5.71-51.2-26.96-101.34-56.18-147.32-22.58-35.49-44.26-73.49-59.07-112.17-17.92-46.95-24.79-94.74-12.52-141.19,4.7-17.79,12.24-35.23,21.27-51.84,13.27-24.43,28.18-47.12,35.65-72.47,8.94-30.32,5.93-63.17-6.99-93.23-12.31-28.63-33.82-54.97-63.12-71.9"/><path class="cls-6" d="M328.76,1184.44c-16.83-69.15,.16-141.86,38.95-199.72,38.79-57.86,98.07-101.52,164.1-130.77,41.5-18.38,86-31.5,125.05-53.88,39.05-22.37,73.31-56.47,80.19-99.68,8.61-54.08-26.33-107-57.04-155.56-50.5-79.87-94.73-173.89-67.8-259.54,13.41-42.66,43.65-79.18,52.48-123.1,12.24-60.9-23.55-129.94-83.33-160.74"/></g><g class="cls-2"><path class="cls-3" d="M1347.12,1363.14c-11.47-41.85,30.47-86.99,76.69-102.59,46.21-15.59,95.25-10.77,143.06-10.77,47.81,0,100.68-7.03,136.4-39.33,45.66-41.29,48.43-110.48,95.78-150.1,36.9-30.88,89.82-33.76,133.02-24.16,24.43,5.43,46.26,18.2,69.89,25.5,107.14,33.12,127.83,138.36,215.13,138.11,94.53-.28,139.26-50.63,152.98-82.28,17.56-40.53,42.45-141.79-57.26-190-40.51-19.58-80.77-41.01-112.59-70.87-47.64-44.71-57.84-124.92-11.35-178.12,31.86-36.46,85.34-57.72,104.65-100.39,12.98-28.68,6.43-61.25-11.09-85.28-17.52-24.03-44.72-40.51-73.5-52.59"/><path class="cls-3" d="M1349.51,1364.89c-9.82-43.43,31.62-90.41,79.12-107.19,46.36-16.38,96.17-11.81,144.1-10.9,47.38,.9,99.13-4.43,135.02-34.43,45.84-38.38,51.48-104.62,98.81-143.84,37.72-31.12,89.51-36.46,133.36-29.23,25.24,4.16,48.56,15.66,73.27,22.93,104.57,30.79,126.22,132.35,211.65,132.23,91.88-.17,136.62-48.27,151.07-79.6,18.31-39.67,42.04-137.13-52.65-185.59-38.95-19.94-77.99-42.18-109.34-71.91-46.27-43.69-56.77-120.9-13.13-173.2,30.16-36.14,81.52-58.3,100.79-100.45,13.24-28.83,7.97-61.15-7.81-85.72s-41.4-42.82-69.32-56.36"/><path class="cls-3" d="M1351.91,1366.63c-8.17-45,32.77-93.8,81.56-111.79,46.51-17.14,97.09-12.86,145.14-11.02,46.95,1.79,97.58-1.83,133.64-29.54,46.01-35.47,54.44-98.87,101.85-137.59,38.48-31.43,89.24-39.2,133.7-34.31,26.07,2.87,50.84,13.12,76.66,20.37,101.95,28.61,124.62,126.34,208.17,126.35,89.23-.06,133.96-45.9,149.17-76.92,19.04-38.82,41.63-132.53-48.04-181.19-37.42-20.31-75.14-43.42-106.09-72.95-44.82-42.77-55.69-116.9-14.91-168.28,28.45-35.84,77.69-58.87,96.92-100.52,13.5-28.99,9.51-61.09-4.53-86.17-14.31-25.57-38.09-45.14-65.13-60.14"/><path class="cls-3" d="M1354.3,1368.37c-6.52-46.58,33.92-97.19,83.99-116.39,46.66-17.89,98.01-13.92,146.18-11.15,46.51,2.68,96.03,.78,132.26-24.65,46.18-32.56,57.46-93.05,104.88-131.33,39.27-31.7,88.99-41.99,134.05-39.38,26.92,1.56,53.12,10.6,80.05,17.8,99.27,26.56,123.02,120.33,204.69,120.47,86.57,.05,131.29-43.53,147.27-74.24,19.75-37.96,41.2-127.99-43.43-176.79-35.9-20.7-72.33-44.62-102.84-74-43.41-41.8-54.62-112.93-16.69-163.36,26.75-35.55,73.77-59.5,93.06-100.59,13.69-29.18,11.06-61.05-1.25-86.62-12.71-26.39-34.77-47.46-60.94-63.91"/><path class="cls-3" d="M1356.7,1370.12c-4.86-48.16,35.08-100.55,86.43-120.99,46.82-18.63,98.93-14.99,147.21-11.27,46.07,3.55,94.48,3.38,130.89-19.75,46.36-29.65,60.48-87.23,107.92-125.07,40.07-31.96,88.77-44.82,134.39-44.45,27.78,.23,55.39,8.08,83.43,15.23,96.55,24.62,121.42,114.32,201.2,114.6,83.92,.17,128.61-41.17,145.36-71.56,20.45-37.11,40.77-123.54-38.81-172.38-34.4-21.12-69.52-45.82-99.59-75.04-42.01-40.82-53.56-108.99-18.47-158.44,25.05-35.29,69.92-60.09,89.19-100.66,13.94-29.34,12.62-61.04,2.03-87.07s-31.46-49.77-56.75-67.68"/><path class="cls-3" d="M1359.09,1371.86c-3.21-49.73,36.23-103.91,88.86-125.59,46.98-19.35,99.84-16.07,148.25-11.4,45.63,4.41,92.93,5.98,129.51-14.86,46.53-26.74,63.5-81.41,110.95-118.81,40.87-32.22,88.57-47.7,134.73-49.52,28.66-1.13,57.65,5.57,86.82,12.66,93.79,22.8,119.82,108.31,197.72,108.72,81.26,.28,125.93-38.8,143.46-68.88,21.14-36.26,40.34-119.16-34.2-167.98-32.92-21.56-66.71-47.02-96.34-76.08-40.62-39.83-52.51-105.08-20.25-153.52,23.34-35.04,66.07-60.68,85.33-100.72,14.18-29.5,14.21-61.06,5.3-87.51-9.46-28.1-28.14-52.09-52.57-71.45"/><path class="cls-3" d="M1361.49,1373.6c-1.56-51.31,37.4-107.26,91.3-130.18,47.15-20.06,100.75-17.16,149.29-11.52,45.19,5.25,91.42,8.66,128.13-9.96,46.76-23.73,66.54-75.58,113.98-112.55,41.67-32.47,88.37-50.63,135.07-54.6,29.54-2.51,59.91,3.08,90.21,10.1,91.01,21.07,118.22,102.3,194.24,102.84,78.61,.39,123.23-36.44,141.56-66.2,21.81-35.41,39.91-114.89-29.59-163.58-31.45-22.04-63.9-48.22-93.09-77.12-39.22-38.84-51.48-101.2-22.02-148.59,21.64-34.82,62.23-61.26,81.46-100.79,14.43-29.67,15.82-61.1,8.58-87.96-7.81-29-24.83-54.41-48.38-75.22"/><path class="cls-3" d="M1363.88,1375.35c.09-52.89,38.56-110.59,93.73-134.78,47.32-20.75,101.66-18.27,150.33-11.65,44.75,6.09,89.87,11.28,126.75-5.07,46.93-20.8,69.57-69.74,117.02-106.3,42.48-32.73,88.18-53.59,135.41-59.67,30.42-3.91,62.16,.6,93.6,7.53,88.19,19.43,116.62,96.29,190.76,96.96,75.96,.5,120.52-34.08,139.66-63.52,22.47-34.57,39.5-110.72-24.98-159.17-30-22.55-61.1-49.41-89.84-78.16-37.84-37.85-50.47-97.36-23.8-143.67,19.93-34.62,58.39-61.85,77.59-100.86,14.68-29.83,17.45-61.15,11.86-88.41-6.13-29.91-21.51-56.72-44.19-78.99"/><path class="cls-3" d="M1366.28,1377.09c1.74-54.46,39.73-113.91,96.17-139.38,47.49-21.44,102.57-19.38,151.37-11.77,44.31,6.91,88.31,13.89,125.37-.18,47.11-17.88,72.61-63.9,120.05-100.04,43.29-32.97,87.98-56.59,135.75-64.74,31.3-5.34,64.41-1.86,96.98,4.96,85.36,17.86,115.02,90.28,187.27,91.08,73.3,.61,117.8-31.73,137.75-60.85,23.11-33.73,39.11-106.66-20.36-154.77-28.55-23.1-58.3-50.6-86.59-79.21-36.45-36.85-49.48-93.56-25.58-138.75,18.21-34.45,54.56-62.43,73.73-100.92,14.94-29.99,19.11-61.22,15.14-88.85-4.43-30.83-18.2-59.04-40-82.76"/><path class="cls-3" d="M1368.67,1378.84c3.39-56.04,40.91-117.22,98.6-143.98,47.67-22.11,103.48-20.51,152.41-11.89,43.87,7.73,86.76,16.5,123.99,4.72,47.28-14.96,75.65-58.06,123.09-93.78,44.1-33.22,87.78-59.62,136.09-69.81,32.18-6.79,66.64-4.3,100.37,2.39,82.5,16.38,113.42,84.27,183.79,85.21,70.65,.72,115.07-29.38,135.85-58.17,23.74-32.9,38.76-102.73-15.75-150.37-27.11-23.69-55.5-51.79-83.34-80.25-35.07-35.85-48.52-89.79-27.36-133.83,16.48-34.3,50.73-63.02,69.86-100.99,15.19-30.15,20.79-61.29,18.42-89.3-2.69-31.76-14.89-61.36-35.81-86.53"/><path class="cls-3" d="M1371.07,1380.58c5.04-57.61,42.09-120.52,101.04-148.58,47.86-22.78,104.39-21.65,153.45-12.02,43.43,8.53,85.2,19.11,122.62,9.61,47.44-12.04,78.7-52.2,126.12-87.52,44.92-33.45,87.57-62.68,136.44-74.89,33.05-8.25,68.88-6.73,103.76-.18,79.63,14.95,111.82,78.26,180.31,79.33,68,.83,112.33-27.03,133.95-55.49,24.37-32.08,38.46-98.93-11.14-145.96-25.67-24.34-52.7-52.97-80.09-81.29-33.7-34.84-47.59-86.06-29.14-128.91,14.72-34.18,46.9-63.6,66-101.06,15.45-30.3,22.5-61.37,21.69-89.75-.93-32.69-11.57-63.67-31.63-90.3"/><path class="cls-3" d="M1373.46,1382.32c6.69-59.19,43.27-123.81,103.48-153.18,48.04-23.44,105.3-22.8,154.49-12.14,42.99,9.32,83.64,21.71,121.24,14.51,47.61-9.13,81.75-46.35,129.16-81.26,45.74-33.69,87.35-65.76,136.78-79.96,33.92-9.74,71.11-9.13,107.15-2.74,76.75,13.59,110.22,72.25,176.83,73.45,65.34,.94,109.59-24.7,132.05-52.81,24.98-31.26,38.23-95.26-6.53-141.56-24.21-25.04-49.91-54.15-76.84-82.33-32.33-33.82-46.72-82.37-30.92-123.99,12.94-34.09,43.08-64.17,62.13-101.13,15.71-30.46,24.24-61.44,24.97-90.2,.86-33.62-8.26-65.99-27.44-94.08"/><path class="cls-3" d="M1375.86,1384.07c8.34-60.77,44.46-127.09,105.91-157.78,48.23-24.09,106.22-23.97,155.53-12.27,42.56,10.1,82.09,24.32,119.86,19.4,47.78-6.22,84.81-40.49,132.19-75.01,46.57-33.92,87.11-68.87,137.12-85.03,34.77-11.24,73.33-11.5,110.53-5.31,73.86,12.29,108.62,66.24,173.35,67.57,62.69,1.05,106.83-22.37,130.14-50.13,25.58-30.46,38.09-91.73-1.91-137.16-22.72-25.8-47.12-55.33-73.59-83.37-30.96-32.8-45.89-78.72-32.7-119.06,11.12-34.03,39.25-64.75,58.27-101.19,15.98-30.61,25.99-61.5,28.25-90.64,2.68-34.54-4.94-68.31-23.25-97.85"/><path class="cls-3" d="M1378.25,1385.81c9.99-62.34,45.66-130.36,108.35-162.38,48.43-24.74,107.14-25.14,156.57-12.39,42.12,10.87,80.53,26.92,118.48,24.29,47.94-3.31,87.86-34.62,135.23-68.75,47.39-34.14,86.87-71.99,137.46-90.1,35.62-12.75,75.55-13.84,113.92-7.88,70.96,11.03,107.02,60.23,169.86,61.7,60.03,1.17,104.06-20.05,128.24-47.45,26.17-29.66,38.05-88.34,2.7-132.75-21.19-26.62-44.33-56.5-70.34-84.42-29.6-31.78-45.12-75.09-34.48-114.14,9.26-33.99,35.44-65.33,54.4-101.26,16.24-30.77,27.77-61.56,31.53-91.09,4.52-35.45-1.63-70.62-19.06-101.62"/><path class="cls-3" d="M1380.65,1387.56c11.64-63.92,46.86-133.62,110.78-166.98,48.62-25.38,108.06-26.33,157.61-12.52,41.7,11.63,78.97,29.51,117.1,29.19,48.11-.41,90.92-28.75,138.26-62.49,48.22-34.37,86.61-75.12,137.8-95.17,36.45-14.28,77.77-16.16,117.31-10.45,68.05,9.82,105.42,54.34,166.38,55.82,57.38,1.39,101.29-17.74,126.34-44.77,26.75-28.87,38.14-85.06,7.31-128.35-19.59-27.52-41.55-57.67-67.09-85.46-28.25-30.75-44.42-71.48-36.26-109.22,7.35-33.96,31.62-65.9,50.54-101.33,16.51-30.92,29.55-61.61,34.81-91.54,6.38-36.35,1.69-72.94-14.88-105.39"/><path class="cls-3" d="M1383.04,1389.3c13.3-65.49,48.07-136.87,113.22-171.58,48.83-26.01,108.99-27.53,158.64-12.64,41.27,12.38,77.41,32.11,115.72,34.08,48.28,2.49,93.99-22.88,141.3-56.23,49.06-34.58,86.33-78.27,138.14-100.25,37.28-15.81,79.98-18.43,120.69-13.01,65.14,8.66,103.82,48.21,162.9,49.94,54.73,1.39,98.51-15.43,124.44-42.1,27.32-28.1,38.37-81.89,11.93-123.95-17.9-28.47-38.78-58.83-63.84-86.5-26.91-29.71-43.79-67.89-38.04-104.3,5.36-33.95,27.81-66.47,46.67-101.39,16.78-31.07,31.35-61.64,38.08-91.99,8.26-37.24,5-75.26-10.69-109.16"/><path class="cls-3" d="M1385.43,1391.04c14.95-67.07,49.28-140.11,115.65-176.18,49.03-26.64,109.93-28.74,159.68-12.77,40.85,13.12,75.86,34.7,114.35,38.97,48.44,5.38,97.05-17,144.33-49.97,49.89-34.79,86.05-81.43,138.49-105.32,38.1-17.36,82.19-20.66,124.08-15.58,62.24,7.54,102.22,42.2,159.42,44.06,52.07,1.5,95.72-13.14,122.53-39.42,27.89-27.33,38.76-78.8,16.54-119.55-16.09-29.49-36.01-59.99-60.59-87.54s-43.23-64.29-39.81-99.38,24-67.04,42.81-101.46c17.06-31.22,33.17-61.66,41.36-92.43,10.15-38.11,8.32-77.57-6.5-112.93"/><path class="cls-3" d="M1387.83,1392.79c16.6-68.65,50.5-143.35,118.09-180.78,49.24-27.27,110.87-29.97,160.72-12.89,40.44,13.85,74.31,37.22,112.97,43.87,48.63,8.19,100.12-11.12,147.37-43.72,50.73-35,85.75-84.59,138.83-110.39,38.91-18.91,84.39-22.83,127.47-18.15,59.33,6.45,100.62,36.19,155.94,38.18,49.42,1.61,92.92-10.87,120.63-36.74,28.46-26.57,39.34-75.75,21.15-115.14-14.11-30.56-33.25-61.13-57.34-88.58-24.23-27.62-42.75-60.68-41.59-94.46s20.2-67.61,38.94-101.53c17.34-31.36,34.98-61.67,44.64-92.88,12.06-38.96,11.63-79.89-2.31-116.7"/><path class="cls-3" d="M1390.22,1394.53c18.25-70.22,51.72-146.58,120.52-185.38,49.45-27.89,111.82-31.2,161.76-13.02,40.03,14.58,72.76,39.82,111.59,48.76,48.81,11.1,103.19-5.24,150.4-37.46,51.58-35.2,85.44-87.76,139.17-115.46,39.7-20.47,86.6-24.95,130.86-20.72,56.43,5.4,99.02,30.18,152.45,32.31,46.77,1.72,90.12-8.6,118.73-34.06s40.11-72.68,25.76-110.74c-11.94-31.66-30.5-62.28-54.09-89.63-22.91-26.57-42.34-57.04-43.37-89.54-1.08-33.86,16.39-68.18,35.08-101.59,17.62-31.51,36.81-61.67,47.92-93.33,13.97-39.8,14.94-82.21,1.87-120.47"/><path class="cls-3" d="M1392.62,1396.27c19.9-71.8,52.95-149.8,122.96-189.98,49.67-28.51,112.78-32.45,162.8-13.14,39.63,15.3,71.21,42.42,110.21,53.66,48.98,14.01,106.32,.73,153.44-31.2,52.48-35.3,85.11-90.94,139.51-120.54,40.49-22.04,88.8-27,134.24-23.29,53.54,4.38,97.42,24.17,148.97,26.43,44.11,1.83,87.31-6.34,116.83-31.38,29.57-25.09,41.07-69.55,30.38-106.34-9.52-32.75-27.77-63.41-50.84-90.67-21.59-25.51-41.99-53.34-45.15-84.61-3.41-33.76,12.65-68.71,31.21-101.66,17.96-31.62,38.63-61.65,51.2-93.77,15.89-40.63,18.26-84.52,6.06-124.24"/><path class="cls-3" d="M1395.01,1398.02c21.55-73.38,54.24-152.93,125.39-194.58,49.92-29.06,113.74-33.71,163.84-13.27,39.23,16.01,69.66,45.03,108.83,58.55,49.15,16.92,109.36,6.59,156.47-24.94,53.3-35.53,84.78-94.11,139.85-125.61,41.27-23.6,91.01-28.97,137.63-25.85,50.66,3.39,95.82,18.16,145.49,20.55,41.46,1.94,84.5-4.1,114.92-28.7,30.13-24.37,42.21-66.27,34.99-101.93-6.85-33.8-25.04-64.53-47.59-91.71-20.28-24.44-41.7-49.56-46.93-79.69-5.83-33.59,8.82-69.29,27.35-101.73,18.22-31.77,40.46-61.63,54.47-94.22,17.82-41.44,21.57-86.84,10.25-128.01"/><path class="cls-3" d="M1397.41,1399.76c23.2-74.95,55.43-156.22,127.83-199.18,50.11-29.73,114.72-34.98,164.88-13.39,38.84,16.72,68.11,47.63,107.45,63.44,49.33,19.83,112.41,12.44,159.51-18.69,54.12-35.77,84.43-97.29,140.19-130.68,42.05-25.18,93.21-30.85,141.02-28.42,47.8,2.43,94.22,12.14,142.01,14.67,38.8,2.05,81.69-1.87,113.02-26.02,30.68-23.65,43.51-62.79,39.6-97.53-3.91-34.74-22.33-65.65-44.34-92.75-18.98-23.37-41.45-45.71-48.71-74.77-8.33-33.33,5-69.87,23.48-101.8,18.49-31.93,42.29-61.59,57.75-94.67,19.75-42.24,24.89-89.16,14.44-131.79"/></g><g class="cls-2"><path class="cls-4" d="M1719.66,1102.92c18.37-26.94,38.26-52.72,59.53-77.14,9.46-10.86,19.46-21.66,32-28.13,32.04-16.52,70.36-.48,100.55,19.59,27.8,18.49,53.52,40.5,76.43,65.4,22.7,24.68,43.08,52.57,70.58,70.97,27.51,18.4,65.26,25.2,91.84,5.33,15.82-11.82,25.34-31.44,28.94-51.59,3.6-20.15,1.83-40.96-1.25-61.21-3.53-23.19-8.71-47.37-1.81-69.69,7.15-23.1,27.83-40.79,50.65-43.32,32.45-3.6,60.98,20.35,88.33,39.21,34.74,23.97,75.12,41.8,116.5,39.28,41.38-2.52,83.2-29.36,95.61-71.28"/><path class="cls-4" d="M1723.95,1111.92c18.03-26.5,37.65-51.76,58.69-75.6,9.35-10.6,19.24-21.12,31.56-27.48,25.35-13.1,54.64-5.94,80.65,7.26,6.28,3.18,12.37,6.71,18.16,10.39,27.48,17.46,52.99,38.43,75.82,62.28,22.62,23.64,42.91,50.6,70.15,68.33,15.39,10.02,33.66,16.85,51.62,17.98,15.33,.96,30.52-2.34,43.25-11.54,2.5-1.8,4.85-3.8,7.05-5.96,12.33-12.11,19.84-29.34,23.16-46.98,1.14-6.1,1.83-12.25,2.17-18.42,.82-14.84-.27-29.84-1.89-44.5-2.58-23.86-6.01-48.3,1.78-70.57,7.75-22.14,27.59-39.32,49.87-41.92,31.7-3.69,59.66,18.87,86.41,36.39,1.02,.67,2.04,1.33,3.07,1.98,33.24,21.23,71.2,36.29,109.79,32.98,39.77-3.4,79.67-30.07,91.21-71.02"/><path class="cls-4" d="M1728.23,1120.92c17.69-26.05,37.05-50.8,57.85-74.06,9.25-10.34,19.03-20.58,31.12-26.84,24.89-12.87,53.57-6.39,79.16,5.95,6.19,2.97,12.19,6.29,17.93,9.75,27.16,16.43,52.47,36.36,75.21,59.16,22.54,22.6,42.77,48.61,69.72,65.69,15.96,10.12,34.7,17.24,53.2,18.68,15.76,1.21,31.5-1.88,44.71-11.14,2.6-1.82,5.05-3.84,7.34-6.04,12.85-12.33,20.56-30.07,24.13-48.27,1.23-6.27,2.01-12.61,2.46-18.95,1.09-15.24,.42-30.67-.63-45.7-1.63-24.53-3.33-49.2,5.37-71.45,8.28-21.17,27.35-37.85,49.1-40.51,30.94-3.78,58.34,17.39,84.49,33.56,.99,.61,1.99,1.22,3,1.83,32.46,19.58,69.17,32.98,106.2,28.82,38.16-4.28,76.14-30.78,86.8-70.76"/><path class="cls-4" d="M1732.52,1129.92c17.35-25.61,36.45-49.85,57.02-72.53,9.14-10.08,18.81-20.04,30.69-26.2,24.42-12.65,52.51-6.85,77.68,4.65,6.1,2.76,12.02,5.86,17.69,9.11,26.84,15.4,51.94,34.29,74.6,56.04,22.45,21.55,42.64,46.6,69.29,63.06,16.54,10.21,35.74,17.63,54.77,19.38,16.18,1.47,32.49-1.43,46.16-10.73,2.7-1.83,5.24-3.87,7.64-6.12,13.37-12.55,21.28-30.81,25.11-49.55,1.32-6.45,2.19-12.97,2.74-19.47,1.35-15.65,1.07-31.5,.62-46.9-.73-25.19-.69-50.08,8.96-72.33,8.76-20.2,27.1-36.38,48.33-39.11,30.19-3.87,57.02,15.91,82.58,30.73,.97,.56,1.95,1.12,2.93,1.67,31.67,17.94,67.15,29.67,102.62,24.65,36.55-5.15,72.61-31.5,82.39-70.5"/><path class="cls-4" d="M1736.8,1138.92c17.01-25.16,35.85-48.89,56.18-70.99,9.04-9.82,18.59-19.5,30.25-25.55,23.96-12.43,51.44-7.3,76.19,3.34,6,2.56,11.85,5.44,17.45,8.47,26.52,14.38,51.41,32.22,73.99,52.92,22.37,20.51,42.52,44.57,68.85,60.42,17.12,10.3,36.78,18.02,56.34,20.08,16.61,1.73,33.47-.98,47.62-10.32,2.8-1.84,5.44-3.91,7.93-6.2,13.89-12.77,21.99-31.54,26.08-50.83,1.4-6.63,2.36-13.33,3.03-19.99,1.61-16.06,1.75-32.34,1.87-48.1,.2-25.87,1.92-50.94,12.55-73.22,9.18-19.24,26.86-34.91,47.56-37.7,29.43-3.96,55.7,14.43,80.66,27.9,.95,.51,1.9,1.02,2.86,1.52,30.88,16.29,65.13,26.37,99.04,20.48,34.94-6.03,69.09-32.21,77.98-70.25"/><path class="cls-4" d="M1741.09,1147.92c16.67-24.71,35.24-47.93,55.34-69.45,8.93-9.57,18.38-18.96,29.82-24.91,23.49-12.21,50.35-7.71,74.7,2.04,5.91,2.36,11.67,5.01,17.21,7.83,26.2,13.35,50.89,30.15,73.38,49.8,22.28,19.47,42.41,42.53,68.42,57.78,17.71,10.39,37.81,18.42,57.91,20.78,17.04,1.98,34.45-.53,49.07-9.92,2.89-1.85,5.64-3.95,8.22-6.27,14.42-13,22.71-32.28,27.06-52.11,1.49-6.81,2.54-13.68,3.31-20.52,1.87-16.46,2.43-33.17,3.12-49.3,1.14-26.54,4.49-51.78,16.14-74.1,9.54-18.29,26.61-33.44,46.79-36.29,28.67-4.05,54.38,12.95,78.74,25.08,.93,.46,1.86,.91,2.79,1.36,30.13,14.57,63.1,23.06,95.45,16.32,33.33-6.91,65.56-32.92,73.58-69.99"/><path class="cls-4" d="M1745.37,1156.92c16.33-24.27,34.64-46.98,54.51-67.92,8.83-9.31,18.16-18.42,29.38-24.27,23.02-11.99,49.28-8.15,73.21,.73,5.81,2.16,11.5,4.59,16.97,7.19,25.87,12.32,50.36,28.08,72.77,46.67,22.2,18.42,42.32,40.46,67.99,55.14,18.3,10.46,38.85,18.81,59.49,21.48,17.46,2.24,35.43-.08,50.53-9.51,2.99-1.86,5.84-3.98,8.51-6.35,14.94-13.22,23.43-33.01,28.03-53.39,1.57-6.98,2.72-14.04,3.6-21.04,2.13-16.87,3.11-34.01,4.37-50.49,2.09-27.21,7.02-52.61,19.73-74.98,9.85-17.34,26.37-31.96,46.02-34.89,27.92-4.14,53.06,11.47,76.82,22.25,.9,.41,1.81,.81,2.72,1.21,29.35,12.91,61.08,19.75,91.87,12.15,31.72-7.78,62.03-33.63,69.17-69.73"/><path class="cls-4" d="M1749.66,1165.92c15.99-23.82,34.04-46.02,53.67-66.38,8.72-9.05,17.94-17.88,28.95-23.62,22.56-11.77,48.21-8.6,71.72-.57,5.72,1.95,11.33,4.17,16.73,6.55,25.55,11.29,49.83,26.01,72.16,43.55,22.11,17.38,42.24,38.39,67.56,52.5,18.9,10.54,39.89,19.2,61.06,22.18,17.89,2.49,36.42,.38,51.98-9.1,3.09-1.88,6.03-4.02,8.8-6.43,15.46-13.44,24.15-33.75,29.01-54.67,1.66-7.16,2.89-14.4,3.89-21.57,2.4-17.28,3.79-34.84,5.63-51.69,3.03-27.89,9.5-53.45,23.32-75.86,10.11-16.42,26.12-30.49,45.25-33.48,27.16-4.24,51.74,10,74.9,19.42,.88,.36,1.77,.71,2.65,1.05,28.57,11.25,59.05,16.44,88.28,7.98,30.11-8.66,58.5-34.35,64.76-69.47"/><path class="cls-4" d="M1753.95,1174.92c15.65-23.38,33.44-45.06,52.83-64.84,8.62-8.79,17.73-17.34,28.51-22.98,22.09-11.55,47.14-9.05,70.23-1.88,5.63,1.75,11.15,3.74,16.49,5.9,25.23,10.26,49.31,23.94,71.55,40.43,22.03,16.34,42.16,36.3,67.13,49.86,19.5,10.6,40.92,19.59,62.63,22.88,18.31,2.75,37.4,.83,53.44-8.7,3.19-1.89,6.23-4.06,9.1-6.5,15.98-13.66,24.86-34.48,29.98-55.95,1.74-7.34,3.07-14.75,4.17-22.09,2.66-17.69,4.48-35.68,6.88-52.89,3.98-28.56,11.95-54.29,26.9-76.74,10.33-15.5,25.88-29.02,44.48-32.08,26.41-4.33,50.43,8.52,72.98,16.59,.86,.31,1.72,.6,2.58,.9,27.78,9.59,57.03,13.14,84.7,3.82,28.5-9.54,54.97-35.06,60.35-69.21"/><path class="cls-4" d="M1758.23,1183.92c15.31-22.93,32.84-44.11,52-63.31,8.51-8.53,17.51-16.8,28.08-22.34,21.63-11.33,46.07-9.5,68.75-3.18,5.54,1.54,10.98,3.32,16.25,5.26,24.91,9.23,48.78,21.87,70.94,37.31,21.94,15.29,42.09,34.19,66.69,47.23,20.11,10.65,41.96,19.98,64.21,23.58,18.74,3.01,38.38,1.28,54.89-8.29,3.29-1.9,6.43-4.09,9.39-6.58,16.5-13.88,25.58-35.22,30.96-57.23,1.83-7.51,3.25-15.11,4.46-22.61,2.92-18.09,5.17-36.51,8.13-54.09,4.93-29.23,14.34-55.14,30.49-77.63,10.5-14.61,25.63-27.55,43.71-30.67,25.65-4.42,49.11,7.04,71.06,13.77,.84,.25,1.68,.5,2.51,.75,26.99,7.93,55,9.83,81.12-.35,26.89-10.41,51.44-35.77,55.95-68.96"/><path class="cls-4" d="M1762.52,1192.92c14.98-22.49,32.23-43.15,51.16-61.77,8.41-8.27,17.29-16.26,27.64-21.69,21.16-11.11,45.01-9.95,67.26-4.49,5.45,1.34,10.81,2.9,16.01,4.62,24.59,8.21,48.26,19.8,70.33,34.19,21.86,14.25,42.03,32.08,66.26,44.59,20.73,10.7,43,20.37,65.78,24.28,19.16,3.26,39.37,1.73,56.35-7.89,3.39-1.91,6.63-4.13,9.68-6.66,17.03-14.1,26.3-35.95,31.93-58.52,1.91-7.69,3.43-15.47,4.74-23.14,3.18-18.5,5.85-37.34,9.38-55.28,5.88-29.91,16.69-56.02,34.08-78.51,10.63-13.74,25.39-26.08,42.94-29.26,24.9-4.51,47.79,5.56,69.15,10.94,.81,.2,1.63,.4,2.45,.59,26.2,6.27,52.98,6.52,77.53-4.51,25.28-11.29,47.91-36.49,51.54-68.7"/><path class="cls-4" d="M1766.8,1201.92c14.64-22.04,31.63-42.19,50.32-60.23,8.31-8.02,17.08-15.72,27.21-21.05,20.7-10.89,43.94-10.4,65.77-5.79,5.36,1.13,10.63,2.47,15.77,3.98,24.27,7.18,47.73,17.73,69.72,31.06,21.78,13.21,41.98,29.95,65.83,41.95,21.35,10.74,44.04,20.76,67.35,24.98,19.59,3.52,40.35,2.19,57.81-7.48,3.49-1.93,6.82-4.17,9.97-6.73,17.55-14.32,27.02-36.69,32.91-59.8,2-7.87,3.6-15.83,5.03-23.66,3.44-18.91,6.54-38.18,10.63-56.48,6.84-30.58,18.99-56.93,37.67-79.39,10.72-12.89,25.14-24.61,42.17-27.86,24.14-4.6,46.47,4.08,67.23,8.11,.79,.15,1.58,.29,2.38,.44,25.41,4.62,50.95,3.21,73.95-8.68,23.67-12.17,44.39-37.2,47.13-68.44"/><path class="cls-4" d="M1771.09,1210.92c14.3-21.6,31.03-41.24,49.48-58.69,8.2-7.76,16.86-15.18,26.77-20.41,20.23-10.67,42.87-10.85,64.28-7.1,5.26,.92,10.46,2.05,15.53,3.34,23.95,6.15,47.2,15.66,69.12,27.94,21.69,12.16,41.93,27.81,65.4,39.31,21.97,10.76,45.07,21.15,68.92,25.68,20.02,3.78,41.33,2.64,59.26-7.07,3.59-1.94,7.02-4.2,10.26-6.81,18.07-14.54,27.73-37.42,33.88-61.08,2.09-8.05,3.78-16.18,5.31-24.19,3.7-19.31,7.23-39.01,11.89-57.68,7.79-31.25,21.24-57.89,41.26-80.27,10.79-12.07,24.9-23.13,41.4-26.45,23.39-4.69,45.15,2.6,65.31,5.28,.77,.1,1.54,.19,2.31,.28,24.62,2.97,48.93-.09,70.37-12.85,22.06-13.05,40.86-37.91,42.73-68.18"/><path class="cls-4" d="M1775.37,1219.92c13.96-21.15,30.43-40.28,48.65-57.16,8.1-7.5,16.64-14.64,26.33-19.76,19.77-10.45,41.81-11.31,62.79-8.4,5.17,.72,10.29,1.62,15.29,2.7,23.63,5.12,46.68,13.59,68.51,24.82,21.61,11.12,41.89,25.66,64.96,36.67,22.6,10.78,46.11,21.54,70.5,26.38,20.44,4.03,42.31,3.09,60.72-6.67,3.69-1.95,7.22-4.24,10.56-6.89,18.59-14.76,28.45-38.16,34.86-62.36,2.17-8.22,3.96-16.54,5.6-24.71,3.97-19.72,7.92-39.84,13.14-58.88,8.75-31.92,23.44-58.89,44.85-81.16,10.84-11.27,24.65-21.66,40.63-25.05,22.63-4.78,43.83,1.12,63.39,2.46,.75,.05,1.49,.09,2.24,.13,23.82,1.32,46.91-3.4,66.78-17.01,20.45-13.92,37.33-38.63,38.32-67.92"/><path class="cls-4" d="M1779.66,1228.92c13.62-20.71,29.82-39.32,47.81-55.62,7.99-7.24,16.43-14.1,25.9-19.12,19.3-10.23,40.74-11.77,61.31-9.71,5.08,.51,10.11,1.2,15.05,2.06,23.31,4.09,46.15,11.53,67.9,21.7,21.52,10.08,41.85,23.5,64.53,34.03,23.23,10.78,47.15,21.93,72.07,27.08,20.87,4.29,43.3,3.54,62.17-6.26,3.79-1.96,7.42-4.28,10.85-6.96,19.11-14.98,29.17-38.89,35.83-63.64,2.26-8.4,4.14-16.9,5.88-25.23,4.23-20.13,8.61-40.68,14.39-60.07,9.7-32.59,25.59-59.96,48.44-82.04,10.87-10.5,24.41-20.19,39.86-23.64,21.88-4.87,42.51-.36,61.47-.37,.72,0,1.45-.01,2.17-.02,23.03-.33,44.88-6.71,63.2-21.18,18.84-14.8,33.8-39.34,33.91-67.66"/><path class="cls-4" d="M1783.95,1237.92c13.28-20.26,29.22-38.37,46.97-54.08,7.89-6.98,16.21-13.55,25.46-18.48,18.83-10.01,39.68-12.23,59.82-11.01,4.99,.3,9.94,.78,14.81,1.42,22.98,3.07,45.62,9.46,67.29,18.58,21.44,9.03,41.81,21.34,64.1,31.39,23.87,10.77,48.19,22.32,73.64,27.78,21.29,4.54,44.28,4,63.63-5.85,3.89-1.97,7.61-4.31,11.14-7.04,19.64-15.2,29.89-39.62,36.81-64.92,2.34-8.58,4.31-17.26,6.17-25.76,4.49-20.53,9.34-41.5,15.64-61.27,10.73-33.24,27.69-61.11,52.03-82.92,10.88-9.75,24.17-18.72,39.09-22.23,21.12-4.96,41.19-1.84,59.55-3.2,.7-.05,1.4-.12,2.1-.18,22.23-1.97,42.86-10.01,59.62-25.35,17.23-15.68,30.27-40.05,29.5-67.41"/><path class="cls-4" d="M1788.23,1246.92c12.94-19.81,28.62-37.41,46.14-52.55,7.78-6.72,15.99-13.01,25.03-17.83,18.37-9.79,38.61-12.69,58.33-12.31,4.9,.09,9.77,.35,14.57,.78,22.66,2.04,45.1,7.39,66.68,15.46,21.35,7.99,41.78,19.16,63.67,28.76,24.52,10.75,49.22,22.72,75.22,28.48,21.72,4.8,45.26,4.45,65.08-5.45,3.99-1.99,7.81-4.35,11.43-7.12,20.16-15.42,30.6-40.36,37.78-66.2,2.43-8.75,4.49-17.61,6.45-26.28,4.75-20.94,10.03-42.33,16.89-62.47,11.68-33.91,29.74-62.33,55.61-83.8,10.89-9.03,23.92-17.25,38.32-20.83,20.37-5.05,39.87-3.32,57.63-6.03,.68-.11,1.36-.22,2.03-.33,21.44-3.6,40.83-13.32,56.03-29.51,15.62-16.55,26.74-40.77,25.1-67.15"/><path class="cls-4" d="M1792.52,1255.92c12.6-19.37,28.02-36.45,45.3-51.01,7.68-6.47,15.78-12.47,24.59-17.19,17.9-9.57,37.55-13.15,56.84-13.62,4.81-.12,9.59-.07,14.34,.14,22.34,1.01,44.57,5.32,66.07,12.33,21.27,6.95,41.74,16.97,63.24,26.12,25.17,10.71,50.26,23.11,76.79,29.18,22.14,5.06,46.25,4.9,66.54-5.04,4.09-2,8.01-4.39,11.72-7.2,20.68-15.64,31.32-41.09,38.76-67.48,2.51-8.93,4.67-17.97,6.74-26.81,5.01-21.35,10.72-43.16,18.15-63.67,12.63-34.58,31.74-63.66,59.2-84.69,10.89-8.34,23.68-15.78,37.55-19.42,19.61-5.14,38.55-4.8,55.72-8.85,.66-.16,1.31-.32,1.96-.49,20.65-5.23,38.81-16.63,52.45-33.68,14.01-17.43,23.21-41.48,20.69-66.89"/><path class="cls-4" d="M1796.8,1264.91c12.26-18.92,27.41-35.5,44.46-49.47,7.57-6.21,15.56-11.93,24.16-16.55,17.44-9.35,36.48-13.62,55.35-14.92,4.72-.33,9.42-.49,14.1-.5,22.02-.02,44.04,3.25,65.46,9.21,21.18,5.9,41.71,14.78,62.8,23.48,25.82,10.65,51.3,23.5,78.36,29.88,22.57,5.31,47.23,5.35,67.99-4.63,4.19-2.01,8.21-4.42,12.02-7.27,21.2-15.86,32.04-41.83,39.73-68.77,2.6-9.11,4.84-18.33,7.03-27.33,5.27-21.76,11.4-43.99,19.4-64.87,13.58-35.25,33.71-65.08,62.79-85.57,10.89-7.67,23.43-14.31,36.78-18.02,18.86-5.23,37.23-6.28,53.8-11.68,.63-.21,1.26-.42,1.9-.64,19.86-6.86,36.78-19.94,48.87-37.84,12.4-18.31,19.69-42.19,16.28-66.63"/><path class="cls-4" d="M1801.09,1273.91c11.92-18.48,26.81-34.54,43.63-47.93,7.47-5.95,15.34-11.39,23.72-15.9,16.97-9.13,35.41-14.12,53.86-16.23,4.62-.55,9.25-.92,13.86-1.14,21.7-1.05,43.52,1.18,64.85,6.09,21.1,4.86,41.68,12.58,62.37,20.84,26.48,10.58,52.34,23.89,79.94,30.58,23,5.57,48.21,5.81,69.45-4.23,4.29-2.02,8.41-4.46,12.31-7.35,21.72-16.08,32.76-42.56,40.71-70.05,2.68-9.28,5.02-18.68,7.31-27.85,5.54-22.16,12.09-44.83,20.65-66.06,14.53-35.92,35.64-66.62,66.38-86.45,10.91-7.03,23.19-12.83,36.01-16.61,18.1-5.32,35.91-7.75,51.88-14.51,.61-.26,1.22-.53,1.83-.8,19.07-8.48,34.76-23.24,45.28-42.01,10.79-19.18,16.16-42.91,11.87-66.37"/><path class="cls-4" d="M1805.37,1282.91c11.59-18.03,26.21-33.58,42.79-46.4,7.36-5.69,15.12-10.85,23.29-15.26,16.51-8.91,34.34-14.58,52.38-17.53,4.53-.75,9.07-1.34,13.62-1.79,21.38-2.08,42.99-.89,64.24,2.97,21.02,3.82,41.65,10.37,61.94,18.2,27.15,10.48,53.37,24.28,81.51,31.28,23.42,5.83,49.19,6.26,70.91-3.82,4.39-2.03,8.6-4.5,12.6-7.43,22.25-16.31,33.47-43.3,41.68-71.33,2.77-9.46,5.2-19.04,7.6-28.38,5.8-22.57,12.78-45.66,21.9-67.26,15.48-36.59,37.54-68.28,69.97-87.33,10.93-6.42,22.94-11.36,35.24-15.2,17.35-5.42,34.59-9.23,49.96-17.34,.59-.31,1.17-.63,1.76-.95,18.31-10.08,32.74-26.55,41.7-46.18,9.18-20.06,12.63-43.62,7.47-66.11"/><path class="cls-4" d="M1809.66,1291.91c26.33-41.17,69.71-68.38,115.69-78.31,45.97-9.93,94.25-3.52,138.51,12.98,27.82,10.37,54.41,24.67,83.08,31.98,28.67,7.31,60.92,6.74,85.25-10.92,30.45-22.1,40.6-63.84,50.54-101.51,16.34-61.95,42.47-127.83,96.71-156.67,27.02-14.37,58.64-17.97,84.2-35.07,35.44-23.71,53.13-73.62,41.18-116.2"/></g><g class="cls-2"><path class="cls-5" d="M427.57,35.85c-36.18,38.73-70.11,79.46-101.54,121.91-13.97,18.87-27.7,38.59-33.97,60.77-16.03,56.71,20.14,111.78,60.13,152.51,36.83,37.52,78.47,70.47,123.77,97.94,44.89,27.22,94.04,49.6,130.64,86.68,36.6,37.08,58.32,94.55,35.51,143.79-13.57,29.3-41.06,51.39-71.14,64.28-30.08,12.89-62.75,17.5-94.96,19.82-36.88,2.66-75.8,3.05-108.23,21.96-33.58,19.57-54.78,58.68-51.92,95.77,4.07,52.76,49.55,89.49,86.83,126.15,47.35,46.58,86.91,104.27,95.3,170.81,8.39,66.54-20.67,142.44-81.77,177.06"/><path class="cls-5" d="M442.75,39.44c-35.99,38.43-69.41,79.12-100.03,121.57-13.61,18.87-26.9,38.58-33.01,60.65-4.16,15.03-4.74,29.95-2.62,44.53,5.82,40.08,32.02,77.56,60.4,107.64,31.3,33.18,66.41,62.94,104.49,88.63,5.29,3.57,10.65,7.07,16.05,10.48,40.83,25.79,85.31,47.5,120.04,80.41,2.61,2.47,5.17,5.01,7.66,7.62,35.67,37.27,56.66,94.27,34.04,143.16-13.94,30.16-42.37,52.61-73.27,66.11-5.76,2.51-11.6,4.75-17.5,6.74-25.73,8.69-52.76,12.98-79.31,16.02-37.44,4.34-76.07,7.45-108.11,27.65-31.92,20.11-52.58,57.78-49.98,94.06,3.71,51.56,46.88,87.86,81.92,124.03,2.06,2.13,4.1,4.27,6.12,6.44,41.71,44.71,75.24,98.76,81.51,160.1,6.53,64.36-22.9,137.18-82.81,170.06"/><path class="cls-5" d="M457.93,43.03c-35.8,38.14-68.72,78.78-98.51,121.24-13.25,18.88-26.11,38.57-32.05,60.52-4.04,14.92-4.65,29.74-2.65,44.22,5.49,39.89,30.64,77.29,58.08,107.6,30.27,33.43,64.44,63.52,101.63,89.61,5.17,3.63,10.4,7.18,15.69,10.66,39.91,26.25,83.44,48.55,117.31,81.7,2.55,2.49,5.04,5.04,7.47,7.66,34.74,37.46,55,93.99,32.57,142.53-14.3,31.03-43.67,53.83-75.41,67.93-5.9,2.62-11.89,4.97-17.92,7.09-26.29,9.23-53.84,14.42-80.73,18.61-38.01,6.03-76.31,11.81-107.99,33.33-30.27,20.57-50.38,56.88-48.03,92.35,3.35,50.37,44.21,86.23,77.01,121.91,1.93,2.1,3.84,4.21,5.73,6.35,39,44.03,69.7,96.7,74.25,155.93,4.67,62.17-25.12,131.93-83.85,163.06"/><path class="cls-5" d="M473.11,46.63c-35.61,37.84-68.02,78.44-97,120.9-12.89,18.88-25.31,38.57-31.08,60.39-3.93,14.81-4.56,29.52-2.68,43.92,5.16,39.71,29.25,77.03,55.75,107.55,29.24,33.67,62.47,64.11,98.77,90.6,5.05,3.69,10.16,7.3,15.32,10.84,38.99,26.72,81.57,49.6,114.58,83,2.48,2.51,4.91,5.08,7.27,7.71,33.81,37.65,53.34,93.71,31.1,141.91-14.67,31.9-44.98,55.04-77.54,69.76-6.05,2.73-12.18,5.2-18.34,7.44-26.85,9.77-54.92,15.86-82.15,21.21-38.58,7.72-76.53,16.1-107.87,39.02-28.65,20.95-48.18,55.97-46.09,90.64,2.99,49.17,41.54,84.61,72.1,119.79,1.8,2.07,3.57,4.16,5.33,6.26,36.29,43.34,64.16,94.64,66.99,151.75,2.81,59.98-27.35,126.67-84.89,156.07"/><path class="cls-5" d="M488.29,50.22c-35.41,37.54-67.32,78.1-95.49,120.56-12.53,18.89-24.51,38.56-30.12,60.26-3.81,14.7-4.46,29.31-2.7,43.62,4.83,39.52,27.86,76.76,53.43,107.51,28.21,33.92,60.5,64.69,95.9,91.58,4.93,3.75,9.91,7.42,14.95,11.02,38.07,27.19,79.7,50.64,111.84,84.3,2.41,2.52,4.77,5.11,7.08,7.76,32.88,37.84,51.67,93.43,29.64,141.28-15.03,32.76-46.28,56.26-79.67,71.58-6.2,2.84-12.47,5.42-18.76,7.79-27.41,10.31-56.02,17.24-83.57,23.8-39.16,9.32-76.73,20.34-107.74,44.7-27.04,21.25-45.98,55.07-44.15,88.92,2.63,47.98,38.87,82.98,67.18,117.66,1.66,2.04,3.31,4.1,4.94,6.17,33.58,42.65,58.62,92.59,59.72,147.58,.95,57.79-29.58,121.42-85.93,149.07"/><path class="cls-5" d="M503.47,53.81c-35.22,37.25-66.62,77.76-93.97,120.23-12.16,18.89-23.72,38.56-29.16,60.13-3.69,14.59-4.37,29.09-2.73,43.32,4.5,39.34,26.47,76.49,51.11,107.47,27.18,34.17,58.52,65.27,93.04,92.57,4.8,3.8,9.67,7.53,14.59,11.2,37.15,27.65,77.82,51.69,109.11,85.59,2.35,2.54,4.64,5.14,6.88,7.8,31.95,38.02,50.01,93.14,28.17,140.65-15.4,33.63-47.59,57.48-81.81,73.4-6.34,2.95-12.75,5.64-19.19,8.14-27.97,10.85-57.1,18.67-84.99,26.39-39.73,10.99-76.93,24.53-107.62,50.39-25.47,21.47-43.78,54.16-42.21,87.21,2.27,46.78,36.19,81.36,62.27,115.54,1.53,2.01,3.05,4.04,4.54,6.08,30.87,41.97,53.2,90.54,52.46,143.4-.78,55.61-31.81,116.16-86.97,142.07"/><path class="cls-5" d="M518.65,57.4c-35.03,36.95-65.92,77.42-92.46,119.89-11.8,18.89-22.92,38.55-28.2,60.01-3.58,14.47-4.28,28.88-2.76,43.01,4.16,39.15,25.08,76.23,48.78,107.42,26.15,34.41,56.55,65.85,90.18,93.55,4.68,3.86,9.42,7.65,14.22,11.37,36.23,28.12,75.95,52.74,106.37,86.89,2.28,2.56,4.51,5.17,6.68,7.85,31.02,38.21,48.35,92.86,26.7,140.02-15.76,34.49-48.89,58.7-83.94,75.23-6.49,3.06-13.04,5.87-19.61,8.49-28.53,11.39-58.19,20.11-86.42,28.98-40.31,12.67-77.13,28.65-107.5,56.08-23.93,21.62-41.58,53.26-40.26,85.5,1.91,45.59,33.52,79.73,57.36,113.42,1.4,1.98,2.78,3.98,4.15,5.99,28.16,41.28,47.68,88.49,45.19,139.23-2.62,53.42-34.04,110.91-88.01,135.07"/><path class="cls-5" d="M533.83,61c-34.84,36.65-65.22,77.08-90.95,119.55-11.44,18.9-22.12,38.54-27.24,59.88-3.46,14.36-4.18,28.67-2.78,42.71,3.83,38.96,23.69,75.96,46.46,107.38,25.11,34.66,54.58,66.43,87.32,94.54,4.56,3.92,9.18,7.77,13.86,11.55,35.31,28.59,74.08,53.79,103.64,88.19,2.22,2.57,4.38,5.2,6.49,7.89,30.09,38.4,46.69,92.58,25.23,139.39-16.13,35.36-50.19,59.92-86.08,77.05-6.63,3.16-13.33,6.09-20.03,8.84-29.09,11.93-59.28,21.54-87.84,31.57-40.88,14.35-77.35,32.71-107.38,61.76-22.43,21.7-39.38,52.35-38.32,83.79,1.55,44.39,30.85,78.1,52.45,111.3,1.27,1.95,2.52,3.92,3.75,5.9,25.44,40.59,42.16,86.44,37.93,135.05-4.46,51.24-36.27,105.65-89.05,128.08"/><path class="cls-5" d="M549.01,64.59c-34.64,36.35-64.52,76.74-89.43,119.22-11.08,18.9-21.33,38.54-26.27,59.75-3.34,14.25-4.09,28.45-2.81,42.41,3.5,38.78,22.3,75.69,44.14,107.33,24.08,34.9,52.61,67.02,84.46,95.52,4.44,3.98,8.94,7.89,13.49,11.73,34.39,29.05,72.21,54.84,100.91,89.48,2.15,2.59,4.25,5.24,6.29,7.94,29.16,38.59,45.03,92.3,23.77,138.76-16.49,36.23-51.5,61.13-88.21,78.87-6.78,3.27-13.62,6.32-20.45,9.19-29.65,12.47-60.36,22.98-89.26,34.16-41.45,16.03-77.59,36.72-107.26,67.45-20.96,21.72-37.18,51.45-36.38,82.08,1.19,43.2,28.18,76.48,47.54,109.18,1.14,1.92,2.25,3.86,3.36,5.81,22.64,39.96,36.64,84.39,30.67,130.88-6.3,49.06-38.5,100.4-90.09,121.08"/><path class="cls-5" d="M564.19,68.18c-34.45,36.06-63.83,76.4-87.92,118.88-10.72,18.91-20.53,38.53-25.31,59.62-3.23,14.14-4,28.24-2.84,42.11,3.17,38.59,20.91,75.43,41.81,107.29,23.05,35.15,50.64,67.6,81.6,96.51,4.31,4.03,8.69,8,13.12,11.91,33.47,29.52,70.34,55.89,98.17,90.78,2.09,2.61,4.12,5.27,6.1,7.98,28.23,38.78,43.37,92.02,22.3,138.13-16.85,37.09-52.8,62.35-90.34,80.7-6.93,3.38-13.91,6.54-20.87,9.54-30.21,13.01-61.44,24.42-90.68,36.75-42.02,17.72-77.87,40.66-107.14,73.14-19.54,21.68-34.98,50.54-34.43,80.37,.83,42,25.51,74.85,42.63,107.06,1.01,1.89,1.99,3.8,2.96,5.71,19.92,39.27,31.11,82.35,23.4,126.7-8.15,46.89-40.73,95.14-91.13,114.08"/><path class="cls-5" d="M579.37,71.77c-34.26,35.76-63.13,76.06-86.41,118.55-10.36,18.91-19.73,38.53-24.35,59.49-3.11,14.03-3.9,28.02-2.87,41.8,2.84,38.41,19.53,75.16,39.49,107.25,22.02,35.4,48.67,68.18,78.74,97.49,4.19,4.09,8.45,8.12,12.76,12.09,32.55,29.99,68.46,56.94,95.44,92.08,2.02,2.62,3.99,5.3,5.9,8.03,27.3,38.97,41.71,91.74,20.83,137.51-17.22,37.96-54.11,63.57-92.48,82.52-7.07,3.49-14.2,6.77-21.29,9.89-30.77,13.55-62.53,25.87-92.1,39.34-42.59,19.41-78.19,44.54-107.01,78.82-18.16,21.6-32.78,49.64-32.49,78.66,.46,40.81,22.83,73.23,37.72,104.94,.88,1.86,1.73,3.74,2.56,5.62,17.2,38.58,25.58,80.3,16.14,122.53-10,44.71-42.96,89.89-92.16,107.08"/><path class="cls-5" d="M594.56,75.37c-34.07,35.46-62.43,75.72-84.89,118.21-9.99,18.92-18.94,38.52-23.39,59.37-2.99,13.92-3.81,27.81-2.89,41.5,2.51,38.22,18.14,74.89,37.16,107.2,20.99,35.64,46.7,68.76,75.87,98.48,4.07,4.15,8.2,8.24,12.39,12.27,31.63,30.46,66.59,57.99,92.7,93.37,1.95,2.64,3.86,5.33,5.7,8.08,26.37,39.16,40.05,91.46,19.37,136.88-17.58,38.83-55.41,64.79-94.61,84.34-7.22,3.6-14.49,6.99-21.71,10.24-31.33,14.09-63.61,27.31-93.52,41.93-43.15,21.1-78.58,48.36-106.89,84.51-16.82,21.48-30.57,48.73-30.55,76.94,.1,39.61,20.16,71.6,32.81,102.82,.74,1.84,1.46,3.68,2.17,5.53,14.48,37.89,20.05,78.26,8.88,118.35-11.86,42.54-45.19,84.63-93.2,100.09"/><path class="cls-5" d="M609.74,78.96c-33.87,35.17-61.73,75.38-83.38,117.87-9.63,18.92-18.14,38.51-22.42,59.24-2.87,13.81-3.72,27.6-2.92,41.2,2.17,38.03,16.75,74.63,34.84,107.16,19.96,35.89,44.73,69.35,73.01,99.46,3.94,4.21,7.96,8.35,12.02,12.45,30.71,30.92,64.72,59.04,89.97,94.67,1.89,2.66,3.73,5.36,5.51,8.12,25.44,39.35,38.39,91.18,17.9,136.25-17.95,39.69-56.72,66.01-96.74,86.17-7.37,3.71-14.78,7.22-22.13,10.6-31.89,14.63-64.69,28.75-94.95,44.53-43.72,22.79-79.04,52.13-106.77,90.2-15.53,21.32-28.37,47.83-28.61,75.23-.26,38.41,17.49,69.98,27.9,100.7,.61,1.81,1.2,3.62,1.77,5.44,11.77,37.2,14.51,76.22,1.61,114.18-13.72,40.36-47.41,79.38-94.24,93.09"/><path class="cls-5" d="M624.92,82.55c-33.68,34.87-61.03,75.04-81.86,117.54-9.27,18.92-17.35,38.51-21.46,59.11-2.76,13.7-3.62,27.38-2.95,40.9,1.84,37.85,15.36,74.36,32.52,107.12,18.93,36.13,42.76,69.93,70.15,100.45,3.82,4.27,7.71,8.47,11.66,12.63,29.79,31.39,62.85,60.09,87.24,95.97,1.82,2.67,3.6,5.4,5.31,8.17,24.51,39.53,36.73,90.9,16.43,135.62-18.31,40.56-58.02,67.22-98.88,87.99-7.51,3.82-15.07,7.44-22.56,10.95-32.45,15.17-65.77,30.2-96.37,47.12-44.28,24.48-79.59,55.84-106.65,95.88-14.28,21.13-26.17,46.92-26.66,73.52-.62,37.22,14.82,68.35,22.99,98.58,.48,1.78,.93,3.56,1.38,5.35,9.05,36.51,8.97,74.17-5.65,110-15.58,38.19-49.64,74.12-95.28,86.09"/><path class="cls-5" d="M640.1,86.14c-33.49,34.57-60.33,74.7-80.35,117.2-8.91,18.93-16.55,38.5-20.5,58.98-2.64,13.59-3.53,27.17-2.97,40.59,1.51,37.66,13.97,74.09,30.19,107.07,17.9,36.38,40.79,70.51,67.29,101.43,3.7,4.32,7.47,8.59,11.29,12.81,28.87,31.86,60.97,61.13,84.5,97.26,1.76,2.69,3.46,5.43,5.12,8.21,23.59,39.72,35.07,90.61,14.96,134.99-18.68,41.42-59.33,68.44-101.01,89.81-7.66,3.92-15.36,7.67-22.98,11.3-33.01,15.71-66.81,31.71-97.79,49.71-44.79,26.27-80.24,59.5-106.53,101.57-13.08,20.93-23.97,46.02-24.72,71.81-.98,36.02,12.15,66.72,18.08,96.46,.35,1.75,.67,3.5,.98,5.26,6.34,35.81,3.42,72.13-12.92,105.83-17.45,36.01-51.87,68.87-96.32,79.09"/><path class="cls-5" d="M655.28,89.74c-33.29,34.28-59.63,74.36-78.84,116.86-8.55,18.93-15.75,38.49-19.54,58.85-2.52,13.47-3.44,26.95-3,40.29,1.18,37.47,12.58,73.83,27.87,107.03,16.87,36.63,38.82,71.09,64.43,102.42,3.58,4.38,7.22,8.71,10.92,12.99,27.95,32.32,59.1,62.18,81.77,98.56,1.69,2.71,3.33,5.46,4.92,8.26,22.66,39.91,33.41,90.33,13.5,134.36-19.04,42.29-60.63,69.66-103.15,91.64-7.81,4.03-15.65,7.89-23.4,11.65-33.57,16.25-67.9,33.15-99.21,52.3-45.36,27.96-81.01,63.11-106.41,107.26-11.91,20.71-21.77,45.11-22.78,70.1-1.34,34.83,9.47,65.1,13.17,94.33,.22,1.72,.41,3.44,.59,5.17,3.64,35.12-2.14,70.08-20.18,101.65-19.33,33.83-54.1,63.61-97.36,72.09"/><path class="cls-5" d="M670.46,93.33c-33.1,33.98-58.94,74.02-77.32,116.53-8.19,18.94-14.96,38.49-18.58,58.73-2.41,13.36-3.34,26.74-3.03,39.99,.85,37.29,11.19,73.56,25.55,106.98,15.84,36.87,36.84,71.68,61.57,103.41,3.45,4.44,6.98,8.82,10.56,13.16,27.03,32.79,57.23,63.23,79.03,99.86,1.63,2.73,3.2,5.49,4.72,8.3,21.73,40.1,31.75,90.05,12.03,133.73-19.41,43.16-61.93,70.88-105.28,93.46-7.95,4.14-15.93,8.12-23.82,12-34.13,16.79-68.98,34.59-100.63,54.89-45.92,29.64-81.9,66.67-106.28,112.94-10.79,20.49-19.57,44.21-20.83,68.39-1.7,33.63,6.8,63.47,8.26,92.21,.09,1.69,.14,3.38,.19,5.08,.94,34.42-7.7,68.02-27.44,97.48-21.21,31.64-56.33,58.36-98.4,65.1"/><path class="cls-5" d="M685.64,96.92c-32.91,33.68-58.24,73.67-75.81,116.19-7.83,18.94-14.16,38.48-17.61,58.6-2.29,13.25-3.25,26.53-3.05,39.69,.52,37.1,9.8,73.29,23.22,106.94,14.81,37.12,34.87,72.26,58.7,104.39,3.33,4.5,6.73,8.94,10.19,13.34,26.11,33.26,55.36,64.28,76.3,101.15,1.56,2.74,3.07,5.53,4.53,8.35,20.8,40.29,30.09,89.77,10.56,133.11-19.77,44.02-63.24,72.1-107.41,95.28-8.1,4.25-16.22,8.34-24.24,12.35-34.69,17.33-70.06,36.03-102.06,57.48-46.49,31.33-82.95,70.2-106.16,118.63-9.72,20.27-17.37,43.3-18.89,66.68-2.06,32.44,4.13,61.85,3.35,90.09-.05,1.66-.12,3.32-.2,4.98-1.76,33.73-13.27,65.97-34.71,93.3-23.1,29.45-58.56,53.1-99.44,58.1"/><path class="cls-5" d="M700.82,100.51c-32.72,33.38-57.54,73.33-74.3,115.86-7.46,18.95-13.36,38.48-16.65,58.47-2.17,13.14-3.16,26.31-3.08,39.38,.19,36.92,8.41,73.03,20.9,106.9,13.77,37.36,32.9,72.84,55.84,105.38,3.21,4.55,6.49,9.06,9.83,13.52,25.19,33.72,53.49,65.33,73.57,102.45,1.49,2.76,2.94,5.56,4.33,8.39,19.87,40.48,28.43,89.49,9.09,132.48-20.14,44.89-64.54,73.31-109.55,97.11-8.25,4.36-16.51,8.56-24.66,12.7-35.25,17.87-71.14,37.47-103.48,60.07-47.05,33.02-84.14,73.71-106.04,124.32-8.68,20.06-15.17,42.4-16.95,64.97-2.42,31.24,1.46,60.22-1.56,87.97-.18,1.63-.38,3.26-.6,4.89-4.45,33.04-18.83,63.9-41.97,89.13-24.99,27.25-60.79,47.85-100.48,51.1"/><path class="cls-5" d="M716,104.1c-32.52,33.09-56.84,72.99-72.78,115.52-7.1,18.95-12.57,38.47-15.69,58.34-2.06,13.03-3.06,26.1-3.11,39.08-.15,36.73,7.03,72.76,18.58,106.85,12.74,37.61,30.93,73.42,52.98,106.36,3.08,4.61,6.25,9.17,9.46,13.7,24.27,34.19,51.61,66.38,70.83,103.74,1.43,2.78,2.81,5.59,4.14,8.44,18.94,40.67,26.77,89.21,7.63,131.85-20.5,45.75-65.85,74.53-111.68,98.93-8.39,4.47-16.8,8.79-25.08,13.05-35.81,18.42-72.22,38.91-104.9,62.66-47.62,34.7-85.51,77.2-105.92,130-7.68,19.86-12.97,41.49-15.01,63.25-2.78,30.05-1.21,58.59-6.47,85.85-.31,1.6-.64,3.2-1,4.8-7.09,32.36-24.4,61.82-49.23,84.95-26.89,25.04-63.02,42.59-101.52,44.1"/><path class="cls-5" d="M731.18,107.7c-32.33,32.79-56.14,72.65-71.27,115.18-6.74,18.95-11.77,38.46-14.73,58.22-1.94,12.92-2.97,25.88-3.14,38.78-.48,36.54,5.64,72.49,16.25,106.81,11.71,37.86,28.96,74,50.12,107.35,2.96,4.67,6,9.29,9.09,13.88,23.35,34.66,49.74,67.43,68.1,105.04,1.36,2.79,2.68,5.62,3.94,8.49,18.01,40.86,25.11,88.93,6.16,131.22-20.87,46.62-67.15,75.75-113.81,100.76-8.54,4.58-17.09,9.01-25.51,13.4-36.37,18.96-73.3,40.35-106.32,65.25-48.19,36.39-87.05,80.69-105.8,135.69-6.71,19.69-10.77,40.59-13.06,61.54-3.14,28.85-3.89,56.97-11.38,83.73-.44,1.57-.9,3.14-1.39,4.71-9.81,31.67-30,59.7-56.5,80.78-28.81,22.78-65.25,37.34-102.56,37.11"/><path class="cls-5" d="M746.36,111.29c-55.81,56.43-84.98,134.94-86.68,211.41-1.7,76.47,22.55,150.76,61.19,215.1,24.28,40.43,54.28,77.52,74.09,120.4,19.81,42.87,28.5,94.24,8.44,139.12-25.11,56.17-86.6,87.15-141.87,116.33-90.89,47.99-184.95,112.9-213.42,209.22-14.18,47.98-10.36,99.42-29.2,146.06-26.12,64.67-98,110.5-167.36,106.71"/></g></g></g></g></svg>