<?xml version="1.0" encoding="UTF-8"?><svg xmlns="http://www.w3.org/2000/svg" viewBox="0 0 2712.28 1399.67"><defs><style>.cls-1{opacity:.4;}.cls-1,.cls-2{mix-blend-mode:multiply;}.cls-3{isolation:isolate;}.cls-4{stroke-width:.9px;}.cls-4,.cls-5,.cls-6,.cls-7{fill:none;stroke-miterlimit:10;}.cls-4,.cls-6{stroke:#00cdbe;}.cls-5{stroke:#6505fc;stroke-width:2.63px;}.cls-6{stroke-width:1.44px;}.cls-7{stroke:#570df8;stroke-width:3.29px;}</style></defs><g class="cls-3"><g id="Layer_2"><g id="Layer_1-2"><g class="cls-1"><path class="cls-7" d="M23.46,1086.13c-9.78-46.43-16.63-93.27-20.5-140.16-1.72-20.85-2.79-42.21,3.65-61.8,16.47-50.07,75.57-73.61,130.3-84.6,50.41-10.13,102.44-14.51,154.64-13.04,51.72,1.46,104.44,8.6,154.44-1.31,49.99-9.91,98.31-42.25,105.2-90.03,4.1-28.43-7.19-58.24-25.47-82.44-18.28-24.2-43.08-43.48-68.7-60.83-29.33-19.86-61.55-39.03-78.63-68.86-17.69-30.88-14.78-70.33,7.1-96.61,31.14-37.38,88.35-42.72,138.69-51.99,63.95-11.78,127.25-35.63,169.23-81.2,41.98-45.57,57.68-116.26,24.98-171.72"/><path class="cls-7" d="M38,1090.81c-9.65-45.61-16.23-91.62-19.72-137.67-1.55-20.47-2.44-41.42,3.87-60.66,13.22-40.31,53.87-63.61,97.33-77.17,9.61-3.01,19.35-5.54,28.96-7.67,48.94-10.85,99.62-16.1,150.58-15.62,50.48,.49,102.1,6.82,151.06-3.54,24.95-5.28,49.61-15.56,69.44-30.35,20.47-15.29,35.78-35.65,40.11-60.16,.16-.93,.31-1.86,.44-2.79,4.18-29.57-8.18-60.4-27.01-85.69-18.5-24.77-43.14-44.98-68.22-63.4-28.76-21.22-59.28-42.08-75.33-72.48-16.1-30.49-13.43-68.58,7.81-94.37,30.24-36.73,85.34-42.94,133.53-53.01,61.2-12.71,121.18-37.01,160.42-81.8,39.27-44.72,53.11-113.2,20.57-166.73"/><path class="cls-7" d="M52.53,1095.49c-9.52-44.78-15.83-89.98-18.95-135.17-1.39-20.08-2.09-40.62,4.09-59.53,12.95-39.61,52.16-62.99,94.21-77.01,9.3-3.12,18.75-5.79,28.07-8.07,47.47-11.58,96.79-17.68,146.52-18.19,49.24-.48,99.75,4.99,147.68-5.76,25.81-5.79,51.43-16.36,72.22-31.52,21.4-15.64,37.65-36.7,42.12-62.13,.17-.96,.32-1.93,.46-2.9,4.26-30.71-9.17-62.55-28.54-88.93-18.71-25.33-43.24-46.43-67.74-65.96-28.24-22.51-57-45.08-72.02-76.09-14.56-30.05-12.08-66.82,8.52-92.13,29.35-36.08,82.34-43.16,128.38-54.04,58.46-13.63,115.12-38.39,151.61-82.4,36.56-43.88,48.53-110.13,16.17-161.73"/><path class="cls-7" d="M67.07,1100.17c-9.4-43.95-15.42-88.34-18.17-132.67-1.22-19.7-1.74-39.83,4.31-58.39,12.68-38.9,50.45-62.38,91.09-76.86,9-3.24,18.14-6.03,27.19-8.46,46-12.31,93.97-19.27,142.46-20.77,48-1.45,97.39,3.11,144.3-7.98,26.68-6.31,53.25-17.15,75-32.7,22.33-15.99,39.53-37.74,44.12-64.11,.17-1,.33-2,.47-3.01,4.34-31.85-10.16-64.71-30.08-92.17-18.93-25.89-43.32-47.91-67.26-68.53-27.69-23.85-54.73-48.03-68.72-79.71-13.05-29.56-10.73-65.07,9.23-89.89,28.46-35.44,79.31-43.48,123.23-55.06,55.68-14.69,109.06-39.77,142.8-83,33.85-43.03,43.96-107.07,11.76-156.74"/><path class="cls-7" d="M81.61,1104.85c-9.27-43.13-15.02-86.69-17.39-130.17-1.06-19.32-1.4-39.03,4.52-57.25,12.4-38.2,48.74-61.76,87.97-76.7,8.7-3.35,17.54-6.28,26.3-8.86,44.53-13.04,91.14-20.86,138.4-23.35,46.75-2.42,95.03,1.19,140.93-10.21,27.54-6.84,55.07-17.95,77.78-33.88,23.26-16.35,41.41-38.78,46.12-66.09,.18-1.04,.34-2.08,.48-3.12,4.42-32.99-11.08-66.91-31.61-95.42-19.08-26.5-43.39-49.4-66.78-71.1-27.14-25.19-52.47-50.93-65.41-83.32-11.6-29.01-9.38-63.31,9.94-87.65,27.56-34.79,76.29-43.73,118.08-56.09,52.91-15.65,102.88-41.23,133.99-83.6,31.03-42.27,39.38-104,7.36-151.75"/><path class="cls-7" d="M96.15,1109.54c-9.14-42.3-14.62-85.05-16.62-127.68-.89-18.94-1.05-38.24,4.74-56.12,12.13-37.5,47.07-61.06,84.85-76.55,8.4-3.45,16.94-6.53,25.41-9.25,43.06-13.76,88.31-22.44,134.34-25.93,45.51-3.38,92.66-.76,137.55-12.43,28.41-7.39,56.89-18.75,80.56-35.05,24.19-16.7,43.28-39.82,48.13-68.06,.18-1.07,.35-2.15,.49-3.23,4.5-34.12-12.06-69.07-33.15-98.66-19.29-27.07-43.47-50.89-66.29-73.66-26.59-26.53-50.22-53.79-62.11-86.94-10.19-28.43-8.03-61.56,10.65-85.42,26.67-34.14,73.27-43.97,112.93-57.11,50.15-16.61,96.79-42.62,125.18-84.21,28.28-41.44,34.81-100.94,2.95-146.76"/><path class="cls-7" d="M110.69,1114.22c-9.01-41.47-14.21-83.41-15.84-125.18-.72-18.56-.7-37.44,4.96-54.98,11.86-36.79,45.37-60.43,81.73-76.39,8.1-3.56,16.33-6.78,24.52-9.65,41.59-14.49,85.49-24.03,130.28-28.51,44.27-4.35,90.28-2.74,134.17-14.66,29.27-7.95,58.71-19.54,83.34-36.23,25.12-17.06,45.16-40.86,50.13-70.04,.19-1.11,.36-2.23,.5-3.34,4.58-35.26-13.04-71.23-34.68-101.91-19.5-27.64-43.54-52.38-65.81-76.23-26.03-27.88-48-56.6-58.8-90.56-8.84-27.8-6.68-59.8,11.35-83.18,25.78-33.49,70.25-44.22,107.78-58.14,47.38-17.57,90.7-44.01,116.36-84.81,25.54-40.6,30.23-97.87-1.45-141.77"/><path class="cls-7" d="M125.23,1118.9c-8.88-40.64-13.81-81.77-15.06-122.68-.56-18.17-.35-36.65,5.17-53.85,11.59-36.09,43.67-59.8,78.61-76.24,7.8-3.67,15.73-7.03,23.63-10.04,40.11-15.22,82.66-25.61,126.23-31.09,43.03-5.32,87.9-4.76,130.79-16.88,30.13-8.52,60.53-20.34,86.12-37.41,26.05-17.41,47.04-41.9,52.14-72.01,.19-1.15,.37-2.3,.51-3.45,4.66-36.4-14.02-73.39-36.22-105.15-19.71-28.21-43.61-53.88-65.33-78.8-25.47-29.23-45.82-59.36-55.5-94.17-7.54-27.13-5.33-58.05,12.06-80.94,24.88-32.85,67.22-44.46,102.62-59.16,44.62-18.52,84.6-45.4,107.55-85.41,22.8-39.76,25.66-94.81-5.86-136.78"/><path class="cls-7" d="M139.76,1123.58c-8.75-39.82-13.41-80.12-14.29-120.18-.39-17.79,0-35.85,5.39-52.71,11.32-35.39,41.96-59.18,75.49-76.08,7.5-3.78,15.13-7.27,22.74-10.43,38.64-15.95,79.84-27.2,122.17-33.67,41.79-6.29,85.52-6.8,127.42-19.11,30.99-9.1,62.35-21.14,88.9-38.58,26.98-17.77,48.91-42.94,54.14-73.99,.2-1.18,.37-2.37,.52-3.56,4.74-37.54-15.01-75.54-37.75-108.39-19.92-28.77-43.68-55.38-64.85-81.36-24.91-30.58-43.68-62.09-52.19-97.79-6.3-26.43-3.98-56.29,12.77-78.7,23.99-32.2,64.2-44.7,97.47-60.18,41.85-19.47,78.51-46.78,98.74-86.01,20.07-38.92,21.08-91.74-10.26-131.79"/><path class="cls-7" d="M154.3,1128.26c-8.62-38.99-13.01-78.48-13.51-117.69-.23-17.41,.35-35.06,5.61-51.57,11.04-34.68,40.26-58.55,72.37-75.93,7.2-3.9,14.52-7.52,21.85-10.83,37.17-16.68,77.01-28.78,118.11-36.25,40.55-7.26,83.12-8.87,124.04-21.33,31.84-9.7,64.17-21.94,91.68-39.76,27.91-18.12,50.79-43.98,56.14-75.97,.2-1.22,.38-2.45,.54-3.67,4.82-38.68-15.99-77.7-39.29-111.64-20.14-29.33-43.74-56.88-64.37-83.93-24.35-31.94-41.59-64.79-48.88-101.41-5.12-25.71-2.62-54.54,13.48-76.46,23.1-31.55,61.17-44.93,92.32-61.21,39.07-20.42,72.43-48.15,89.93-86.61s16.51-88.68-14.67-126.8"/><path class="cls-7" d="M168.84,1132.94c-8.49-38.16-12.6-76.84-12.73-115.19-.06-17.03,.69-34.26,5.82-50.44,10.77-33.98,38.56-57.94,69.25-75.77,6.9-4.01,13.92-7.77,20.96-11.22,35.7-17.4,74.18-30.37,114.05-38.82,39.31-8.23,80.73-10.95,120.66-23.55,32.69-10.31,65.99-22.73,94.46-40.94,28.83-18.47,52.67-45.02,58.15-77.94,.21-1.26,.39-2.52,.55-3.78,4.9-39.82-16.98-79.85-40.82-114.88-20.35-29.9-43.8-58.39-63.89-86.5-23.78-33.3-39.56-67.45-45.58-105.02-4-24.96-1.27-52.78,14.19-74.23,22.2-30.9,58.15-45.16,87.17-62.23,36.3-21.35,66.34-49.52,81.12-87.21,14.6-37.22,11.93-85.61-19.07-121.81"/><path class="cls-7" d="M183.38,1137.63c-8.36-37.34-12.2-75.19-11.96-112.69,.11-16.65,1.04-33.47,6.04-49.3,10.5-33.28,36.85-57.32,66.13-75.62,6.6-4.13,13.32-8.02,20.07-11.62,34.23-18.13,71.36-31.96,109.99-41.4,38.07-9.2,78.32-13.06,117.29-25.78,33.54-10.94,67.81-23.53,97.24-42.11,29.76-18.83,54.54-46.06,60.15-79.92,.21-1.3,.4-2.59,.56-3.9,4.98-40.95-17.97-82.01-42.36-118.12-20.57-30.46-43.86-59.89-63.4-89.06-23.21-34.66-37.6-70.1-42.27-108.64-2.93-24.21,.08-51.03,14.9-71.99,21.31-30.26,55.12-45.38,82.02-63.26,33.53-22.28,60.26-50.89,72.31-87.81,11.87-36.36,7.36-82.55-23.48-116.82"/><path class="cls-7" d="M197.92,1142.31c-8.23-36.51-11.8-73.55-11.18-110.2,.27-16.27,1.39-32.67,6.26-48.16,10.23-32.57,35.15-56.71,63.01-75.46,6.3-4.24,12.72-8.26,19.18-12.01,32.76-18.86,68.53-33.54,105.93-43.98,36.83-10.17,75.91-15.19,113.91-28,34.38-11.59,69.62-24.33,100.03-43.29,30.69-19.18,56.42-47.1,62.16-81.89,.22-1.33,.41-2.67,.57-4.01,5.06-42.09-18.96-84.16-43.89-121.37-20.79-31.02-43.92-61.4-62.92-91.63-22.64-36.02-35.73-72.74-38.97-112.26-1.92-23.44,1.43-49.27,15.61-69.75,20.42-29.61,52.1-45.6,76.87-64.28,30.76-23.2,54.18-52.25,63.5-88.42,9.14-35.5,2.78-79.48-27.88-111.83"/><path class="cls-7" d="M212.46,1146.99c-8.11-35.68-11.4-71.91-10.4-107.7,.44-15.88,1.74-31.88,6.47-47.03,9.96-31.87,33.44-56.1,59.89-75.31,6-4.36,12.11-8.51,18.29-12.41,31.29-19.59,65.71-35.13,101.88-46.56,35.58-11.14,73.49-17.33,110.53-30.23s71.44-25.13,102.81-44.46c31.62-19.54,58.3-48.14,64.16-83.87,.22-1.37,.42-2.74,.58-4.12,5.14-43.23-19.96-86.31-45.43-124.61-21.01-31.58-43.97-62.91-62.44-94.2-22.06-37.38-33.95-75.37-35.66-115.87-.96-22.67,2.78-47.52,16.31-67.51,19.52-28.96,49.07-45.81,71.71-65.3,27.99-24.11,48.11-53.61,54.69-89.02,6.43-34.63-1.79-76.42-32.29-106.84"/><path class="cls-7" d="M226.99,1151.67c-7.98-34.86-10.99-70.26-9.63-105.2,.6-15.5,2.09-31.08,6.69-45.89,9.68-31.16,31.73-55.49,56.77-75.15,5.7-4.47,11.51-8.76,17.4-12.8,29.81-20.32,62.88-36.71,97.82-49.14,34.34-12.11,71.07-19.49,107.15-32.45,36.03-12.94,73.26-25.92,105.59-45.64,32.55-19.89,60.17-49.18,66.16-85.85,.23-1.41,.43-2.82,.59-4.23,5.22-44.37-20.95-88.46-46.97-127.86-21.23-32.14-44.02-64.42-61.96-96.77-21.48-38.75-32.27-78.01-32.36-119.49-.04-21.91,4.13-45.76,17.02-65.27,18.63-28.31,46.06-46.01,66.56-66.33,25.23-25.01,42.05-54.96,45.87-89.62s-6.37-73.35-36.69-101.85"/><path class="cls-7" d="M241.53,1156.35c-7.85-34.03-10.59-68.62-8.85-102.7,.77-15.12,2.44-30.28,6.91-44.75,9.41-30.46,30.02-54.88,53.65-75,5.39-4.59,10.91-9.01,16.51-13.19,28.34-21.04,60.05-38.3,93.76-51.72,33.1-13.08,68.64-21.66,103.78-34.67,36.85-13.65,75.08-26.72,108.37-46.82,33.48-20.25,62.05-50.22,68.17-87.82,.24-1.44,.44-2.89,.6-4.34,5.31-45.51-22.02-90.56-48.5-131.1-21.51-32.67-44.07-65.93-61.48-99.33-20.9-40.11-30.71-80.67-29.05-123.1,.83-21.15,5.48-44.01,17.73-63.03,17.74-27.67,43.05-46.2,61.41-67.35,22.48-25.9,36.01-56.32,37.06-90.22s-10.94-70.29-41.1-96.86"/><path class="cls-7" d="M256.07,1161.03c-7.72-33.2-10.19-66.98-8.07-100.21,.94-14.74,2.79-29.49,7.13-43.62,9.14-29.76,28.31-54.28,50.53-74.84,5.09-4.71,10.3-9.25,15.63-13.59,26.87-21.77,57.23-39.88,89.7-54.3,31.86-14.04,66.2-23.84,100.4-36.9,37.65-14.37,76.9-27.52,111.15-47.99,34.41-20.6,63.93-51.27,70.17-89.8,.24-1.48,.45-2.96,.62-4.45,5.39-46.64-23.01-92.72-50.04-134.34-21.72-33.23-44.12-67.44-61-101.9-20.32-41.48-29.27-83.36-25.74-126.72,1.66-20.42,6.83-42.25,18.44-60.8,16.84-27.02,40.05-46.38,56.26-68.38,19.75-26.79,29.97-57.67,28.25-90.82-1.66-32.02-15.52-67.22-45.5-91.87"/><path class="cls-7" d="M270.61,1165.71c-7.59-32.37-9.78-65.33-7.3-97.71,1.1-14.36,3.13-28.69,7.34-42.48,8.87-29.05,26.59-53.68,47.41-74.69,4.79-4.83,9.7-9.5,14.74-13.98,25.4-22.5,54.4-41.47,85.64-56.87,30.62-15.01,63.75-26.04,97.02-39.12,38.45-15.12,78.72-28.31,113.93-49.17,35.34-20.96,65.8-52.31,72.18-91.77,.25-1.52,.45-3.04,.63-4.56,5.47-47.78-24-94.87-51.57-137.59-21.94-33.79-44.16-68.95-60.51-104.47-19.73-42.85-27.95-86.1-22.44-130.34,2.46-19.71,8.18-40.5,19.15-58.56,15.95-26.37,37.06-46.57,51.11-69.4,17.02-27.67,23.95-59.03,19.44-91.42-4.33-31.16-20.09-64.16-49.91-86.87"/><path class="cls-7" d="M285.15,1170.4c-7.46-31.55-9.38-63.69-6.52-95.21,1.27-13.97,3.48-27.9,7.56-41.34,8.6-28.35,24.87-53.09,44.29-74.53,4.48-4.95,9.1-9.75,13.85-14.38,23.93-23.23,51.58-43.06,81.58-59.45,29.38-15.98,61.3-28.24,93.64-41.35,39.23-15.9,80.54-29.11,116.71-50.35,36.27-21.31,67.68-53.35,74.18-93.75,.25-1.56,.46-3.11,.64-4.67,5.55-48.92-24.98-97.03-53.11-140.83-22.15-34.36-44.14-70.49-60.03-107.03-19.06-44.24-26.77-88.9-19.13-133.95,3.22-19.03,9.54-38.74,19.86-56.32,15.06-25.72,34.09-46.75,45.96-70.42,14.31-28.55,17.93-60.4,10.63-92.02s-24.67-61.09-54.31-81.88"/><path class="cls-7" d="M299.68,1175.08c-7.33-30.72-8.98-62.05-5.74-92.71,1.43-13.59,3.83-27.1,7.78-40.21,8.32-27.65,23.14-52.49,41.17-74.38,4.17-5.07,8.49-10,12.96-14.77,22.46-23.96,48.75-44.64,77.53-62.03,28.14-16.95,58.84-30.45,90.27-43.57,40-16.7,82.36-29.91,119.49-51.52,37.19-21.66,69.56-54.39,76.18-95.73,.26-1.59,.47-3.19,.65-4.78,5.63-50.06-25.97-99.18-54.64-144.07-22.37-34.92-44.2-71.99-59.55-109.6-18.49-45.6-25.71-91.78-15.83-137.57,3.97-18.39,10.89-36.99,20.57-54.08,14.16-25.08,31.12-46.93,40.8-71.45,11.62-29.43,11.93-61.78,1.82-92.63-9.65-29.46-29.24-58.03-58.72-76.89"/><path class="cls-7" d="M314.22,1179.76c-7.2-29.89-8.58-60.4-4.97-90.22,1.6-13.21,4.18-26.31,7.99-39.07,8.05-26.94,21.38-51.92,38.05-74.22,3.86-5.19,7.89-10.24,12.07-15.17,20.99-24.68,45.92-46.23,73.47-64.61,26.9-17.92,56.38-32.67,86.89-45.79,40.76-17.53,84.18-30.71,122.27-52.7,38.12-22.02,71.43-55.43,78.19-97.7,.26-1.63,.48-3.26,.66-4.89,5.71-51.2-26.96-101.34-56.18-147.32-22.58-35.49-44.26-73.49-59.07-112.17-17.92-46.95-24.79-94.74-12.52-141.19,4.7-17.79,12.24-35.23,21.27-51.84,13.27-24.43,28.18-47.12,35.65-72.47,8.94-30.32,5.93-63.17-6.99-93.23-12.31-28.63-33.82-54.97-63.12-71.9"/><path class="cls-7" d="M328.76,1184.44c-16.83-69.15,.16-141.86,38.95-199.72,38.79-57.86,98.07-101.52,164.1-130.77,41.5-18.38,86-31.5,125.05-53.88,39.05-22.37,73.31-56.47,80.19-99.68,8.61-54.08-26.33-107-57.04-155.56-50.5-79.87-94.73-173.89-67.8-259.54,13.41-42.66,43.65-79.18,52.48-123.1,12.24-60.9-23.55-129.94-83.33-160.74"/></g><g class="cls-2"><path class="cls-5" d="M1468.99,1350c-13.8-54.63,28.87-111.42,77.22-129.79,48.35-18.37,100.5-10.19,151.15-8.32,50.65,1.87,106.4-5.14,142.97-45.55,46.76-51.65,46.97-141.11,95.58-190.55,37.89-38.53,93.84-40.17,139.99-26.05,26.09,7.98,49.73,25.38,75.05,35.76,114.81,47.09,140.87,184.14,233.37,187.24,100.15,3.36,145.56-60.07,158.85-100.5,17.02-51.78,39.4-181.89-68.14-248.21-43.69-26.94-87.19-56.26-122.08-96.17-52.23-59.75-66.2-163.99-19.03-231.04,32.33-45.95,88.16-71.36,106.93-125.84,12.62-36.62,4.41-79.03-15.1-110.83-19.51-31.8-48.97-54.2-79.95-70.98"/><path class="cls-5" d="M1471.6,1352.35c-12.11-56.61,29.94-115.79,79.62-135.65,48.47-19.38,101.42-11.5,152.25-8.44s104.86-1.84,141.7-39.27c47.06-47.88,50.43-133.42,99.04-182.33,38.75-38.8,93.35-43.69,140.15-32.6,26.87,6.36,52.1,22.19,78.54,32.57,112.18,44.04,138.94,176.3,229.44,179.5,97.34,3.4,142.86-57.13,156.94-97.1,17.85-50.67,38.95-176-63.08-242.33-42.14-27.4-84.29-57.67-118.67-97.39-50.75-58.38-64.84-158.82-20.72-224.74,30.57-45.66,84.08-72.26,102.84-126.08,12.89-36.81,6.02-78.88-11.64-111.28s-45.55-57.06-75.66-75.69"/><path class="cls-5" d="M1474.21,1354.71c-10.42-58.58,31.01-120.14,82.02-141.51s102.35-12.83,153.34-8.56c49.79,4.17,103.32,1.47,140.44-32.99,47.35-44.11,53.78-125.83,102.5-174.11,39.52-39.16,92.92-47.25,140.31-39.15,27.68,4.73,54.46,19.02,82.02,29.38,109.46,41.16,137.01,168.46,225.52,171.75,94.53,3.43,140.14-54.19,155.02-93.71,18.66-49.55,38.5-170.21-58.02-236.45-40.61-27.87-81.39-59.08-115.27-98.61-49.26-57.01-63.5-153.69-22.41-218.43,28.81-45.39,80-73.16,98.74-126.32,13.16-37,7.65-78.76-8.19-111.73-16.2-33.72-42.13-59.93-71.37-80.41"/><path class="cls-5" d="M1476.81,1357.06c-8.73-60.56,32.09-124.46,84.42-147.37,48.71-21.32,103.26-14.17,154.44-8.68,49.35,5.29,101.78,4.78,139.17-26.71,47.65-40.33,57.19-118.18,105.96-165.89,40.34-39.46,92.54-50.87,140.48-45.71,28.53,3.07,56.81,15.85,85.51,26.19,106.66,38.42,135.08,160.61,221.6,164.01,91.73,3.47,137.42-51.25,153.11-90.32,19.46-48.44,38.06-164.51-52.96-230.57-39.1-28.38-78.37-60.59-111.87-99.83-47.61-55.78-62.18-148.58-24.1-212.13,27.04-45.14,75.81-74.1,94.64-126.56,13.36-37.22,9.29-78.67-4.73-112.18-14.53-34.72-38.71-62.8-67.08-85.13"/><path class="cls-5" d="M1479.42,1359.41c-7.05-62.53,33.17-128.78,86.82-153.23,48.84-22.26,104.18-15.52,155.53-8.8s100.24,8.09,137.9-20.42c47.95-36.56,60.61-110.52,109.42-157.67,41.17-39.77,92.2-54.54,140.64-52.26,29.39,1.38,59.15,12.69,89,23,103.79,35.83,133.15,152.77,217.68,156.26,88.92,3.51,134.68-48.31,151.2-86.92,20.25-47.33,37.63-158.91-47.9-224.69-37.61-28.92-75.43-62.02-108.47-101.05-46.08-54.45-60.87-143.51-25.79-205.83,25.28-44.91,71.71-75.01,90.54-126.8,13.61-37.41,10.95-78.6-1.28-112.63-12.85-35.76-35.29-65.67-62.79-89.84"/><path class="cls-5" d="M1482.02,1361.76c-5.36-64.51,34.25-133.07,89.22-159.08,48.97-23.18,105.09-16.89,156.63-8.93,48.47,7.49,98.75,11.48,136.63-14.14,48.32-32.68,64.04-102.85,112.88-149.45,42-40.07,91.88-58.27,140.8-58.81,30.28-.34,61.47,9.55,92.49,19.81,100.86,33.37,131.21,144.93,213.76,148.51,86.11,3.55,131.94-45.37,149.29-83.53,21.02-46.21,37.23-153.42-42.84-218.81-36.12-29.5-72.5-63.46-105.06-102.28-44.56-53.11-59.58-138.48-27.49-199.53,23.51-44.71,67.61-75.92,86.44-127.04,13.86-37.61,12.64-78.55,2.18-113.08-11.15-36.81-31.87-68.54-58.5-94.56"/><path class="cls-5" d="M1484.63,1364.11c-3.67-66.48,35.34-137.35,91.62-164.94,49.12-24.08,106-18.27,157.73-9.05,48.02,8.57,97.21,14.8,135.36-7.86,48.63-28.89,67.48-95.18,116.34-141.23,42.84-40.36,91.58-62.06,140.96-65.37,31.17-2.09,63.79,6.41,95.97,16.62,97.89,31.02,129.28,137.08,209.84,140.77,83.3,3.59,129.18-42.44,147.38-80.14,21.78-45.11,36.85-148.06-37.78-212.92-34.65-30.12-69.57-64.89-101.66-103.5-43.04-51.77-58.32-133.48-29.18-193.23,21.72-44.53,63.51-76.83,82.35-127.28,14.11-37.81,14.34-78.52,5.64-113.53-9.42-37.88-28.45-71.41-54.21-99.28"/><path class="cls-5" d="M1487.24,1366.46c-1.99-68.46,36.44-141.61,94.02-170.8,49.26-24.98,106.9-19.67,158.82-9.17,47.58,9.63,95.67,18.13,134.1-1.58,48.93-25.09,70.92-87.51,119.81-133.01,43.68-40.65,91.28-65.91,141.13-71.92,32.07-3.87,66.1,3.3,99.46,13.42,94.86,28.78,127.35,129.24,205.92,133.02,80.5,3.63,126.41-39.5,145.47-76.75,22.52-44,36.52-142.82-32.72-207.04-33.18-30.78-66.64-66.32-98.26-104.72-41.52-50.42-57.1-128.52-30.87-186.93,19.93-44.38,59.42-77.73,78.25-127.51,14.37-38,16.08-78.51,9.09-113.98-7.67-38.97-25.03-74.28-49.93-104"/><path class="cls-5" d="M1489.84,1368.82c-.3-70.44,37.55-145.86,96.41-176.66,49.42-25.85,107.81-21.08,159.92-9.29,47.13,10.67,94.13,21.45,132.83,4.7,49.22-21.3,74.37-79.82,123.27-124.79,44.53-40.94,90.99-69.8,141.29-78.47,32.97-5.68,68.39,.2,102.95,10.23,91.81,26.64,125.42,121.39,202,125.28,77.69,3.67,123.63-36.56,143.56-73.35,23.24-42.9,36.24-137.71-27.66-201.16-31.71-31.49-63.71-67.75-94.86-105.94-40.01-49.07-55.9-123.6-32.56-180.63,18.12-44.26,55.33-78.64,74.15-127.75,14.63-38.2,17.84-78.5,12.55-114.43-5.9-40.07-21.6-77.15-45.64-108.71"/><path class="cls-5" d="M1492.45,1371.17c1.39-72.41,38.66-150.1,98.81-182.52,49.58-26.72,108.72-22.51,161.01-9.41,46.69,11.7,92.58,24.77,131.56,10.98,49.51-17.51,77.82-72.14,126.73-116.56,45.38-41.22,90.68-73.74,141.45-85.03,33.86-7.53,70.68-2.87,106.44,7.04,88.72,24.59,123.49,113.55,198.08,117.53,74.88,3.71,120.84-33.64,141.65-69.96,23.95-41.8,36.03-132.74-22.6-195.28-30.23-32.25-60.79-69.17-91.45-107.16-38.51-47.71-54.76-118.71-34.25-174.33,16.28-44.16,51.25-79.54,70.05-127.99,14.9-38.39,19.62-78.5,16-114.88-4.1-41.17-18.18-80.02-41.35-113.43"/><path class="cls-5" d="M1495.05,1373.52c3.08-74.39,39.77-154.32,101.21-188.38,49.75-27.57,109.64-23.95,162.11-9.53,46.25,12.72,91.03,28.09,130.29,17.26,49.8-13.73,81.28-64.44,130.19-108.34,46.23-41.5,90.37-77.72,141.61-91.58,34.74-9.4,72.96-5.92,109.93,3.85,85.6,22.63,121.55,105.86,194.16,109.78,72.07,3.9,118.04-30.71,139.74-66.57,24.65-40.72,35.9-127.9-17.54-189.4-28.73-33.06-57.87-70.59-88.05-108.38-37.01-46.35-53.65-113.86-35.94-168.02,14.41-44.09,47.17-80.44,65.96-128.23,15.16-38.59,21.43-78.5,19.46-115.33-2.27-42.28-14.76-82.88-37.06-118.15"/><path class="cls-5" d="M1497.66,1375.87c4.76-76.36,40.9-158.53,103.61-194.24,49.92-28.42,110.56-25.41,163.21-9.65,45.82,13.72,89.48,31.4,129.02,23.54,50.09-9.95,84.74-56.74,133.65-100.12s90.03-81.73,141.78-98.13c35.61-11.29,75.23-8.94,113.41,.66,82.46,20.74,119.61,98.02,190.24,102.04s115.22-27.79,137.83-63.18c25.33-39.63,35.86-123.19-12.48-183.52-27.2-33.94-54.96-72.01-84.65-109.6-35.52-44.98-52.6-109.04-37.63-161.72,12.51-44.04,43.1-81.34,61.86-128.47,15.43-38.78,23.26-78.51,22.91-115.78-.41-43.38-11.34-85.75-32.77-122.86"/><path class="cls-5" d="M1500.27,1378.22c6.45-78.34,42.03-162.73,106.01-200.09,50.09-29.26,111.48-26.89,164.3-9.77,45.39,14.71,87.92,34.71,127.76,29.83,50.37-6.17,88.21-49.04,137.11-91.9,47.96-42.04,89.68-85.76,141.94-104.69,36.47-13.21,77.49-11.93,116.9-2.53,79.3,18.92,117.68,90.18,186.32,94.29,66.45,3.98,112.39-24.88,135.92-59.78,26-38.56,35.94-118.62-7.42-177.63-25.62-34.87-52.05-73.42-81.25-110.83-34.04-43.61-51.61-104.25-39.33-155.42,10.57-44.01,39.03-82.24,57.76-128.71,15.71-38.97,25.12-78.51,26.37-116.23,1.48-44.49-7.92-88.62-28.48-127.58"/><path class="cls-5" d="M1502.87,1380.57c8.14-80.31,43.17-166.91,108.41-205.95,50.28-30.09,112.41-28.38,165.4-9.89,44.96,15.69,86.37,38.01,126.49,36.11,50.66-2.41,91.69-41.33,140.58-83.68,48.83-42.3,89.31-89.82,142.1-111.24,37.32-15.14,79.75-14.88,120.39-5.72,76.13,17.16,115.75,82.34,182.4,86.55s109.55-21.98,134.01-56.39c26.65-37.5,36.15-114.16-2.36-171.75-23.98-35.87-49.14-74.83-77.84-112.05-32.56-42.23-50.69-99.47-41.02-149.12,8.57-44,34.96-83.14,53.66-128.95,15.98-39.16,26.99-78.5,29.82-116.68,3.39-45.58-4.5-91.49-24.19-132.3"/><path class="cls-5" d="M1505.48,1382.92c9.82-82.29,44.32-171.09,110.81-211.81,50.47-30.91,113.35-29.88,166.49-10.01,44.54,16.65,84.82,41.31,125.22,42.39,50.94,1.36,95.16-33.61,144.04-75.46,49.7-42.55,88.91-93.9,142.26-117.79,38.14-17.08,82-17.79,123.88-8.91,72.95,15.47,113.82,74.49,178.48,78.8,60.84,4.06,106.7-19.09,132.1-53,27.3-36.45,36.5-109.8,2.7-165.87-22.26-36.93-46.25-76.23-74.44-113.27-31.09-40.85-49.83-94.72-42.71-142.82,6.52-44.01,30.9-84.03,49.56-129.19,16.26-39.35,28.88-78.48,33.28-117.13,5.32-46.67-1.08-94.36-19.9-137.02"/><path class="cls-5" d="M1508.08,1385.28c11.51-84.26,45.48-175.26,113.21-217.67,50.66-31.73,114.29-31.4,167.59-10.13,44.13,17.61,83.27,44.61,123.95,48.67,51.23,5.12,98.64-25.89,147.5-67.24,50.58-42.8,88.5-97.98,142.43-124.35,38.96-19.04,84.24-20.66,127.37-12.1,69.76,13.83,111.88,66.64,174.56,71.05,58.03,4.09,103.84-16.21,130.19-49.6,27.93-35.4,37-105.52,7.76-159.99-20.42-38.04-43.36-77.63-71.04-114.49-29.63-39.46-49.04-89.96-44.4-136.52,4.39-44.01,26.84-84.92,45.47-129.42,16.55-39.53,30.78-78.46,36.74-117.58,7.27-47.74,2.34-97.23-15.62-141.73"/><path class="cls-5" d="M1510.69,1387.63c13.2-86.24,46.64-179.41,115.61-223.53,50.86-32.54,115.25-32.93,168.69-10.25,43.72,18.56,81.72,47.9,122.68,54.95,51.52,8.87,102.12-18.17,150.96-59.02,51.46-43.05,88.06-102.08,142.59-130.9,39.76-21.01,86.47-23.46,130.85-15.3,66.57,12.25,109.95,58.79,170.64,63.31,55.22,4.12,100.97-13.34,128.28-46.21s37.67-101.3,12.82-154.11c-18.45-39.21-40.47-79.02-67.64-115.71-28.17-38.06-48.33-85.2-46.09-130.22s22.78-85.82,41.37-129.66c16.84-39.72,32.69-78.42,40.19-118.03,9.23-48.8,5.76-100.1-11.33-146.45"/><path class="cls-5" d="M1513.29,1389.98c14.89-88.21,47.82-183.56,118.01-229.39,51.06-33.34,116.21-34.48,169.78-10.37,43.32,19.49,80.18,51.19,121.42,61.23,51.82,12.62,105.61-10.44,154.42-50.8,52.35-43.29,87.61-106.19,142.75-137.45,40.54-22.99,88.69-26.21,134.34-18.49,63.38,10.72,108.02,50.93,166.72,55.56,52.41,4.14,98.09-10.48,126.37-42.82,29.17-33.35,38.52-97.1,17.88-148.23-16.31-40.41-37.6-80.4-64.23-116.93-26.73-36.66-47.69-80.41-47.78-123.91-.1-44,18.73-86.71,37.27-129.9,17.13-39.9,34.62-78.37,43.65-118.48,11.22-49.85,9.18-102.97-7.04-151.17"/><path class="cls-5" d="M1515.9,1392.33c16.57-90.19,49-187.69,120.41-235.25,51.27-34.14,117.18-36.03,170.88-10.49,42.93,20.42,78.66,54.41,120.15,67.51,52.15,16.28,109.1-2.71,157.88-42.58,53.24-43.52,87.14-110.3,142.91-144,41.31-24.97,90.91-28.87,137.83-21.68,60.2,9.23,106.1,42.96,162.8,47.82,49.62,4.07,95.2-7.64,124.46-39.43,29.78-32.35,39.54-92.88,22.94-142.34-13.97-41.64-34.74-81.78-60.83-118.15-25.29-35.25-47.11-75.6-49.47-117.61s14.68-87.59,33.17-130.14c17.42-40.08,36.55-78.32,47.1-118.93,13.21-50.89,12.6-105.84-2.75-155.88"/><path class="cls-5" d="M1518.51,1394.68c18.26-92.17,50.19-191.82,122.81-241.1,51.48-34.94,118.17-37.6,171.97-10.61,42.55,21.34,77.12,57.72,118.88,73.79,52.45,20.06,112.67,5.13,161.34-34.36,54.22-43.64,86.65-114.41,143.08-150.56,42.07-26.96,93.13-31.45,141.32-24.87,57.03,7.79,104.17,35.11,158.88,40.07,46.81,4.11,92.3-4.81,122.54-36.03s40.74-88.58,28-136.46c-11.41-42.86-31.89-83.15-57.43-119.37-23.86-33.84-46.59-70.73-51.16-111.31-4.94-43.86,10.7-88.45,29.08-130.38,17.79-40.23,38.49-78.25,50.56-119.38,15.22-51.91,16.02-108.7,1.54-160.6"/><path class="cls-5" d="M1521.11,1397.03c19.95-94.14,51.46-195.84,125.21-246.96,51.75-35.65,119.16-39.18,173.07-10.73,42.17,22.26,75.58,61.03,117.61,80.08,52.75,23.83,116.13,12.82,164.81-26.14,55.08-43.91,86.15-118.52,143.24-157.11,42.82-28.95,95.34-33.92,144.81-28.06,53.87,6.38,102.24,27.27,154.96,32.32,44,4.14,89.39-2,120.63-32.64,30.98-30.38,42.12-84.17,33.06-130.58-8.59-44.03-29.06-84.51-54.02-120.6-22.44-32.43-46.13-65.8-52.86-105.01-7.5-43.71,6.63-89.35,24.98-130.62,18.06-40.42,40.44-78.17,54.01-119.83,17.24-52.91,19.44-111.57,5.83-165.32"/><path class="cls-5" d="M1523.72,1399.39c21.64-96.12,52.59-200.06,127.61-252.82,51.92-36.52,120.17-40.77,174.17-10.85,41.81,23.17,74.04,64.34,116.34,86.36,53.05,27.61,119.59,20.52,168.27-17.92,55.94-44.17,85.64-122.63,143.4-163.66,43.56-30.94,97.55-36.27,148.29-31.25,50.74,5.02,100.3,19.43,151.04,24.58,41.19,4.18,86.48,.8,118.72-29.25,31.57-29.41,43.64-79.57,38.12-124.7-5.51-45.13-26.24-85.86-50.62-121.82-21.03-31.01-45.71-60.8-54.55-98.71-10.13-43.48,2.55-90.25,20.88-130.86,18.33-40.61,42.39-78.07,57.47-120.28,19.26-53.91,22.86-114.44,10.12-170.04"/></g><g class="cls-2"><path class="cls-4" d="M1843.66,1102.92c18.37-26.94,38.26-52.72,59.53-77.14,9.46-10.86,19.46-21.66,32-28.13,32.04-16.52,70.36-.48,100.55,19.59,27.8,18.49,53.52,40.5,76.43,65.4,22.7,24.68,43.08,52.57,70.58,70.97,27.51,18.4,65.26,25.2,91.84,5.33,15.82-11.82,25.34-31.44,28.94-51.59,3.6-20.15,1.83-40.96-1.25-61.21-3.53-23.19-8.71-47.37-1.81-69.69,7.15-23.1,27.83-40.79,50.65-43.32,32.45-3.6,60.98,20.35,88.33,39.21,34.74,23.97,75.12,41.8,116.5,39.28,41.38-2.52,83.2-29.36,95.61-71.28"/><path class="cls-4" d="M1847.95,1111.92c18.03-26.5,37.65-51.76,58.69-75.6,9.35-10.6,19.24-21.12,31.56-27.48,25.35-13.1,54.64-5.94,80.65,7.26,6.28,3.18,12.37,6.71,18.16,10.39,27.48,17.46,52.99,38.43,75.82,62.28,22.62,23.64,42.91,50.6,70.15,68.33,15.39,10.02,33.66,16.85,51.62,17.98,15.33,.96,30.52-2.34,43.25-11.54,2.5-1.8,4.85-3.8,7.05-5.96,12.33-12.11,19.84-29.34,23.16-46.98,1.14-6.1,1.83-12.25,2.17-18.42,.82-14.84-.27-29.84-1.89-44.5-2.58-23.86-6.01-48.3,1.78-70.57,7.75-22.14,27.59-39.32,49.87-41.92,31.7-3.69,59.66,18.87,86.41,36.39,1.02,.67,2.04,1.33,3.07,1.98,33.24,21.23,71.2,36.29,109.79,32.98,39.77-3.4,79.67-30.07,91.21-71.02"/><path class="cls-4" d="M1852.23,1120.92c17.69-26.05,37.05-50.8,57.85-74.06,9.25-10.34,19.03-20.58,31.12-26.84,24.89-12.87,53.57-6.39,79.16,5.95,6.19,2.97,12.19,6.29,17.93,9.75,27.16,16.43,52.47,36.36,75.21,59.16,22.54,22.6,42.77,48.61,69.72,65.69,15.96,10.12,34.7,17.24,53.2,18.68,15.76,1.21,31.5-1.88,44.71-11.14,2.6-1.82,5.05-3.84,7.34-6.04,12.85-12.33,20.56-30.07,24.13-48.27,1.23-6.27,2.01-12.61,2.46-18.95,1.09-15.24,.42-30.67-.63-45.7-1.63-24.53-3.33-49.2,5.37-71.45,8.28-21.17,27.35-37.85,49.1-40.51,30.94-3.78,58.34,17.39,84.49,33.56,.99,.61,1.99,1.22,3,1.83,32.46,19.58,69.17,32.98,106.2,28.82,38.16-4.28,76.14-30.78,86.8-70.76"/><path class="cls-4" d="M1856.52,1129.92c17.35-25.61,36.45-49.85,57.02-72.53,9.14-10.08,18.81-20.04,30.69-26.2,24.42-12.65,52.51-6.85,77.68,4.65,6.1,2.76,12.02,5.86,17.69,9.11,26.84,15.4,51.94,34.29,74.6,56.04,22.45,21.55,42.64,46.6,69.29,63.06,16.54,10.21,35.74,17.63,54.77,19.38,16.18,1.47,32.49-1.43,46.16-10.73,2.7-1.83,5.24-3.87,7.64-6.12,13.37-12.55,21.28-30.81,25.11-49.55,1.32-6.45,2.19-12.97,2.74-19.47,1.35-15.65,1.07-31.5,.62-46.9-.73-25.19-.69-50.08,8.96-72.33,8.76-20.2,27.1-36.38,48.33-39.11,30.19-3.87,57.02,15.91,82.58,30.73,.97,.56,1.95,1.12,2.93,1.67,31.67,17.94,67.15,29.67,102.62,24.65,36.55-5.15,72.61-31.5,82.39-70.5"/><path class="cls-4" d="M1860.8,1138.92c17.01-25.16,35.85-48.89,56.18-70.99,9.04-9.82,18.59-19.5,30.25-25.55,23.96-12.43,51.44-7.3,76.19,3.34,6,2.56,11.85,5.44,17.45,8.47,26.52,14.38,51.41,32.22,73.99,52.92,22.37,20.51,42.52,44.57,68.85,60.42,17.12,10.3,36.78,18.02,56.34,20.08,16.61,1.73,33.47-.98,47.62-10.32,2.8-1.84,5.44-3.91,7.93-6.2,13.89-12.77,21.99-31.54,26.08-50.83,1.4-6.63,2.36-13.33,3.03-19.99,1.61-16.06,1.75-32.34,1.87-48.1,.2-25.87,1.92-50.94,12.55-73.22,9.18-19.24,26.86-34.91,47.56-37.7,29.43-3.96,55.7,14.43,80.66,27.9,.95,.51,1.9,1.02,2.86,1.52,30.88,16.29,65.13,26.37,99.04,20.48,34.94-6.03,69.09-32.21,77.98-70.25"/><path class="cls-4" d="M1865.09,1147.92c16.67-24.71,35.24-47.93,55.34-69.45,8.93-9.57,18.38-18.96,29.82-24.91,23.49-12.21,50.35-7.71,74.7,2.04,5.91,2.36,11.67,5.01,17.21,7.83,26.2,13.35,50.89,30.15,73.38,49.8,22.28,19.47,42.41,42.53,68.42,57.78,17.71,10.39,37.81,18.42,57.91,20.78,17.04,1.98,34.45-.53,49.07-9.92,2.89-1.85,5.64-3.95,8.22-6.27,14.42-13,22.71-32.28,27.06-52.11,1.49-6.81,2.54-13.68,3.31-20.52,1.87-16.46,2.43-33.17,3.12-49.3,1.14-26.54,4.49-51.78,16.14-74.1,9.54-18.29,26.61-33.44,46.79-36.29,28.67-4.05,54.38,12.95,78.74,25.08,.93,.46,1.86,.91,2.79,1.36,30.13,14.57,63.1,23.06,95.45,16.32,33.33-6.91,65.56-32.92,73.58-69.99"/><path class="cls-4" d="M1869.37,1156.92c16.33-24.27,34.64-46.98,54.51-67.92,8.83-9.31,18.16-18.42,29.38-24.27,23.02-11.99,49.28-8.15,73.21,.73,5.81,2.16,11.5,4.59,16.97,7.19,25.87,12.32,50.36,28.08,72.77,46.67,22.2,18.42,42.32,40.46,67.99,55.14,18.3,10.46,38.85,18.81,59.49,21.48,17.46,2.24,35.43-.08,50.53-9.51,2.99-1.86,5.84-3.98,8.51-6.35,14.94-13.22,23.43-33.01,28.03-53.39,1.57-6.98,2.72-14.04,3.6-21.04,2.13-16.87,3.11-34.01,4.37-50.49,2.09-27.21,7.02-52.61,19.73-74.98,9.85-17.34,26.37-31.96,46.02-34.89,27.92-4.14,53.06,11.47,76.82,22.25,.9,.41,1.81,.81,2.72,1.21,29.35,12.91,61.08,19.75,91.87,12.15,31.72-7.78,62.03-33.63,69.17-69.73"/><path class="cls-4" d="M1873.66,1165.92c15.99-23.82,34.04-46.02,53.67-66.38,8.72-9.05,17.94-17.88,28.95-23.62,22.56-11.77,48.21-8.6,71.72-.57,5.72,1.95,11.33,4.17,16.73,6.55,25.55,11.29,49.83,26.01,72.16,43.55,22.11,17.38,42.24,38.39,67.56,52.5,18.9,10.54,39.89,19.2,61.06,22.18,17.89,2.49,36.42,.38,51.98-9.1,3.09-1.88,6.03-4.02,8.8-6.43,15.46-13.44,24.15-33.75,29.01-54.67,1.66-7.16,2.89-14.4,3.89-21.57,2.4-17.28,3.79-34.84,5.63-51.69,3.03-27.89,9.5-53.45,23.32-75.86,10.11-16.42,26.12-30.49,45.25-33.48,27.16-4.24,51.74,10,74.9,19.42,.88,.36,1.77,.71,2.65,1.05,28.57,11.25,59.05,16.44,88.28,7.98,30.11-8.66,58.5-34.35,64.76-69.47"/><path class="cls-4" d="M1877.95,1174.92c15.65-23.38,33.44-45.06,52.83-64.84,8.62-8.79,17.73-17.34,28.51-22.98,22.09-11.55,47.14-9.05,70.23-1.88,5.63,1.75,11.15,3.74,16.49,5.9,25.23,10.26,49.31,23.94,71.55,40.43,22.03,16.34,42.16,36.3,67.13,49.86,19.5,10.6,40.92,19.59,62.63,22.88,18.31,2.75,37.4,.83,53.44-8.7,3.19-1.89,6.23-4.06,9.1-6.5,15.98-13.66,24.86-34.48,29.98-55.95,1.74-7.34,3.07-14.75,4.17-22.09,2.66-17.69,4.48-35.68,6.88-52.89,3.98-28.56,11.95-54.29,26.9-76.74,10.33-15.5,25.88-29.02,44.48-32.08,26.41-4.33,50.43,8.52,72.98,16.59,.86,.31,1.72,.6,2.58,.9,27.78,9.59,57.03,13.14,84.7,3.82,28.5-9.54,54.97-35.06,60.35-69.21"/><path class="cls-4" d="M1882.23,1183.92c15.31-22.93,32.84-44.11,52-63.31,8.51-8.53,17.51-16.8,28.08-22.34,21.63-11.33,46.07-9.5,68.75-3.18,5.54,1.54,10.98,3.32,16.25,5.26,24.91,9.23,48.78,21.87,70.94,37.31,21.94,15.29,42.09,34.19,66.69,47.23,20.11,10.65,41.96,19.98,64.21,23.58,18.74,3.01,38.38,1.28,54.89-8.29,3.29-1.9,6.43-4.09,9.39-6.58,16.5-13.88,25.58-35.22,30.96-57.23,1.83-7.51,3.25-15.11,4.46-22.61,2.92-18.09,5.17-36.51,8.13-54.09,4.93-29.23,14.34-55.14,30.49-77.63,10.5-14.61,25.63-27.55,43.71-30.67,25.65-4.42,49.11,7.04,71.06,13.77,.84,.25,1.68,.5,2.51,.75,26.99,7.93,55,9.83,81.12-.35,26.89-10.41,51.44-35.77,55.95-68.96"/><path class="cls-4" d="M1886.52,1192.92c14.98-22.49,32.23-43.15,51.16-61.77,8.41-8.27,17.29-16.26,27.64-21.69,21.16-11.11,45.01-9.95,67.26-4.49,5.45,1.34,10.81,2.9,16.01,4.62,24.59,8.21,48.26,19.8,70.33,34.19,21.86,14.25,42.03,32.08,66.26,44.59,20.73,10.7,43,20.37,65.78,24.28,19.16,3.26,39.37,1.73,56.35-7.89,3.39-1.91,6.63-4.13,9.68-6.66,17.03-14.1,26.3-35.95,31.93-58.52,1.91-7.69,3.43-15.47,4.74-23.14,3.18-18.5,5.85-37.34,9.38-55.28,5.88-29.91,16.69-56.02,34.08-78.51,10.63-13.74,25.39-26.08,42.94-29.26,24.9-4.51,47.79,5.56,69.15,10.94,.81,.2,1.63,.4,2.45,.59,26.2,6.27,52.98,6.52,77.53-4.51,25.28-11.29,47.91-36.49,51.54-68.7"/><path class="cls-4" d="M1890.8,1201.92c14.64-22.04,31.63-42.19,50.32-60.23,8.31-8.02,17.08-15.72,27.21-21.05,20.7-10.89,43.94-10.4,65.77-5.79,5.36,1.13,10.63,2.47,15.77,3.98,24.27,7.18,47.73,17.73,69.72,31.06,21.78,13.21,41.98,29.95,65.83,41.95,21.35,10.74,44.04,20.76,67.35,24.98,19.59,3.52,40.35,2.19,57.81-7.48,3.49-1.93,6.82-4.17,9.97-6.73,17.55-14.32,27.02-36.69,32.91-59.8,2-7.87,3.6-15.83,5.03-23.66,3.44-18.91,6.54-38.18,10.63-56.48,6.84-30.58,18.99-56.93,37.67-79.39,10.72-12.89,25.14-24.61,42.17-27.86,24.14-4.6,46.47,4.08,67.23,8.11,.79,.15,1.58,.29,2.38,.44,25.41,4.62,50.95,3.21,73.95-8.68,23.67-12.17,44.39-37.2,47.13-68.44"/><path class="cls-4" d="M1895.09,1210.92c14.3-21.6,31.03-41.24,49.48-58.69,8.2-7.76,16.86-15.18,26.77-20.41,20.23-10.67,42.87-10.85,64.28-7.1,5.26,.92,10.46,2.05,15.53,3.34,23.95,6.15,47.2,15.66,69.12,27.94,21.69,12.16,41.93,27.81,65.4,39.31,21.97,10.76,45.07,21.15,68.92,25.68,20.02,3.78,41.33,2.64,59.26-7.07,3.59-1.94,7.02-4.2,10.26-6.81,18.07-14.54,27.73-37.42,33.88-61.08,2.09-8.05,3.78-16.18,5.31-24.19,3.7-19.31,7.23-39.01,11.89-57.68,7.79-31.25,21.24-57.89,41.26-80.27,10.79-12.07,24.9-23.13,41.4-26.45,23.39-4.69,45.15,2.6,65.31,5.28,.77,.1,1.54,.19,2.31,.28,24.62,2.97,48.93-.09,70.37-12.85,22.06-13.05,40.86-37.91,42.73-68.18"/><path class="cls-4" d="M1899.37,1219.92c13.96-21.15,30.43-40.28,48.65-57.16,8.1-7.5,16.64-14.64,26.33-19.76,19.77-10.45,41.81-11.31,62.79-8.4,5.17,.72,10.29,1.62,15.29,2.7,23.63,5.12,46.68,13.59,68.51,24.82,21.61,11.12,41.89,25.66,64.96,36.67,22.6,10.78,46.11,21.54,70.5,26.38,20.44,4.03,42.31,3.09,60.72-6.67,3.69-1.95,7.22-4.24,10.56-6.89,18.59-14.76,28.45-38.16,34.86-62.36,2.17-8.22,3.96-16.54,5.6-24.71,3.97-19.72,7.92-39.84,13.14-58.88,8.75-31.92,23.44-58.89,44.85-81.16,10.84-11.27,24.65-21.66,40.63-25.05,22.63-4.78,43.83,1.12,63.39,2.46,.75,.05,1.49,.09,2.24,.13,23.82,1.32,46.91-3.4,66.78-17.01,20.45-13.92,37.33-38.63,38.32-67.92"/><path class="cls-4" d="M1903.66,1228.92c13.62-20.71,29.82-39.32,47.81-55.62,7.99-7.24,16.43-14.1,25.9-19.12,19.3-10.23,40.74-11.77,61.31-9.71,5.08,.51,10.11,1.2,15.05,2.06,23.31,4.09,46.15,11.53,67.9,21.7,21.52,10.08,41.85,23.5,64.53,34.03,23.23,10.78,47.15,21.93,72.07,27.08,20.87,4.29,43.3,3.54,62.17-6.26,3.79-1.96,7.42-4.28,10.85-6.96,19.11-14.98,29.17-38.89,35.83-63.64,2.26-8.4,4.14-16.9,5.88-25.23,4.23-20.13,8.61-40.68,14.39-60.07,9.7-32.59,25.59-59.96,48.44-82.04,10.87-10.5,24.41-20.19,39.86-23.64,21.88-4.87,42.51-.36,61.47-.37,.72,0,1.45-.01,2.17-.02,23.03-.33,44.88-6.71,63.2-21.18,18.84-14.8,33.8-39.34,33.91-67.66"/><path class="cls-4" d="M1907.95,1237.92c13.28-20.26,29.22-38.37,46.97-54.08,7.89-6.98,16.21-13.55,25.46-18.48,18.83-10.01,39.68-12.23,59.82-11.01,4.99,.3,9.94,.78,14.81,1.42,22.98,3.07,45.62,9.46,67.29,18.58,21.44,9.03,41.81,21.34,64.1,31.39,23.87,10.77,48.19,22.32,73.64,27.78,21.29,4.54,44.28,4,63.63-5.85,3.89-1.97,7.61-4.31,11.14-7.04,19.64-15.2,29.89-39.62,36.81-64.92,2.34-8.58,4.31-17.26,6.17-25.76,4.49-20.53,9.34-41.5,15.64-61.27,10.73-33.24,27.69-61.11,52.03-82.92,10.88-9.75,24.17-18.72,39.09-22.23,21.12-4.96,41.19-1.84,59.55-3.2,.7-.05,1.4-.12,2.1-.18,22.23-1.97,42.86-10.01,59.62-25.35,17.23-15.68,30.27-40.05,29.5-67.41"/><path class="cls-4" d="M1912.23,1246.92c12.94-19.81,28.62-37.41,46.14-52.55,7.78-6.72,15.99-13.01,25.03-17.83,18.37-9.79,38.61-12.69,58.33-12.31,4.9,.09,9.77,.35,14.57,.78,22.66,2.04,45.1,7.39,66.68,15.46,21.35,7.99,41.78,19.16,63.67,28.76,24.52,10.75,49.22,22.72,75.22,28.48,21.72,4.8,45.26,4.45,65.08-5.45,3.99-1.99,7.81-4.35,11.43-7.12,20.16-15.42,30.6-40.36,37.78-66.2,2.43-8.75,4.49-17.61,6.45-26.28,4.75-20.94,10.03-42.33,16.89-62.47,11.68-33.91,29.74-62.33,55.61-83.8,10.89-9.03,23.92-17.25,38.32-20.83,20.37-5.05,39.87-3.32,57.63-6.03,.68-.11,1.36-.22,2.03-.33,21.44-3.6,40.83-13.32,56.03-29.51,15.62-16.55,26.74-40.77,25.1-67.15"/><path class="cls-4" d="M1916.52,1255.92c12.6-19.37,28.02-36.45,45.3-51.01,7.68-6.47,15.78-12.47,24.59-17.19,17.9-9.57,37.55-13.15,56.84-13.62,4.81-.12,9.59-.07,14.34,.14,22.34,1.01,44.57,5.32,66.07,12.33,21.27,6.95,41.74,16.97,63.24,26.12,25.17,10.71,50.26,23.11,76.79,29.18,22.14,5.06,46.25,4.9,66.54-5.04,4.09-2,8.01-4.39,11.72-7.2,20.68-15.64,31.32-41.09,38.76-67.48,2.51-8.93,4.67-17.97,6.74-26.81,5.01-21.35,10.72-43.16,18.15-63.67,12.63-34.58,31.74-63.66,59.2-84.69,10.89-8.34,23.68-15.78,37.55-19.42,19.61-5.14,38.55-4.8,55.72-8.85,.66-.16,1.31-.32,1.96-.49,20.65-5.23,38.81-16.63,52.45-33.68,14.01-17.43,23.21-41.48,20.69-66.89"/><path class="cls-4" d="M1920.8,1264.91c12.26-18.92,27.41-35.5,44.46-49.47,7.57-6.21,15.56-11.93,24.16-16.55,17.44-9.35,36.48-13.62,55.35-14.92,4.72-.33,9.42-.49,14.1-.5,22.02-.02,44.04,3.25,65.46,9.21,21.18,5.9,41.71,14.78,62.8,23.48,25.82,10.65,51.3,23.5,78.36,29.88,22.57,5.31,47.23,5.35,67.99-4.63,4.19-2.01,8.21-4.42,12.02-7.27,21.2-15.86,32.04-41.83,39.73-68.77,2.6-9.11,4.84-18.33,7.03-27.33,5.27-21.76,11.4-43.99,19.4-64.87,13.58-35.25,33.71-65.08,62.79-85.57,10.89-7.67,23.43-14.31,36.78-18.02,18.86-5.23,37.23-6.28,53.8-11.68,.63-.21,1.26-.42,1.9-.64,19.86-6.86,36.78-19.94,48.87-37.84,12.4-18.31,19.69-42.19,16.28-66.63"/><path class="cls-4" d="M1925.09,1273.91c11.92-18.48,26.81-34.54,43.63-47.93,7.47-5.95,15.34-11.39,23.72-15.9,16.97-9.13,35.41-14.12,53.86-16.23,4.62-.55,9.25-.92,13.86-1.14,21.7-1.05,43.52,1.18,64.85,6.09,21.1,4.86,41.68,12.58,62.37,20.84,26.48,10.58,52.34,23.89,79.94,30.58,23,5.57,48.21,5.81,69.45-4.23,4.29-2.02,8.41-4.46,12.31-7.35,21.72-16.08,32.76-42.56,40.71-70.05,2.68-9.28,5.02-18.68,7.31-27.85,5.54-22.16,12.09-44.83,20.65-66.06,14.53-35.92,35.64-66.62,66.38-86.45,10.91-7.03,23.19-12.83,36.01-16.61,18.1-5.32,35.91-7.75,51.88-14.51,.61-.26,1.22-.53,1.83-.8,19.07-8.48,34.76-23.24,45.28-42.01,10.79-19.18,16.16-42.91,11.87-66.37"/><path class="cls-4" d="M1929.37,1282.91c11.59-18.03,26.21-33.58,42.79-46.4,7.36-5.69,15.12-10.85,23.29-15.26,16.51-8.91,34.34-14.58,52.38-17.53,4.53-.75,9.07-1.34,13.62-1.79,21.38-2.08,42.99-.89,64.24,2.97,21.02,3.82,41.65,10.37,61.94,18.2,27.15,10.48,53.37,24.28,81.51,31.28,23.42,5.83,49.19,6.26,70.91-3.82,4.39-2.03,8.6-4.5,12.6-7.43,22.25-16.31,33.47-43.3,41.68-71.33,2.77-9.46,5.2-19.04,7.6-28.38,5.8-22.57,12.78-45.66,21.9-67.26,15.48-36.59,37.54-68.28,69.97-87.33,10.93-6.42,22.94-11.36,35.24-15.2,17.35-5.42,34.59-9.23,49.96-17.34,.59-.31,1.17-.63,1.76-.95,18.31-10.08,32.74-26.55,41.7-46.18,9.18-20.06,12.63-43.62,7.47-66.11"/><path class="cls-4" d="M1933.66,1291.91c26.33-41.17,69.71-68.38,115.69-78.31,45.97-9.93,94.25-3.52,138.51,12.98,27.82,10.37,54.41,24.67,83.08,31.98,28.67,7.31,60.92,6.74,85.25-10.92,30.45-22.1,40.6-63.84,50.54-101.51,16.34-61.95,42.47-127.83,96.71-156.67,27.02-14.37,58.64-17.97,84.2-35.07,35.44-23.71,53.13-73.62,41.18-116.2"/></g><g class="cls-2"><path class="cls-6" d="M433.57,35.85c-36.18,38.73-70.11,79.46-101.54,121.91-13.97,18.87-27.7,38.59-33.97,60.77-16.03,56.71,20.14,111.78,60.13,152.51,36.83,37.52,78.47,70.47,123.77,97.94,44.89,27.22,94.04,49.6,130.64,86.68,36.6,37.08,58.32,94.55,35.51,143.79-13.57,29.3-41.06,51.39-71.14,64.28-30.08,12.89-62.75,17.5-94.96,19.82-36.88,2.66-75.8,3.05-108.23,21.96-33.58,19.57-54.78,58.68-51.92,95.77,4.07,52.76,49.55,89.49,86.83,126.15,47.35,46.58,86.91,104.27,95.3,170.81,8.39,66.54-20.67,142.44-81.77,177.06"/><path class="cls-6" d="M448.75,39.44c-35.99,38.43-69.41,79.12-100.03,121.57-13.61,18.87-26.9,38.58-33.01,60.65-4.16,15.03-4.74,29.95-2.62,44.53,5.82,40.08,32.02,77.56,60.4,107.64,31.3,33.18,66.41,62.94,104.49,88.63,5.29,3.57,10.65,7.07,16.05,10.48,40.83,25.79,85.31,47.5,120.04,80.41,2.61,2.47,5.17,5.01,7.66,7.62,35.67,37.27,56.66,94.27,34.04,143.16-13.94,30.16-42.37,52.61-73.27,66.11-5.76,2.51-11.6,4.75-17.5,6.74-25.73,8.69-52.76,12.98-79.31,16.02-37.44,4.34-76.07,7.45-108.11,27.65s-52.58,57.78-49.98,94.06c3.71,51.56,46.88,87.86,81.92,124.03,2.06,2.13,4.1,4.27,6.12,6.44,41.71,44.71,75.24,98.76,81.51,160.1,6.53,64.36-22.9,137.18-82.81,170.06"/><path class="cls-6" d="M463.93,43.03c-35.8,38.14-68.72,78.78-98.51,121.24-13.25,18.88-26.11,38.57-32.05,60.52-4.04,14.92-4.65,29.74-2.65,44.22,5.49,39.89,30.64,77.29,58.08,107.6,30.27,33.43,64.44,63.52,101.63,89.61,5.17,3.63,10.4,7.18,15.69,10.66,39.91,26.25,83.44,48.55,117.31,81.7,2.55,2.49,5.04,5.04,7.47,7.66,34.74,37.46,55,93.99,32.57,142.53-14.3,31.03-43.67,53.83-75.41,67.93-5.9,2.62-11.89,4.97-17.92,7.09-26.29,9.23-53.84,14.42-80.73,18.61-38.01,6.03-76.31,11.81-107.99,33.33-30.27,20.57-50.38,56.88-48.03,92.35,3.35,50.37,44.21,86.23,77.01,121.91,1.93,2.1,3.84,4.21,5.73,6.35,39,44.03,69.7,96.7,74.25,155.93,4.67,62.17-25.12,131.93-83.85,163.06"/><path class="cls-6" d="M479.11,46.63c-35.61,37.84-68.02,78.44-97,120.9-12.89,18.88-25.31,38.57-31.08,60.39-3.93,14.81-4.56,29.52-2.68,43.92,5.16,39.71,29.25,77.03,55.75,107.55,29.24,33.67,62.47,64.11,98.77,90.6,5.05,3.69,10.16,7.3,15.32,10.84,38.99,26.72,81.57,49.6,114.58,83,2.48,2.51,4.91,5.08,7.27,7.71,33.81,37.65,53.34,93.71,31.1,141.91-14.67,31.9-44.98,55.04-77.54,69.76-6.05,2.73-12.18,5.2-18.34,7.44-26.85,9.77-54.92,15.86-82.15,21.21-38.58,7.72-76.53,16.1-107.87,39.02-28.65,20.95-48.18,55.97-46.09,90.64,2.99,49.17,41.54,84.61,72.1,119.79,1.8,2.07,3.57,4.16,5.33,6.26,36.29,43.34,64.16,94.64,66.99,151.75,2.81,59.98-27.35,126.67-84.89,156.07"/><path class="cls-6" d="M494.29,50.22c-35.41,37.54-67.32,78.1-95.49,120.56-12.53,18.89-24.51,38.56-30.12,60.26-3.81,14.7-4.46,29.31-2.7,43.62,4.83,39.52,27.86,76.76,53.43,107.51,28.21,33.92,60.5,64.69,95.9,91.58,4.93,3.75,9.91,7.42,14.95,11.02,38.07,27.19,79.7,50.64,111.84,84.3,2.41,2.52,4.77,5.11,7.08,7.76,32.88,37.84,51.67,93.43,29.64,141.28-15.03,32.76-46.28,56.26-79.67,71.58-6.2,2.84-12.47,5.42-18.76,7.79-27.41,10.31-56.02,17.24-83.57,23.8-39.16,9.32-76.73,20.34-107.74,44.7-27.04,21.25-45.98,55.07-44.15,88.92,2.63,47.98,38.87,82.98,67.18,117.66,1.66,2.04,3.31,4.1,4.94,6.17,33.58,42.65,58.62,92.59,59.72,147.58,.95,57.79-29.58,121.42-85.93,149.07"/><path class="cls-6" d="M509.47,53.81c-35.22,37.25-66.62,77.76-93.97,120.23-12.16,18.89-23.72,38.56-29.16,60.13-3.69,14.59-4.37,29.09-2.73,43.32,4.5,39.34,26.47,76.49,51.11,107.47,27.18,34.17,58.52,65.27,93.04,92.57,4.8,3.8,9.67,7.53,14.59,11.2,37.15,27.65,77.82,51.69,109.11,85.59,2.35,2.54,4.64,5.14,6.88,7.8,31.95,38.02,50.01,93.14,28.17,140.65-15.4,33.63-47.59,57.48-81.81,73.4-6.34,2.95-12.75,5.64-19.19,8.14-27.97,10.85-57.1,18.67-84.99,26.39-39.73,10.99-76.93,24.53-107.62,50.39-25.47,21.47-43.78,54.16-42.21,87.21,2.27,46.78,36.19,81.36,62.27,115.54,1.53,2.01,3.05,4.04,4.54,6.08,30.87,41.97,53.2,90.54,52.46,143.4-.78,55.61-31.81,116.16-86.97,142.07"/><path class="cls-6" d="M524.65,57.4c-35.03,36.95-65.92,77.42-92.46,119.89-11.8,18.89-22.92,38.55-28.2,60.01-3.58,14.47-4.28,28.88-2.76,43.01,4.16,39.15,25.08,76.23,48.78,107.42,26.15,34.41,56.55,65.85,90.18,93.55,4.68,3.86,9.42,7.65,14.22,11.37,36.23,28.12,75.95,52.74,106.37,86.89,2.28,2.56,4.51,5.17,6.68,7.85,31.02,38.21,48.35,92.86,26.7,140.02-15.76,34.49-48.89,58.7-83.94,75.23-6.49,3.06-13.04,5.87-19.61,8.49-28.53,11.39-58.19,20.11-86.42,28.98-40.31,12.67-77.13,28.65-107.5,56.08-23.93,21.62-41.58,53.26-40.26,85.5,1.91,45.59,33.52,79.73,57.36,113.42,1.4,1.98,2.78,3.98,4.15,5.99,28.16,41.28,47.68,88.49,45.19,139.23-2.62,53.42-34.04,110.91-88.01,135.07"/><path class="cls-6" d="M539.83,61c-34.84,36.65-65.22,77.08-90.95,119.55-11.44,18.9-22.12,38.54-27.24,59.88-3.46,14.36-4.18,28.67-2.78,42.71,3.83,38.96,23.69,75.96,46.46,107.38,25.11,34.66,54.58,66.43,87.32,94.54,4.56,3.92,9.18,7.77,13.86,11.55,35.31,28.59,74.08,53.79,103.64,88.19,2.22,2.57,4.38,5.2,6.49,7.89,30.09,38.4,46.69,92.58,25.23,139.39-16.13,35.36-50.19,59.92-86.08,77.05-6.63,3.16-13.33,6.09-20.03,8.84-29.09,11.93-59.28,21.54-87.84,31.57-40.88,14.35-77.35,32.71-107.38,61.76-22.43,21.7-39.38,52.35-38.32,83.79,1.55,44.39,30.85,78.1,52.45,111.3,1.27,1.95,2.52,3.92,3.75,5.9,25.44,40.59,42.16,86.44,37.93,135.05-4.46,51.24-36.27,105.65-89.05,128.08"/><path class="cls-6" d="M555.01,64.59c-34.64,36.35-64.52,76.74-89.43,119.22-11.08,18.9-21.33,38.54-26.27,59.75-3.34,14.25-4.09,28.45-2.81,42.41,3.5,38.78,22.3,75.69,44.14,107.33,24.08,34.9,52.61,67.02,84.46,95.52,4.44,3.98,8.94,7.89,13.49,11.73,34.39,29.05,72.21,54.84,100.91,89.48,2.15,2.59,4.25,5.24,6.29,7.94,29.16,38.59,45.03,92.3,23.77,138.76-16.49,36.23-51.5,61.13-88.21,78.87-6.78,3.27-13.62,6.32-20.45,9.19-29.65,12.47-60.36,22.98-89.26,34.16-41.45,16.03-77.59,36.72-107.26,67.45-20.96,21.72-37.18,51.45-36.38,82.08,1.19,43.2,28.18,76.48,47.54,109.18,1.14,1.92,2.25,3.86,3.36,5.81,22.64,39.96,36.64,84.39,30.67,130.88-6.3,49.06-38.5,100.4-90.09,121.08"/><path class="cls-6" d="M570.19,68.18c-34.45,36.06-63.83,76.4-87.92,118.88-10.72,18.91-20.53,38.53-25.31,59.62-3.23,14.14-4,28.24-2.84,42.11,3.17,38.59,20.91,75.43,41.81,107.29,23.05,35.15,50.64,67.6,81.6,96.51,4.31,4.03,8.69,8,13.12,11.91,33.47,29.52,70.34,55.89,98.17,90.78,2.09,2.61,4.12,5.27,6.1,7.98,28.23,38.78,43.37,92.02,22.3,138.13-16.85,37.09-52.8,62.35-90.34,80.7-6.93,3.38-13.91,6.54-20.87,9.54-30.21,13.01-61.44,24.42-90.68,36.75-42.02,17.72-77.87,40.66-107.14,73.14-19.54,21.68-34.98,50.54-34.43,80.37,.83,42,25.51,74.85,42.63,107.06,1.01,1.89,1.99,3.8,2.96,5.71,19.92,39.27,31.11,82.35,23.4,126.7-8.15,46.89-40.73,95.14-91.13,114.08"/><path class="cls-6" d="M585.37,71.77c-34.26,35.76-63.13,76.06-86.41,118.55-10.36,18.91-19.73,38.53-24.35,59.49-3.11,14.03-3.9,28.02-2.87,41.8,2.84,38.41,19.53,75.16,39.49,107.25,22.02,35.4,48.67,68.18,78.74,97.49,4.19,4.09,8.45,8.12,12.76,12.09,32.55,29.99,68.46,56.94,95.44,92.08,2.02,2.62,3.99,5.3,5.9,8.03,27.3,38.97,41.71,91.74,20.83,137.51-17.22,37.96-54.11,63.57-92.48,82.52-7.07,3.49-14.2,6.77-21.29,9.89-30.77,13.55-62.53,25.87-92.1,39.34-42.59,19.41-78.19,44.54-107.01,78.82-18.16,21.6-32.78,49.64-32.49,78.66,.46,40.81,22.83,73.23,37.72,104.94,.88,1.86,1.73,3.74,2.56,5.62,17.2,38.58,25.58,80.3,16.14,122.53-10,44.71-42.96,89.89-92.16,107.08"/><path class="cls-6" d="M600.56,75.37c-34.07,35.46-62.43,75.72-84.89,118.21-9.99,18.92-18.94,38.52-23.39,59.37-2.99,13.92-3.81,27.81-2.89,41.5,2.51,38.22,18.14,74.89,37.16,107.2,20.99,35.64,46.7,68.76,75.87,98.48,4.07,4.15,8.2,8.24,12.39,12.27,31.63,30.46,66.59,57.99,92.7,93.37,1.95,2.64,3.86,5.33,5.7,8.08,26.37,39.16,40.05,91.46,19.37,136.88-17.58,38.83-55.41,64.79-94.61,84.34-7.22,3.6-14.49,6.99-21.71,10.24-31.33,14.09-63.61,27.31-93.52,41.93-43.15,21.1-78.58,48.36-106.89,84.51-16.82,21.48-30.57,48.73-30.55,76.94,.1,39.61,20.16,71.6,32.81,102.82,.74,1.84,1.46,3.68,2.17,5.53,14.48,37.89,20.05,78.26,8.88,118.35-11.86,42.54-45.19,84.63-93.2,100.09"/><path class="cls-6" d="M615.74,78.96c-33.87,35.17-61.73,75.38-83.38,117.87-9.63,18.92-18.14,38.51-22.42,59.24-2.87,13.81-3.72,27.6-2.92,41.2,2.17,38.03,16.75,74.63,34.84,107.16,19.96,35.89,44.73,69.35,73.01,99.46,3.94,4.21,7.96,8.35,12.02,12.45,30.71,30.92,64.72,59.04,89.97,94.67,1.89,2.66,3.73,5.36,5.51,8.12,25.44,39.35,38.39,91.18,17.9,136.25-17.95,39.69-56.72,66.01-96.74,86.17-7.37,3.71-14.78,7.22-22.13,10.6-31.89,14.63-64.69,28.75-94.95,44.53-43.72,22.79-79.04,52.13-106.77,90.2-15.53,21.32-28.37,47.83-28.61,75.23-.26,38.41,17.49,69.98,27.9,100.7,.61,1.81,1.2,3.62,1.77,5.44,11.77,37.2,14.51,76.22,1.61,114.18-13.72,40.36-47.41,79.38-94.24,93.09"/><path class="cls-6" d="M630.92,82.55c-33.68,34.87-61.03,75.04-81.86,117.54-9.27,18.92-17.35,38.51-21.46,59.11-2.76,13.7-3.62,27.38-2.95,40.9,1.84,37.85,15.36,74.36,32.52,107.12,18.93,36.13,42.76,69.93,70.15,100.45,3.82,4.27,7.71,8.47,11.66,12.63,29.79,31.39,62.85,60.09,87.24,95.97,1.82,2.67,3.6,5.4,5.31,8.17,24.51,39.53,36.73,90.9,16.43,135.62-18.31,40.56-58.02,67.22-98.88,87.99-7.51,3.82-15.07,7.44-22.56,10.95-32.45,15.17-65.77,30.2-96.37,47.12-44.28,24.48-79.59,55.84-106.65,95.88-14.28,21.13-26.17,46.92-26.66,73.52-.62,37.22,14.82,68.35,22.99,98.58,.48,1.78,.93,3.56,1.38,5.35,9.05,36.51,8.97,74.17-5.65,110-15.58,38.19-49.64,74.12-95.28,86.09"/><path class="cls-6" d="M646.1,86.14c-33.49,34.57-60.33,74.7-80.35,117.2-8.91,18.93-16.55,38.5-20.5,58.98-2.64,13.59-3.53,27.17-2.97,40.59,1.51,37.66,13.97,74.09,30.19,107.07,17.9,36.38,40.79,70.51,67.29,101.43,3.7,4.32,7.47,8.59,11.29,12.81,28.87,31.86,60.97,61.13,84.5,97.26,1.76,2.69,3.46,5.43,5.12,8.21,23.59,39.72,35.07,90.61,14.96,134.99-18.68,41.42-59.33,68.44-101.01,89.81-7.66,3.92-15.36,7.67-22.98,11.3-33.01,15.71-66.81,31.71-97.79,49.71-44.79,26.27-80.24,59.5-106.53,101.57-13.08,20.93-23.97,46.02-24.72,71.81-.98,36.02,12.15,66.72,18.08,96.46,.35,1.75,.67,3.5,.98,5.26,6.34,35.81,3.42,72.13-12.92,105.83-17.45,36.01-51.87,68.87-96.32,79.09"/><path class="cls-6" d="M661.28,89.74c-33.29,34.28-59.63,74.36-78.84,116.86-8.55,18.93-15.75,38.49-19.54,58.85-2.52,13.47-3.44,26.95-3,40.29,1.18,37.47,12.58,73.83,27.87,107.03,16.87,36.63,38.82,71.09,64.43,102.42,3.58,4.38,7.22,8.71,10.92,12.99,27.95,32.32,59.1,62.18,81.77,98.56,1.69,2.71,3.33,5.46,4.92,8.26,22.66,39.91,33.41,90.33,13.5,134.36-19.04,42.29-60.63,69.66-103.15,91.64-7.81,4.03-15.65,7.89-23.4,11.65-33.57,16.25-67.9,33.15-99.21,52.3-45.36,27.96-81.01,63.11-106.41,107.26-11.91,20.71-21.77,45.11-22.78,70.1-1.34,34.83,9.47,65.1,13.17,94.33,.22,1.72,.41,3.44,.59,5.17,3.64,35.12-2.14,70.08-20.18,101.65-19.33,33.83-54.1,63.61-97.36,72.09"/><path class="cls-6" d="M676.46,93.33c-33.1,33.98-58.94,74.02-77.32,116.53-8.19,18.94-14.96,38.49-18.58,58.73-2.41,13.36-3.34,26.74-3.03,39.99,.85,37.29,11.19,73.56,25.55,106.98,15.84,36.87,36.84,71.68,61.57,103.41,3.45,4.44,6.98,8.82,10.56,13.16,27.03,32.79,57.23,63.23,79.03,99.86,1.63,2.73,3.2,5.49,4.72,8.3,21.73,40.1,31.75,90.05,12.03,133.73-19.41,43.16-61.93,70.88-105.28,93.46-7.95,4.14-15.93,8.12-23.82,12-34.13,16.79-68.98,34.59-100.63,54.89-45.92,29.64-81.9,66.67-106.28,112.94-10.79,20.49-19.57,44.21-20.83,68.39-1.7,33.63,6.8,63.47,8.26,92.21,.09,1.69,.14,3.38,.19,5.08,.94,34.42-7.7,68.02-27.44,97.48-21.21,31.64-56.33,58.36-98.4,65.1"/><path class="cls-6" d="M691.64,96.92c-32.91,33.68-58.24,73.67-75.81,116.19-7.83,18.94-14.16,38.48-17.61,58.6-2.29,13.25-3.25,26.53-3.05,39.69,.52,37.1,9.8,73.29,23.22,106.94,14.81,37.12,34.87,72.26,58.7,104.39,3.33,4.5,6.73,8.94,10.19,13.34,26.11,33.26,55.36,64.28,76.3,101.15,1.56,2.74,3.07,5.53,4.53,8.35,20.8,40.29,30.09,89.77,10.56,133.11-19.77,44.02-63.24,72.1-107.41,95.28-8.1,4.25-16.22,8.34-24.24,12.35-34.69,17.33-70.06,36.03-102.06,57.48-46.49,31.33-82.95,70.2-106.16,118.63-9.72,20.27-17.37,43.3-18.89,66.68-2.06,32.44,4.13,61.85,3.35,90.09-.05,1.66-.12,3.32-.2,4.98-1.76,33.73-13.27,65.97-34.71,93.3-23.1,29.45-58.56,53.1-99.44,58.1"/><path class="cls-6" d="M706.82,100.51c-32.72,33.38-57.54,73.33-74.3,115.86-7.46,18.95-13.36,38.48-16.65,58.47-2.17,13.14-3.16,26.31-3.08,39.38,.19,36.92,8.41,73.03,20.9,106.9,13.77,37.36,32.9,72.84,55.84,105.38,3.21,4.55,6.49,9.06,9.83,13.52,25.19,33.72,53.49,65.33,73.57,102.45,1.49,2.76,2.94,5.56,4.33,8.39,19.87,40.48,28.43,89.49,9.09,132.48-20.14,44.89-64.54,73.31-109.55,97.11-8.25,4.36-16.51,8.56-24.66,12.7-35.25,17.87-71.14,37.47-103.48,60.07-47.05,33.02-84.14,73.71-106.04,124.32-8.68,20.06-15.17,42.4-16.95,64.97-2.42,31.24,1.46,60.22-1.56,87.97-.18,1.63-.38,3.26-.6,4.89-4.45,33.04-18.83,63.9-41.97,89.13-24.99,27.25-60.79,47.85-100.48,51.1"/><path class="cls-6" d="M722,104.1c-32.52,33.09-56.84,72.99-72.78,115.52-7.1,18.95-12.57,38.47-15.69,58.34-2.06,13.03-3.06,26.1-3.11,39.08-.15,36.73,7.03,72.76,18.58,106.85,12.74,37.61,30.93,73.42,52.98,106.36,3.08,4.61,6.25,9.17,9.46,13.7,24.27,34.19,51.61,66.38,70.83,103.74,1.43,2.78,2.81,5.59,4.14,8.44,18.94,40.67,26.77,89.21,7.63,131.85-20.5,45.75-65.85,74.53-111.68,98.93-8.39,4.47-16.8,8.79-25.08,13.05-35.81,18.42-72.22,38.91-104.9,62.66-47.62,34.7-85.51,77.2-105.92,130-7.68,19.86-12.97,41.49-15.01,63.25-2.78,30.05-1.21,58.59-6.47,85.85-.31,1.6-.64,3.2-1,4.8-7.09,32.36-24.4,61.82-49.23,84.95-26.89,25.04-63.02,42.59-101.52,44.1"/><path class="cls-6" d="M737.18,107.7c-32.33,32.79-56.14,72.65-71.27,115.18-6.74,18.95-11.77,38.46-14.73,58.22-1.94,12.92-2.97,25.88-3.14,38.78-.48,36.54,5.64,72.49,16.25,106.81,11.71,37.86,28.96,74,50.12,107.35,2.96,4.67,6,9.29,9.09,13.88,23.35,34.66,49.74,67.43,68.1,105.04,1.36,2.79,2.68,5.62,3.94,8.49,18.01,40.86,25.11,88.93,6.16,131.22-20.87,46.62-67.15,75.75-113.81,100.76-8.54,4.58-17.09,9.01-25.51,13.4-36.37,18.96-73.3,40.35-106.32,65.25-48.19,36.39-87.05,80.69-105.8,135.69-6.71,19.69-10.77,40.59-13.06,61.54-3.14,28.85-3.89,56.97-11.38,83.73-.44,1.57-.9,3.14-1.39,4.71-9.81,31.67-30,59.7-56.5,80.78-28.81,22.78-65.25,37.34-102.56,37.11"/><path class="cls-6" d="M752.36,111.29c-55.81,56.43-84.98,134.94-86.68,211.41-1.7,76.47,22.55,150.76,61.19,215.1,24.28,40.43,54.28,77.52,74.09,120.4,19.81,42.87,28.5,94.24,8.44,139.12-25.11,56.17-86.6,87.15-141.87,116.33-90.89,47.99-184.95,112.9-213.42,209.22-14.18,47.98-10.36,99.42-29.2,146.06-26.12,64.67-98,110.5-167.36,106.71"/></g></g></g></g></svg>