<?xml version="1.0" encoding="UTF-8"?><svg xmlns="http://www.w3.org/2000/svg" viewBox="0 0 2126.41 1143.69"><defs><style>.cls-1{opacity:.4;}.cls-1,.cls-2{mix-blend-mode:multiply;}.cls-3{isolation:isolate;}.cls-4{stroke-width:.72px;}.cls-4,.cls-5,.cls-6,.cls-7{fill:none;stroke-miterlimit:10;}.cls-4,.cls-7{stroke:#00cdbe;}.cls-5{stroke:#570df8;stroke-width:2.63px;}.cls-6{stroke:#6505fc;stroke-width:2.11px;}.cls-7{stroke-width:1.15px;}</style></defs><g class="cls-3"><g id="Layer_2"><g id="Layer_1-2"><g class="cls-1"><path class="cls-5" d="M17.71,961.04c-7.35-39.6-12.5-79.54-15.4-119.53-1.29-17.78-2.1-36,2.75-52.7,12.38-42.7,56.79-62.77,97.92-72.15,37.89-8.64,76.99-12.38,116.21-11.12,38.87,1.25,78.49,7.33,116.06-1.12,37.57-8.45,73.88-36.03,79.06-76.78,3.08-24.25-5.4-49.67-19.14-70.31-13.74-20.64-32.38-37.08-51.63-51.88-22.04-16.94-46.26-33.28-59.09-58.72-13.29-26.33-11.11-59.98,5.34-82.39,23.4-31.88,66.39-36.43,104.22-44.34,48.06-10.05,95.63-30.39,127.18-69.25,31.55-38.86,43.35-99.15,18.77-146.44"/><path class="cls-5" d="M28.63,965.03c-7.26-38.94-12.2-78.22-14.8-117.53-1.16-17.47-1.81-35.36,2.94-51.79,9.55-32.98,38.1-52.59,69.27-64.32,8.47-3.19,17.13-5.8,25.65-7.94,36.77-9.22,74.83-13.67,113.1-13.23,37.93,.42,76.74,5.81,113.52-3.02,18.83-4.52,37.42-13.33,52.35-26.02,15.28-13,26.7-30.28,29.97-51.06,.13-.83,.25-1.66,.35-2.49,3.13-25.21-6.15-51.5-20.3-73.06-13.91-21.14-32.44-38.39-51.28-54.12-21.6-18.08-44.52-35.81-56.59-61.75-12.09-25.97-10.08-58.52,5.89-80.52,22.7-31.26,64.07-36.49,100.3-45,1.99-.47,3.98-.95,5.97-1.46,43.93-11.15,86.46-31.66,114.74-68.19,29.52-38.25,39.87-96.76,15.34-142.45"/><path class="cls-5" d="M39.56,969.03c-7.18-38.27-11.9-76.91-14.21-115.52-1.03-17.17-1.53-34.72,3.14-50.88,9.36-32.38,36.91-52.01,67.06-64.07,8.19-3.29,16.58-6.02,24.85-8.29,35.65-9.81,72.67-14.96,109.99-15.35,37-.41,74.99,4.24,110.99-4.92,19.48-4.95,38.78-14.01,54.43-27.02,15.98-13.3,28.12-31.18,31.48-52.76,.13-.86,.25-1.73,.36-2.59,3.19-26.18-6.9-53.33-21.45-75.82-14.08-21.63-32.5-39.71-50.94-56.36-21.16-19.22-42.78-38.29-54.09-64.78s-9.05-57.05,6.44-78.66c22-30.64,61.75-36.55,96.37-45.67,1.9-.5,3.81-1.02,5.7-1.56,41.95-11.83,82.17-32.62,108.53-68.5,27.5-37.64,36.4-94.37,11.91-138.47"/><path class="cls-5" d="M50.48,973.02c-7.09-37.61-11.6-75.59-13.61-113.52-.89-16.86-1.25-34.08,3.33-49.97,9.18-31.79,35.73-51.44,64.86-63.82,7.92-3.38,16.04-6.23,24.04-8.64,34.53-10.39,70.52-16.24,106.88-17.46,36.07-1.24,73.23,2.63,108.45-6.82,20.13-5.4,40.14-14.69,56.51-28.01,16.69-13.6,29.54-32.07,33-54.46,.14-.89,.26-1.79,.37-2.7,3.24-27.15-7.64-55.16-22.61-78.57-14.25-22.13-32.56-41.02-50.59-58.6-20.72-20.35-41.05-40.74-51.59-67.81-9.79-25.14-8.02-55.58,7-76.8,21.3-30.02,59.42-36.61,92.45-46.33,1.82-.53,3.63-1.09,5.44-1.66,39.97-12.5,77.95-33.52,102.33-68.8,25.55-36.98,32.92-91.98,8.47-134.48"/><path class="cls-5" d="M61.41,977.01c-7-36.95-11.3-74.28-13.01-111.51-.76-16.56-.97-33.44,3.53-49.05,8.99-31.19,34.54-50.86,62.66-63.57,7.65-3.48,15.49-6.45,23.24-8.99,33.42-10.98,68.36-17.53,103.77-19.58,35.14-2.06,71.46,.99,105.92-8.72,20.78-5.86,41.5-15.36,58.59-29.01,17.39-13.91,30.96-32.96,34.51-56.15,.14-.93,.27-1.86,.38-2.8,3.3-28.11-8.34-57.02-23.76-81.32-14.37-22.66-32.67-42.3-50.25-60.85-20.33-21.44-39.34-43.16-49.09-70.84-8.69-24.67-6.99-54.12,7.55-74.94,20.6-29.41,57.1-36.67,88.53-46.99,1.73-.57,3.45-1.15,5.17-1.75,38-13.17,73.69-34.46,96.13-69.11,23.55-36.36,29.44-89.58,5.04-130.5"/><path class="cls-5" d="M72.34,981c-6.91-36.28-11-72.96-12.41-109.51-.63-16.25-.69-32.8,3.73-48.14,8.81-30.59,33.36-50.28,60.46-63.32,7.38-3.58,14.95-6.66,22.43-9.35,32.3-11.57,66.2-18.82,100.66-21.69,34.21-2.89,69.69-.68,103.38-10.62,21.44-6.32,42.86-16.04,60.67-30.01,18.09-14.21,32.38-33.86,36.03-57.85,.15-.96,.28-1.93,.39-2.9,3.35-29.08-9.08-58.85-24.92-84.08-14.54-23.16-32.73-43.61-49.9-63.09-19.9-22.58-37.64-45.54-46.59-73.87-7.64-24.17-5.96-52.65,8.11-73.08,19.9-28.79,54.78-36.73,84.6-47.66,1.64-.6,3.28-1.22,4.91-1.85,36.02-13.84,69.42-35.41,89.92-69.41,21.55-35.74,25.96-87.19,1.61-126.52"/><path class="cls-5" d="M83.26,985c-6.82-35.62-10.7-71.64-11.81-107.5-.49-15.94-.41-32.16,3.92-47.23,8.62-29.99,32.17-49.71,58.25-63.07,7.11-3.67,14.4-6.88,21.63-9.7,31.18-12.15,64.05-20.11,97.56-23.81,33.28-3.72,67.91-2.38,100.85-12.52,22.09-6.8,44.22-16.72,62.75-31,18.8-14.52,33.8-34.75,37.54-59.55,.15-1,.28-2,.4-3,3.41-30.05-9.82-60.68-26.07-86.83-14.71-23.66-32.8-44.92-49.56-65.33-19.46-23.71-35.96-47.9-44.09-76.9-6.62-23.65-4.93-51.19,8.66-71.21,19.19-28.17,52.45-36.79,80.68-48.32,1.55-.63,3.1-1.29,4.64-1.95,34.01-14.59,65.15-36.36,83.72-69.72,19.55-35.12,22.49-84.8-1.82-122.53"/><path class="cls-5" d="M94.19,988.99c-6.74-34.95-10.4-70.33-11.21-105.5-.36-15.64-.13-31.52,4.12-46.31,8.44-29.39,30.99-49.13,56.05-62.83,6.83-3.77,13.85-7.09,20.83-10.05,30.06-12.74,61.89-21.4,94.45-25.92,32.34-4.55,66.13-4.1,98.31-14.41,22.74-7.29,45.58-17.39,64.83-32,19.5-14.82,35.22-35.65,39.06-61.25,.15-1.03,.29-2.06,.4-3.1,3.46-31.01-10.56-62.51-27.23-89.59-14.87-24.16-32.87-46.23-49.21-67.58-19.03-24.85-34.31-50.22-41.59-79.93-5.65-23.09-3.91-49.72,9.21-69.35,18.49-27.55,50.13-36.85,76.75-48.99,1.46-.67,2.92-1.35,4.37-2.05,32.02-15.27,60.88-37.31,77.52-70.03,17.55-34.51,19.01-82.41-5.25-118.55"/><path class="cls-5" d="M105.11,992.98c-6.65-34.29-10.1-69.01-10.61-103.49-.23-15.33,.16-30.89,4.32-45.4,8.25-28.79,29.84-48.5,53.85-62.58,6.57-3.85,13.31-7.31,20.02-10.4,28.95-13.32,59.73-22.69,91.34-28.04,31.41-5.37,64.34-5.84,95.78-16.31,23.38-7.79,46.94-18.07,66.92-32.99,20.2-15.13,36.64-36.54,40.57-62.94,.16-1.06,.3-2.13,.41-3.2,3.52-31.98-11.3-64.34-28.38-92.34-15.04-24.66-32.94-47.55-48.87-69.82-18.59-25.99-32.7-52.53-39.08-82.96-4.73-22.52-2.88-48.26,9.77-67.49,17.79-26.94,47.81-36.91,72.83-49.65,1.38-.7,2.74-1.42,4.11-2.14,30.03-15.95,56.61-38.27,71.32-70.33,15.54-33.9,15.53-80.02-8.68-114.56"/><path class="cls-5" d="M116.04,996.97c-6.56-33.63-9.8-67.7-10.01-101.49-.09-15.03,.44-30.25,4.51-44.49,8.07-28.19,28.65-47.92,51.65-62.33,6.3-3.95,12.76-7.53,19.22-10.76,27.83-13.91,57.58-23.98,88.23-30.15,30.48-6.2,62.55-7.61,93.24-18.21,24.03-8.3,48.3-18.75,69-33.99,20.91-15.43,38.06-37.43,42.09-64.64,.16-1.1,.3-2.2,.42-3.3,3.57-32.95-12.05-66.17-29.54-95.09-15.21-25.15-33-48.86-48.52-72.06-18.15-27.13-31.12-54.81-36.58-85.99-3.84-21.93-1.85-46.79,10.32-65.63,17.09-26.32,45.48-36.96,68.91-50.32,1.29-.73,2.57-1.48,3.84-2.24,28.05-16.63,52.34-39.22,65.11-70.64,13.54-33.3,12.06-77.63-12.12-110.58"/><path class="cls-5" d="M126.96,1000.96c-6.47-32.96-9.5-66.38-9.41-99.48,.04-14.72,.72-29.61,4.71-43.58,7.88-27.59,27.47-47.34,49.45-62.08,6.03-4.05,12.22-7.74,18.41-11.11,26.71-14.5,55.42-25.27,85.12-32.27,29.55-7.03,60.75-9.39,90.71-20.11,24.66-8.83,49.66-19.42,71.08-34.99,21.61-15.73,39.48-38.33,43.6-66.34,.17-1.13,.31-2.27,.43-3.4,3.63-33.91-12.79-68-30.69-97.85-15.38-25.65-33.06-50.18-48.18-74.3-17.71-28.27-29.59-57.07-34.08-89.02-3-21.33-.82-45.33,10.88-63.76,16.39-25.7,43.16-37.02,64.98-50.98,1.2-.77,2.39-1.55,3.58-2.34,26.06-17.31,48.06-40.19,58.91-70.95,11.53-32.7,8.58-75.24-15.55-106.59"/><path class="cls-5" d="M137.89,1004.96c-6.38-32.3-9.2-65.07-8.81-97.48,.17-14.42,1-28.97,4.9-42.66,7.7-26.99,26.29-46.76,47.24-61.83,5.76-4.14,11.67-7.96,17.61-11.46,25.59-15.08,53.27-26.56,82.01-34.38,28.62-7.86,58.94-11.19,88.17-22.01,25.3-9.36,51.02-20.1,73.16-35.98,22.31-16.04,40.9-39.22,45.12-68.03,.17-1.17,.32-2.34,.44-3.51,3.68-34.88-13.54-69.83-31.85-100.6-15.55-26.15-33.12-51.5-47.83-76.55-17.27-29.41-28.12-59.32-31.58-92.05-2.19-20.72,.21-43.86,11.43-61.9,15.69-25.08,40.84-37.08,61.06-51.64,1.11-.8,2.21-1.62,3.31-2.44,24.07-17.98,43.78-41.15,52.71-71.25,9.51-32.1,5.1-72.85-18.98-102.61"/><path class="cls-5" d="M148.81,1008.95c-6.3-31.64-8.9-63.75-8.21-95.47,.31-14.11,1.28-28.33,5.1-41.75,7.51-26.39,25.11-46.19,45.04-61.59,5.49-4.24,11.13-8.17,16.81-11.81,24.48-15.67,51.11-27.85,78.9-36.5,27.68-8.69,57.13-13.01,85.64-23.91,25.93-9.92,52.38-20.78,75.24-36.98,23.02-16.34,42.32-40.11,46.63-69.73,.17-1.2,.32-2.4,.45-3.61,3.74-35.84-14.29-71.66-33-103.36-15.73-26.64-33.18-52.82-47.49-78.79-16.83-30.55-26.7-61.57-29.08-95.08-1.43-20.11,1.24-42.39,11.98-60.04,14.99-24.47,38.51-37.14,57.14-52.31,1.02-.83,2.04-1.68,3.04-2.53,22.09-18.65,39.5-42.12,46.5-71.56,7.5-31.51,1.63-70.46-22.41-98.62"/><path class="cls-5" d="M159.74,1012.94c-6.21-30.97-8.6-62.43-7.61-93.47,.44-13.81,1.56-27.69,5.3-40.84,7.33-25.79,23.93-45.61,42.84-61.34,5.22-4.34,10.58-8.39,16-12.16,23.36-16.25,48.95-29.14,75.79-38.61,26.75-9.51,55.31-14.84,83.1-25.81,26.55-10.49,53.74-21.45,77.32-37.98,23.72-16.65,43.73-41.01,48.15-71.43,.18-1.24,.33-2.47,.46-3.71,3.79-36.81-15.1-73.45-34.16-106.11-15.96-27.11-33.24-54.14-47.14-81.03-16.38-31.69-25.35-63.81-26.58-98.11-.7-19.49,2.27-40.93,12.54-58.18,14.29-23.85,36.19-37.2,53.21-52.97,.94-.87,1.86-1.75,2.78-2.63,20.11-19.32,35.21-43.09,40.3-71.87,5.47-30.92-1.85-68.07-25.84-94.64"/><path class="cls-5" d="M170.66,1016.93c-6.12-30.31-8.3-61.12-7.01-91.46,.57-13.5,1.84-27.05,5.49-39.93,7.14-25.19,22.74-45.04,40.64-61.09,4.94-4.43,10.04-8.61,15.2-12.52,22.24-16.84,46.8-30.43,72.69-40.73,25.82-10.34,53.49-16.68,80.57-27.71,27.16-11.07,55.1-22.13,79.4-38.97,24.42-16.95,45.15-41.9,49.66-73.13,.18-1.27,.34-2.54,.47-3.81,3.85-37.78-15.85-75.28-35.31-108.86-16.13-27.6-33.3-55.45-46.8-83.28-15.94-32.84-24.07-66.06-24.08-101.14,0-18.88,3.3-39.46,13.09-56.32,13.59-23.23,33.87-37.26,49.29-53.64,.85-.9,1.68-1.81,2.51-2.73,18.12-19.98,30.91-44.07,34.1-72.17,3.44-30.33-5.33-65.68-29.28-90.65"/><path class="cls-5" d="M181.59,1020.93c-6.03-29.65-8-59.8-6.41-89.46,.71-13.19,2.13-26.41,5.69-39.01,6.96-24.59,21.55-44.46,38.43-60.84,4.67-4.53,9.49-8.82,14.39-12.87,21.12-17.43,44.64-31.72,69.58-42.84,24.89-11.17,51.66-18.53,78.03-29.61,27.77-11.67,56.46-22.81,81.48-39.97,25.13-17.25,46.57-42.79,51.18-74.82,.19-1.3,.35-2.61,.48-3.91,3.9-38.74-16.6-77.11-36.47-111.62-16.3-28.1-33.29-56.8-46.45-85.52-15.42-34.01-22.87-68.32-21.58-104.17,.66-18.28,4.33-38,13.64-54.45,12.89-22.61,31.54-37.32,45.36-54.3,.76-.93,1.51-1.88,2.25-2.83,16.14-20.65,26.6-45.04,27.89-72.48,1.4-29.74-8.81-63.29-32.71-86.67"/><path class="cls-5" d="M192.52,1024.92c-5.94-28.98-7.7-58.49-5.81-87.46,.84-12.89,2.41-25.77,5.88-38.1,6.77-23.99,20.37-43.89,36.23-60.59,4.4-4.63,8.95-9.04,13.59-13.22,20.01-18.01,42.48-33.01,66.47-44.96,23.96-12,49.82-20.39,75.5-31.51,28.37-12.29,57.82-23.48,83.57-40.96,25.83-17.56,47.99-43.69,52.69-76.52,.19-1.34,.35-2.67,.49-4.01,3.95-39.71-17.34-78.93-37.62-114.37-16.47-28.6-33.36-58.11-46.11-87.76-14.98-35.15-21.76-70.61-19.08-107.2,1.3-17.69,5.36-36.53,14.2-52.59,12.19-22,29.22-37.38,41.44-54.97,.67-.97,1.33-1.94,1.98-2.92,14.17-21.31,22.29-46.02,21.69-72.79-.65-29.15-12.28-60.9-36.14-82.68"/><path class="cls-5" d="M203.44,1028.91c-5.86-28.32-7.4-57.17-5.21-85.45,.97-12.58,2.69-25.13,6.08-37.19,6.58-23.39,19.18-43.32,34.03-60.34,4.13-4.73,8.4-9.25,12.79-13.57,18.89-18.6,40.33-34.3,63.36-47.07,23.02-12.82,47.98-22.26,72.96-33.41,28.96-12.92,59.18-24.16,85.65-41.96,26.53-17.86,49.41-44.58,54.2-78.22,.2-1.37,.36-2.74,.5-4.11,4.01-40.68-18.09-80.76-38.78-117.13-16.64-29.1-33.42-59.43-45.76-90.01-14.54-36.29-20.73-72.92-16.57-110.23,1.91-17.11,6.39-35.07,14.75-50.73,11.49-21.38,26.9-37.44,37.52-55.63,.58-1,1.15-2.01,1.72-3.02,12.2-21.97,17.97-46.98,15.49-73.09-2.71-28.55-15.76-58.51-39.57-78.7"/><path class="cls-5" d="M214.37,1032.9c-5.77-27.66-7.1-55.86-4.61-83.45,1.1-12.28,2.97-24.49,6.28-36.28,6.4-22.79,17.96-42.78,31.83-60.1,3.84-4.83,7.86-9.47,11.98-13.92,17.77-19.18,38.17-35.59,60.25-49.19,22.09-13.65,46.13-24.14,70.43-35.31,29.53-13.58,60.55-24.84,87.73-42.96,27.24-18.17,50.83-45.48,55.72-79.91,.2-1.41,.37-2.81,.5-4.22,4.06-41.64-18.83-82.59-39.93-119.88-16.81-29.59-33.48-60.74-45.42-92.25-14.09-37.42-19.8-75.27-14.07-113.26,2.5-16.56,7.42-33.6,15.31-48.87,10.79-20.76,24.57-37.5,33.59-56.29,.5-1.03,.98-2.07,1.45-3.12,10.23-22.63,13.64-47.95,9.28-73.4-4.78-27.96-19.24-56.12-43-74.71"/><path class="cls-5" d="M225.29,1036.9c-5.68-26.99-6.8-54.54-4.01-81.44,1.24-11.97,3.25-23.86,6.47-35.36,6.21-22.19,16.77-42.2,29.62-59.85,3.57-4.93,7.31-9.69,11.18-14.28,16.65-19.77,36.01-36.88,57.14-51.3,21.16-14.48,44.28-26.02,67.89-37.21,30.1-14.26,61.91-25.51,89.81-43.95,27.94-18.47,52.25-46.37,57.23-81.61,.2-1.44,.37-2.88,.51-4.32,4.12-42.61-19.58-84.42-41.09-122.63-16.98-30.09-33.54-62.06-45.07-94.49-13.65-38.56-18.96-77.67-11.57-116.29,3.07-16.03,8.45-32.14,15.86-47,10.09-20.14,22.25-37.56,29.67-56.96,.41-1.07,.8-2.14,1.18-3.22,8.32-23.27,9.3-48.91,3.08-73.71-6.86-27.35-22.71-53.72-46.43-70.73"/><path class="cls-5" d="M236.22,1040.89c-5.59-26.33-6.5-53.22-3.42-79.44,1.37-11.67,3.53-23.22,6.67-34.45,6.03-21.59,15.59-41.62,27.42-59.6,3.3-5.03,6.77-9.9,10.37-14.63,15.54-20.36,33.86-38.17,54.03-53.42,20.23-15.31,42.42-27.91,65.36-39.11,30.65-14.95,63.27-26.19,91.89-44.95,28.64-18.78,53.67-47.26,58.75-83.31,.21-1.47,.38-2.95,.52-4.42,4.17-43.58-20.33-86.25-42.24-125.39-17.15-30.59-33.6-63.37-44.73-96.73-13.21-39.7-18.22-80.13-9.07-119.32,3.62-15.52,9.47-30.67,16.41-45.14,9.38-19.53,19.93-37.62,25.74-57.62,.32-1.1,.63-2.2,.92-3.31,6.34-23.94,4.96-49.86-3.12-74.01-8.94-26.73-26.19-51.33-49.87-66.74"/><path class="cls-5" d="M247.14,1044.88c-12.65-58.97,.12-120.98,29.27-170.32,29.15-49.34,73.7-86.57,123.32-111.52,31.18-15.68,64.63-26.87,93.97-45.95,29.35-19.08,55.09-48.16,60.26-85.01,6.47-46.12-19.79-91.25-42.86-132.66-37.95-68.11-71.19-148.29-50.95-221.33,10.08-36.38,32.81-67.52,39.44-104.98,9.2-51.93-17.7-110.81-62.62-137.08"/></g><g class="cls-2"><path class="cls-6" d="M1192.02,1054.07c-10.37-46.59,21.69-95.02,58.03-110.69,36.34-15.67,75.52-8.69,113.59-7.1,38.07,1.59,79.96-4.39,107.44-38.84,35.14-44.05,35.3-120.34,71.82-162.5,28.47-32.86,70.52-34.26,105.2-22.21,19.61,6.81,37.37,21.64,56.4,30.5,86.28,40.16,105.86,157.04,175.37,159.68,75.26,2.86,109.39-51.23,119.37-85.7,12.79-44.16,29.61-155.11-51.21-211.68-32.83-22.98-65.52-47.98-91.74-82.01-39.25-50.95-49.75-139.85-14.3-197.03,24.29-39.19,66.25-60.86,80.36-107.32,9.48-31.23,3.31-67.4-11.35-94.52-14.66-27.12-36.8-46.22-60.08-60.53"/><path class="cls-6" d="M1193.98,1056.08c-9.1-48.27,22.49-98.74,59.83-115.68,36.41-16.52,76.22-9.81,114.41-7.2,37.74,2.58,78.8-1.57,106.49-33.49,35.36-40.83,37.89-113.78,74.43-155.49,29.12-33.09,70.13-37.26,105.32-27.8,20.18,5.42,39.17,18.93,59.02,27.78,84.38,37.59,104.41,150.35,172.43,153.07,73.15,2.9,107.36-48.73,117.94-82.81,13.41-43.22,29.18-150.16-47.4-206.66-31.71-23.39-63.34-49.18-89.18-83.05-38.14-49.79-48.71-135.48-15.57-191.65,22.98-38.96,63.18-61.63,77.28-107.52,9.69-31.39,4.52-67.29-8.75-94.9-13.43-27.94-34.23-48.66-56.86-64.55"/><path class="cls-6" d="M1195.94,1058.08c-7.83-49.96,23.28-102.44,61.64-120.68,36.49-17.35,76.91-10.94,115.24-7.3,37.41,3.55,77.64,1.26,105.54-28.13,35.59-37.61,40.4-107.3,77.03-148.48,29.69-33.38,69.8-40.3,105.44-33.39,20.79,4.03,40.96,16.23,61.64,25.05,82.39,35.15,102.96,143.66,169.48,146.47,71.04,2.93,105.32-46.23,116.5-79.92,14.03-42.28,28.76-145.29-43.6-201.64-30.6-23.83-61.16-50.38-86.63-84.1-37.02-48.62-47.69-131.13-16.84-186.28,21.67-38.75,60.12-62.39,74.2-107.73,9.89-31.55,5.74-67.2-6.15-95.28s-31.66-51.11-53.63-68.57"/><path class="cls-6" d="M1197.89,1060.09c-6.56-51.64,24.08-106.13,63.44-125.67,36.58-18.17,77.59-12.08,116.06-7.41,37.08,4.51,76.48,4.08,104.58-22.77,35.81-34.39,42.96-100.77,79.63-141.47,30.3-33.64,69.51-43.38,105.57-38.98,21.42,2.62,42.74,13.54,64.26,22.33,80.34,32.84,101.51,136.97,166.53,139.86,68.93,2.96,103.28-43.73,115.06-77.02,14.64-41.33,28.36-140.51-39.8-196.63-29.5-24.29-58.89-51.66-84.07-85.14-35.77-47.55-46.68-126.81-18.11-180.91,20.36-38.56,57.06-63.16,71.12-107.93,10.1-31.71,6.97-67.13-3.56-95.67-10.93-29.65-29.09-53.56-50.41-72.6"/><path class="cls-6" d="M1199.85,1062.09c-5.3-53.33,24.89-109.8,65.24-130.67,36.67-18.96,78.27-13.24,116.88-7.51,36.74,5.45,75.33,6.9,103.63-17.42,36.04-31.18,45.53-94.23,82.23-134.46,30.92-33.9,69.27-46.51,105.69-44.57,22.08,1.18,44.51,10.85,66.88,19.61,78.22,30.64,100.06,130.28,163.59,133.26,66.82,3,101.22-41.23,113.63-74.13,15.23-40.39,27.97-135.81-36-191.61-28.41-24.78-56.68-52.88-81.51-86.18-34.62-46.41-45.68-122.51-19.38-175.53,19.04-38.39,53.89-63.96,68.04-108.13,10.22-31.9,8.22-67.07-.96-96.05-9.67-30.54-26.52-56-47.19-76.62"/><path class="cls-6" d="M1201.81,1064.1c-4.03-55.01,25.7-113.46,67.05-135.67,36.77-19.75,78.95-14.41,117.71-7.61,36.41,6.38,74.22,9.78,102.68-12.06,36.32-27.88,48.11-87.69,84.83-127.45,31.54-34.15,69.05-49.69,105.81-50.16,22.76-.29,46.26,8.17,69.5,16.89,76.05,28.54,98.61,123.59,160.64,126.65,64.71,3.03,99.16-38.73,112.19-71.24,15.81-39.45,27.61-131.21-32.19-186.6-27.33-25.31-54.47-54.1-78.96-87.22-33.47-45.27-44.71-118.24-20.66-170.16,17.72-38.23,50.8-64.73,64.96-108.34,10.41-32.07,9.49-67.03,1.64-96.44-8.39-31.43-23.95-58.45-43.96-80.64"/><path class="cls-6" d="M1203.77,1066.1c-2.76-56.7,26.51-117.1,68.85-140.66,36.87-20.52,79.63-15.59,118.53-7.71,36.07,7.3,73.06,12.62,101.73-6.7,36.55-24.64,50.69-81.15,87.43-120.44,32.17-34.4,68.84-52.93,105.93-55.74,23.44-1.78,48.01,5.5,72.12,14.17,73.83,26.54,97.15,116.9,157.7,120.05,62.6,3.06,97.09-36.23,110.76-68.34,16.38-38.51,27.29-126.71-28.39-181.58-26.25-25.87-52.26-55.32-76.4-88.26-32.32-44.12-43.77-114-21.93-164.79,16.38-38.09,47.73-65.51,61.88-108.54,10.6-32.23,10.77-67.01,4.23-96.82-7.09-32.35-21.38-60.9-40.74-84.66"/><path class="cls-6" d="M1205.73,1068.11c-1.49-58.38,27.33-120.74,70.65-145.66,36.98-21.27,80.31-16.78,119.35-7.82,35.73,8.2,71.9,15.45,100.77-1.35,36.78-21.41,53.27-74.6,90.03-113.43,32.8-34.65,68.64-56.21,106.06-61.33,24.13-3.3,49.75,2.85,74.75,11.45,71.56,24.63,95.7,110.21,154.75,113.44,60.49,3.1,95.02-33.73,109.32-65.45,16.94-37.57,27.02-122.31-24.59-176.56-25.17-26.46-50.06-56.53-73.84-89.3-31.18-42.97-42.84-109.78-23.2-159.41,15.03-37.97,44.65-66.28,58.8-108.74,10.8-32.4,12.08-66.99,6.83-97.2-5.77-33.27-18.81-63.34-37.52-88.69"/><path class="cls-6" d="M1207.69,1070.12c-.22-60.07,28.16-124.36,72.45-150.65,37.09-22.02,80.98-17.99,120.18-7.92,35.39,9.09,70.74,18.29,99.82,4.01,37-18.17,55.86-68.05,92.63-106.42,33.44-34.89,68.43-59.54,106.18-66.92,24.82-4.85,51.48,.21,77.37,8.73,69.27,22.8,94.25,103.52,151.8,106.83,58.38,3.13,92.93-31.23,107.89-62.56,17.49-36.64,26.8-118.01-20.79-171.55-24.08-27.09-47.86-57.75-71.28-90.35-30.05-41.81-41.95-105.59-24.47-154.04,13.67-37.87,41.58-67.05,55.72-108.95,10.99-32.57,13.4-66.98,9.43-97.59-4.44-34.2-16.24-65.79-34.3-92.71"/><path class="cls-6" d="M1209.64,1072.12c1.04-61.75,28.99-127.97,74.26-155.65,37.21-22.76,81.66-19.21,121-8.02,35.05,9.97,69.58,21.12,98.87,9.37,37.22-14.94,58.46-61.49,95.24-99.41,34.07-35.13,68.22-62.91,106.3-72.51,25.5-6.43,53.2-2.41,79.99,6.01,66.94,21.04,92.79,96.96,148.86,100.23,56.27,3.29,90.84-28.74,106.45-59.66,18.03-35.71,26.65-113.81-16.98-166.53-22.98-27.77-45.66-58.96-68.73-91.39-28.92-40.65-41.1-101.42-25.74-148.66,12.28-37.78,38.51-67.82,52.64-109.15,11.19-32.73,14.74-66.97,12.03-97.97-3.08-35.13-13.66-68.24-31.07-96.73"/><path class="cls-6" d="M1211.6,1074.13c2.31-63.44,29.83-131.57,76.06-160.65,37.34-23.49,82.35-20.44,121.82-8.13,34.72,10.83,68.42,23.95,97.91,14.72,37.44-11.71,61.05-54.93,97.84-92.4,34.72-35.36,68-66.31,106.42-78.1,26.18-8.03,54.92-5.01,82.61,3.28,64.59,19.36,91.34,90.27,145.91,93.62,54.16,3.32,88.73-26.25,105.01-56.77,18.56-34.78,26.56-109.72-13.18-161.52-21.86-28.49-43.47-60.17-66.17-92.43-27.79-39.49-40.28-97.27-27.01-143.29,10.87-37.72,35.45-68.59,49.56-109.35,11.39-32.89,16.1-66.96,14.62-98.35-1.7-36.06-11.09-70.68-27.85-100.76"/><path class="cls-6" d="M1213.56,1076.13c3.58-65.12,30.68-135.16,77.86-165.64,37.47-24.21,83.04-21.69,122.65-8.23,34.39,11.69,67.25,26.78,96.96,20.08,37.65-8.49,63.66-48.36,100.44-85.39,35.36-35.59,67.75-69.74,106.54-83.69,26.84-9.65,56.63-7.59,85.23,.56,62.21,17.74,89.89,83.59,142.96,87.02,52.05,3.36,86.62-23.76,103.58-53.88,19.07-33.86,26.57-105.72-9.38-156.5-20.71-29.25-41.28-61.38-63.61-93.47-26.67-38.32-39.5-93.15-28.28-137.92,9.44-37.67,32.38-69.35,46.49-109.56,11.6-33.06,17.48-66.96,17.22-98.74-.31-37-8.52-73.13-24.63-104.78"/><path class="cls-6" d="M1215.52,1078.14c4.85-66.81,31.53-138.74,79.67-170.64,37.6-24.92,83.73-22.95,123.47-8.33,34.07,12.53,66.08,29.6,96.01,25.44,37.86-5.27,66.26-41.79,103.04-78.37,36.01-35.82,67.49-73.18,106.67-89.28,27.48-11.29,58.32-10.14,87.85-2.16,59.82,16.18,88.43,76.9,140.02,80.41,49.94,3.4,84.49-21.28,102.14-50.98,19.57-32.95,26.67-101.82-5.57-151.49-19.51-30.05-39.09-62.58-61.06-94.51-25.56-37.15-38.76-89.04-29.55-132.54,7.97-37.63,29.32-70.12,43.41-109.76,11.8-33.22,18.87-66.95,19.82-99.12,1.11-37.93-5.95-75.58-21.4-108.8"/><path class="cls-6" d="M1217.48,1080.14c6.12-68.49,32.39-142.31,81.47-175.64,37.74-25.63,84.43-24.22,124.3-8.43,33.75,13.36,64.91,32.42,95.06,30.79,38.07-2.05,68.87-35.22,105.64-71.36s67.21-76.65,106.79-94.86c28.12-12.94,60.01-12.67,90.47-4.88,57.41,14.68,86.98,70.21,137.07,73.81,47.83,3.43,82.36-18.8,100.71-48.09,20.07-32.04,26.87-97.99-1.77-146.47-18.26-30.91-36.91-63.78-58.5-95.55-24.45-35.98-38.08-84.95-30.82-127.17,6.46-37.6,26.27-70.88,40.33-109.97,12.01-33.38,20.28-66.93,22.41-99.51,2.54-38.85-3.38-78.02-18.18-112.82"/><path class="cls-6" d="M1219.44,1082.15c7.38-70.18,33.26-145.87,83.27-180.63,37.89-26.33,85.13-25.5,125.12-8.54,33.43,14.19,63.74,35.23,94.1,36.15,38.28,1.16,71.49-28.64,108.24-64.35,37.32-36.27,66.91-80.13,106.91-100.45,28.74-14.6,61.7-15.15,93.09-7.6,55,13.23,85.53,63.52,134.13,67.2,45.72,3.46,80.22-16.33,99.27-45.2,20.55-31.14,27.18-94.22,2.03-141.45-16.93-31.8-34.73-64.98-55.94-96.59-23.34-34.8-37.44-80.86-32.09-121.8,4.91-37.58,23.21-71.65,37.25-110.17,12.22-33.54,21.7-66.91,25.01-99.89,3.99-39.77-.81-80.47-14.96-116.85"/><path class="cls-6" d="M1221.39,1084.15c8.65-71.86,34.13-149.42,85.08-185.63,38.04-27.03,85.84-26.8,125.94-8.64,33.12,15,62.57,38.04,93.15,41.5,38.5,4.36,74.11-22.06,110.84-57.34,37.99-36.48,66.59-83.61,107.03-106.04,29.34-16.27,63.37-17.6,95.71-10.32,52.57,11.82,84.08,56.83,131.18,60.59,43.61,3.49,78.07-13.87,97.83-42.3,21.03-30.24,27.61-90.51,5.83-136.44-15.52-32.73-32.56-66.17-53.38-97.64-22.24-33.62-36.85-76.78-33.37-116.42,3.31-37.57,20.16-72.41,34.17-110.37,12.43-33.7,23.13-66.89,27.61-100.27,5.46-40.68,1.76-82.92-11.73-120.87"/><path class="cls-6" d="M1223.35,1086.16c9.92-73.54,35.01-152.97,86.88-190.62,38.19-27.72,86.56-28.1,126.77-8.74,32.82,15.81,61.41,40.85,92.2,46.86,38.72,7.56,76.73-15.48,113.45-50.33,38.65-36.69,66.25-87.1,107.15-111.63,29.93-17.95,65.04-19.99,98.34-13.04,50.15,10.47,82.63,50.13,128.23,53.99,41.5,3.51,75.91-11.42,96.4-39.41,21.49-29.36,28.17-86.82,9.64-131.42-14-33.69-30.4-67.36-50.83-98.68-21.15-32.43-36.32-72.69-34.64-111.05s17.12-73.17,31.09-110.58c12.65-33.86,24.57-66.85,30.2-100.66,6.94-41.59,4.33-85.36-8.51-124.89"/><path class="cls-6" d="M1225.31,1088.16c11.19-75.23,35.9-156.51,88.68-195.62,38.35-28.41,87.29-29.42,127.59-8.84,32.53,16.61,60.25,43.65,91.24,52.22,38.94,10.76,79.35-8.89,116.05-43.32,39.32-36.9,65.9-90.6,107.28-117.22,30.52-19.63,66.7-22.34,100.96-15.76,47.72,9.15,81.18,43.43,125.29,47.38,39.39,3.53,73.74-8.98,94.96-36.52s28.85-83.14,13.44-126.41c-12.35-34.67-28.24-68.54-48.27-99.72s-35.84-68.58-35.91-105.67,14.07-73.93,28.01-110.78c12.87-34.02,26.01-66.82,32.8-101.04,8.43-42.48,6.9-87.81-5.29-128.92"/><path class="cls-6" d="M1227.27,1090.17c12.45-76.91,36.79-160.04,90.49-200.62,38.51-29.1,88.03-30.74,128.41-8.95,32.24,17.4,59.11,46.4,90.29,57.57,39.19,13.89,81.98-2.3,118.65-36.31,39.99-37.1,65.53-94.09,107.4-122.81,31.08-21.32,68.36-24.61,103.58-18.49,45.3,7.88,79.72,36.72,122.34,40.78,37.28,3.55,71.56-6.55,93.53-33.62,22.4-27.62,29.66-79.44,17.24-121.39-10.56-35.66-26.09-69.72-45.71-100.76-18.99-30.05-35.4-64.46-37.18-100.3-1.86-37.46,11.03-74.69,24.93-110.98,13.09-34.17,27.47-66.77,35.4-101.43,9.93-43.37,9.47-90.26-2.07-132.94"/><path class="cls-6" d="M1229.23,1092.18c13.72-78.6,37.7-163.57,92.29-205.61,38.68-29.78,88.78-32.08,129.24-9.05,31.96,18.19,57.95,49.22,89.34,62.93,39.41,17.11,84.61,4.3,121.25-29.3,40.67-37.29,65.15-97.59,107.52-128.4,31.64-23.01,70.01-26.81,106.2-21.21,42.9,6.65,78.28,29.94,119.39,34.17,35.18,3.5,69.38-4.13,92.09-30.73s30.59-75.68,21.04-116.38c-8.6-36.65-23.96-70.9-43.16-101.8-17.92-28.85-35.01-60.3-38.45-94.93-3.71-37.38,8.04-75.43,21.85-111.19,13.37-34.31,28.92-66.71,37.99-101.81,11.43-44.25,12.04-92.7,1.16-136.96"/><path class="cls-6" d="M1231.19,1094.18c14.99-80.28,38.67-167.01,94.09-210.61,38.89-30.41,89.54-33.42,130.06-9.15,31.68,18.97,56.8,52.04,88.38,68.29,39.64,20.33,87.27,10.94,123.85-22.29,41.39-37.44,64.76-101.09,107.64-133.98,32.19-24.7,71.66-28.93,108.82-23.93,40.5,5.45,76.83,23.26,116.45,27.57,33.07,3.53,67.19-1.72,90.66-27.84,23.29-25.92,31.64-71.83,24.85-111.36-6.46-37.59-21.83-72.06-40.6-102.84-16.86-27.65-34.66-56.1-39.72-89.55-5.63-37.25,4.98-76.2,18.77-111.39,13.57-34.47,30.39-66.65,40.59-102.19,12.95-45.12,14.61-95.15,4.38-140.98"/><path class="cls-6" d="M1233.14,1096.19c16.26-81.97,39.52-170.61,95.89-215.61,39.02-31.14,90.31-34.77,130.88-9.26,31.42,19.76,55.64,54.87,87.43,73.64,39.86,23.54,89.87,17.5,126.45-15.28,42.04-37.67,64.35-104.58,107.76-139.57,32.73-26.39,73.31-30.93,111.44-26.65,38.13,4.28,75.38,16.57,113.5,20.96,30.96,3.57,64.99,.68,89.22-24.94,23.73-25.08,32.79-67.86,28.65-106.34-4.14-38.48-19.72-73.22-38.04-103.89-15.8-26.44-34.35-51.85-40.99-84.18-7.62-37.08,1.92-76.96,15.69-111.59,13.78-34.63,31.85-66.58,43.19-102.58,14.48-45.97,17.18-97.6,7.6-145.01"/></g><g class="cls-2"><path class="cls-4" d="M1441.58,784.36c13.8-22.98,28.75-44.96,44.74-65.78,7.11-9.26,14.62-18.47,24.04-23.99,24.08-14.09,52.87-.41,75.56,16.71,20.89,15.77,40.22,34.53,57.44,55.78,17.06,21.05,32.37,44.84,53.04,60.52,20.67,15.69,49.04,21.49,69.02,4.55,11.88-10.08,19.04-26.81,21.75-44,2.71-17.19,1.38-34.93-.94-52.2-2.65-19.77-6.55-40.4-1.36-59.43,5.37-19.7,20.92-34.79,38.06-36.95,24.39-3.07,45.83,17.35,66.38,33.44,26.11,20.44,56.45,35.65,87.55,33.5,31.1-2.15,62.52-25.03,71.85-60.79"/><path class="cls-4" d="M1444.8,792.04c13.54-22.58,28.28-44.12,44.07-64.44,7.02-9.04,14.45-18.01,23.7-23.44,20.2-11.85,43.73-4.25,64.11,8.31,3.46,2.12,6.83,4.39,10.07,6.73,20.67,14.87,39.86,32.74,57.04,53.08,17.02,20.16,32.28,43.14,52.78,58.28,11.76,8.69,25.78,14.57,39.49,15.37,11.26,.65,22.38-2.19,31.73-9.84,2.12-1.73,4.1-3.67,5.94-5.78,8.91-10.26,14.37-24.61,16.8-39.3,.95-5.71,1.48-11.47,1.7-17.25,.48-12.14-.33-24.39-1.51-36.39-1.94-20.4-4.49-41.32,1.39-60.31s20.8-33.56,37.58-35.78c22.65-3,42.77,14.2,61.96,28.7,1.01,.76,2.02,1.52,3.02,2.26,25.48,18.97,54.83,32.71,84.69,29.83,29.86-2.87,59.84-25.58,68.51-60.47"/><path class="cls-4" d="M1448.02,799.71c13.28-22.19,27.81-43.28,43.41-63.11,6.94-8.82,14.28-17.55,23.36-22.89,19.81-11.64,42.83-4.7,62.87,7.06,3.41,1.99,6.73,4.11,9.94,6.31,20.45,13.98,39.5,30.95,56.64,50.39,16.98,19.27,32.21,41.43,52.52,56.04,12.17,8.76,26.53,14.89,40.64,15.96,11.56,.87,23.09-1.8,32.8-9.46,2.21-1.74,4.27-3.69,6.19-5.85,9.29-10.43,14.91-25.19,17.54-40.33,1.02-5.87,1.62-11.8,1.94-17.73,.67-12.46,.13-25.06-.61-37.36-1.27-21.02-2.46-42.23,4.13-61.19s20.68-32.33,37.09-34.62c22.13-3.08,41.86,13.03,60.63,26.39,.99,.7,1.97,1.4,2.95,2.08,24.89,17.43,53.2,29.77,81.84,26.16,28.63-3.6,57.15-26.13,65.17-60.16"/><path class="cls-4" d="M1451.24,807.39c13.02-21.8,27.33-42.44,42.75-61.77,6.86-8.59,14.11-17.09,23.02-22.34,19.41-11.43,41.89-5.11,61.62,5.81,3.36,1.86,6.64,3.84,9.81,5.89,20.22,13.08,39.15,29.16,56.24,47.7,16.94,18.37,32.15,39.71,52.26,53.8,12.59,8.82,27.29,15.22,41.79,16.56,11.87,1.09,23.8-1.4,33.86-9.08,2.29-1.74,4.45-3.72,6.45-5.92,9.68-10.6,15.45-25.77,18.27-41.35,1.09-6.03,1.77-12.12,2.18-18.2,.86-12.79,.62-25.73,.28-38.32-.57-21.64-.44-43.11,6.88-62.06,6.7-17.35,20.55-31.1,36.61-33.46,21.61-3.16,40.95,11.87,59.31,24.09,.97,.64,1.93,1.27,2.89,1.9,24.28,15.93,51.58,26.83,78.98,22.48,27.39-4.32,54.46-26.67,61.83-59.84"/><path class="cls-4" d="M1454.46,815.06c12.75-21.4,26.86-41.6,42.09-60.43,6.77-8.37,13.94-16.62,22.68-21.79,19.02-11.23,40.98-5.55,60.38,4.56,3.31,1.72,6.55,3.56,9.69,5.48,20,12.19,38.79,27.36,55.84,45,16.9,17.48,32.1,37.97,52,51.56,13.01,8.89,28.04,15.54,42.94,17.15,12.18,1.31,24.51-1.01,34.92-8.7,2.38-1.75,4.62-3.75,6.71-5.98,10.06-10.78,15.99-26.35,19.01-42.38,1.16-6.19,1.92-12.45,2.42-18.68,1.06-13.12,1.1-26.4,1.18-39.29,.13-22.27,1.54-43.98,9.62-62.94,7.06-16.57,20.43-29.87,36.12-32.29,21.1-3.24,40.04,10.7,57.98,21.78,.94,.58,1.89,1.15,2.82,1.72,23.66,14.43,49.96,23.89,76.13,18.81,26.16-5.04,51.77-27.22,58.49-59.52"/><path class="cls-4" d="M1457.68,822.74c12.49-21.01,26.39-40.76,41.43-59.09,6.69-8.15,13.76-16.16,22.34-21.24,18.63-11.02,40.07-5.99,59.13,3.32,3.26,1.59,6.46,3.28,9.56,5.06,19.78,11.29,38.43,25.57,55.44,42.31,16.85,16.59,32.06,36.22,51.74,49.32,13.44,8.95,28.8,15.86,44.08,17.75,12.49,1.53,25.22-.61,35.98-8.32,2.47-1.76,4.8-3.78,6.97-6.05,10.45-10.95,16.53-26.92,19.74-43.4,1.23-6.35,2.07-12.77,2.66-19.15,1.25-13.44,1.59-27.07,2.07-40.26,.83-22.89,3.5-44.84,12.37-63.82,7.38-15.79,20.31-28.64,35.64-31.13,20.58-3.32,39.13,9.53,56.65,19.48,.92,.52,1.84,1.03,2.76,1.54,23.04,12.93,48.34,20.95,73.27,15.14,24.92-5.77,49.08-27.76,55.15-59.21"/><path class="cls-4" d="M1460.9,830.41c12.23-20.62,25.92-39.92,40.76-57.75,6.61-7.93,13.59-15.7,22-20.69,18.23-10.82,39.16-6.43,57.89,2.07,3.21,1.46,6.37,3.01,9.43,4.64,19.55,10.4,38.07,23.78,55.04,39.62,16.81,15.69,32.03,34.46,51.48,47.08,13.88,9,29.55,16.19,45.23,18.34,12.8,1.75,25.93-.22,37.04-7.93,2.56-1.76,4.97-3.8,7.23-6.11,10.83-11.12,17.07-27.5,20.48-44.43,1.3-6.51,2.22-13.1,2.9-19.63,1.44-13.77,2.08-27.74,2.97-41.22,1.54-23.52,5.43-45.69,15.12-64.7,7.65-15.01,20.19-27.4,35.15-29.97,20.06-3.4,38.22,8.36,55.32,17.17,.9,.46,1.8,.91,2.69,1.36,22.42,11.42,46.71,18.01,70.41,11.47,23.69-6.49,46.39-28.31,51.8-58.89"/><path class="cls-4" d="M1464.12,838.09c11.97-20.22,25.45-39.09,40.1-56.41,6.52-7.71,13.42-15.24,21.65-20.14,17.84-10.61,38.26-6.87,56.65,.82,3.16,1.32,6.27,2.73,9.3,4.23,19.33,9.5,37.71,21.99,54.63,36.92,16.77,14.8,32.01,32.69,51.22,44.84,14.31,9.05,30.31,16.51,46.38,18.94,13.11,1.97,26.64,.17,38.11-7.55,2.65-1.77,5.15-3.83,7.48-6.18,11.22-11.29,17.61-28.08,21.21-45.45,1.38-6.67,2.36-13.42,3.14-20.11,1.64-14.1,2.58-28.41,3.86-42.19,2.25-24.15,7.33-46.54,17.86-65.58,7.88-14.25,20.07-26.17,34.67-28.8,19.54-3.48,37.31,7.19,53.99,14.87,.88,.4,1.76,.79,2.62,1.18,21.79,9.92,45.09,15.07,67.56,7.8,22.45-7.21,43.7-28.85,48.46-58.58"/><path class="cls-4" d="M1467.34,845.76c11.7-19.83,24.97-38.25,39.44-55.07,6.44-7.49,13.25-14.78,21.31-19.59,17.45-10.4,37.35-7.32,55.4-.43,3.11,1.19,6.18,2.45,9.17,3.81,19.11,8.61,37.36,20.2,54.23,34.23,16.73,13.91,31.99,30.91,50.96,42.6,14.75,9.09,31.07,16.83,47.52,19.53,13.41,2.19,27.35,.57,39.17-7.17,2.73-1.78,5.32-3.86,7.74-6.25,11.6-11.46,18.15-28.66,21.95-46.47,1.45-6.83,2.51-13.75,3.38-20.58,1.83-14.42,3.07-29.08,4.75-43.16,2.96-24.78,9.19-47.39,20.61-66.46,8.08-13.5,19.95-24.94,34.18-27.64,19.02-3.56,36.4,6.02,52.66,12.56,.86,.34,1.71,.67,2.56,1.01,21.15,8.42,43.47,12.13,64.7,4.13,21.21-7.94,41.01-29.4,45.12-58.26"/><path class="cls-4" d="M1470.56,853.44c11.44-19.44,24.5-37.41,38.78-53.73,6.36-7.27,13.07-14.31,20.97-19.04,17.05-10.2,36.45-7.76,54.16-1.68,3.06,1.05,6.09,2.17,9.04,3.39,18.88,7.71,37,18.4,53.83,31.54,16.69,13.02,31.99,29.12,50.7,40.36,15.2,9.13,31.82,17.16,48.67,20.13,13.72,2.41,28.07,.96,40.23-6.79,2.82-1.79,5.5-3.89,8-6.31,11.99-11.63,18.69-29.24,22.68-47.5,1.52-6.99,2.66-14.07,3.62-21.06,2.02-14.75,3.57-29.75,5.65-44.12,3.68-25.4,11.02-48.25,23.35-67.34,8.25-12.76,19.83-23.71,33.7-26.47,18.5-3.64,35.49,4.85,51.33,10.26,.83,.28,1.67,.55,2.49,.83,20.52,6.92,41.84,9.19,61.84,.45,19.98-8.66,38.32-29.94,41.78-57.95"/><path class="cls-4" d="M1473.78,861.11c11.18-19.04,24.03-36.57,38.12-52.4,6.27-7.05,12.9-13.85,20.63-18.49,16.66-9.99,35.55-8.21,52.91-2.93,3.01,.92,6,1.9,8.91,2.97,18.66,6.82,36.64,16.61,53.43,28.84,16.65,12.12,31.98,27.31,50.44,38.12,15.65,9.16,32.58,17.48,49.82,20.72,14.03,2.63,28.78,1.36,41.29-6.41,2.91-1.79,5.67-3.91,8.26-6.38,12.37-11.8,19.23-29.82,23.41-48.52,1.59-7.15,2.81-14.4,3.85-21.54,2.22-15.08,4.06-30.42,6.54-45.09,4.4-26.03,12.81-49.13,26.1-68.22,8.38-12.03,19.71-22.48,33.22-25.31,17.99-3.72,34.58,3.68,50.01,7.96,.81,.22,1.62,.43,2.42,.65,19.87,5.43,40.22,6.25,58.99-3.22,18.74-9.38,35.63-30.49,38.44-57.63"/><path class="cls-4" d="M1477.01,868.79c10.92-18.65,23.56-35.73,37.46-51.06,6.19-6.82,12.73-13.39,20.29-17.94,16.27-9.79,34.64-8.66,51.67-4.18,2.97,.78,5.9,1.62,8.78,2.56,18.44,5.92,36.28,14.82,53.03,26.15,16.61,11.23,31.99,25.5,50.18,35.88,16.1,9.19,33.33,17.8,50.96,21.32,14.34,2.85,29.49,1.75,42.35-6.03,3-1.8,5.85-3.94,8.52-6.44,12.76-11.97,19.78-30.4,24.15-49.55,1.66-7.31,2.96-14.72,4.09-22.01,2.41-15.4,4.56-31.09,7.44-46.06,5.12-26.66,14.56-50.03,28.84-69.1,8.48-11.32,19.59-21.25,32.73-24.15,17.47-3.8,33.66,2.52,48.68,5.65,.79,.16,1.58,.31,2.36,.47,19.22,3.94,38.6,3.31,56.13-6.89,17.51-10.11,32.94-31.03,35.1-57.32"/><path class="cls-4" d="M1480.23,876.46c10.65-18.26,23.09-34.89,36.79-49.72,6.11-6.6,12.56-12.93,19.95-17.39,15.87-9.58,33.74-9.11,50.43-5.43,2.92,.64,5.81,1.34,8.65,2.14,18.21,5.03,35.93,13.03,52.63,23.46,16.56,10.34,32,23.68,49.92,33.64,16.56,9.2,34.09,18.13,52.11,21.92,14.65,3.07,30.2,2.14,43.41-5.64,3.09-1.81,6.02-3.97,8.77-6.51,13.14-12.14,20.32-30.98,24.88-50.57,1.74-7.47,3.11-15.05,4.33-22.49,2.6-15.73,5.06-31.76,8.33-47.02,5.84-27.28,16.27-50.96,31.59-69.98,8.57-10.63,19.47-20.02,32.25-22.98,16.95-3.88,32.75,1.35,47.35,3.35,.77,.11,1.53,.19,2.29,.29,18.57,2.46,36.97,.38,53.28-10.56,16.27-10.83,30.26-31.58,31.76-57"/><path class="cls-4" d="M1483.45,884.14c10.39-17.86,22.61-34.05,36.13-48.38,6.02-6.38,12.39-12.46,19.61-16.84,15.48-9.37,32.85-9.57,49.18-6.68,2.87,.51,5.72,1.07,8.52,1.72,17.99,4.13,35.57,11.23,52.23,20.76,16.52,9.44,32.01,21.86,49.66,31.4,17.03,9.21,34.84,18.45,53.26,22.51,14.95,3.28,30.91,2.54,44.48-5.26,3.17-1.81,6.2-4,9.03-6.57,13.53-12.31,20.86-31.56,25.62-51.6,1.81-7.63,3.25-15.37,4.57-22.97,2.79-16.06,5.56-32.43,9.23-47.99,6.57-27.91,17.94-51.93,34.33-70.85,8.63-9.96,19.34-18.79,31.76-21.82,16.43-3.97,31.84,.18,46.02,1.04,.75,.05,1.49,.07,2.22,.11,17.91,.99,35.35-2.56,50.42-14.23,15.04-11.55,27.57-32.13,28.41-56.68"/><path class="cls-4" d="M1486.67,891.81c10.13-17.47,22.14-33.21,35.47-47.04,5.94-6.16,12.21-12,19.26-16.29,15.09-9.17,31.95-10.03,47.94-7.93,2.82,.37,5.63,.79,8.39,1.31,17.77,3.24,35.21,9.44,51.83,18.07,16.48,8.55,32.03,20.02,49.4,29.16,17.5,9.2,35.6,18.77,54.41,23.11,15.26,3.5,31.62,2.93,45.54-4.88,3.26-1.82,6.37-4.03,9.29-6.64,13.92-12.49,21.4-32.14,26.35-52.62,1.88-7.79,3.4-15.7,4.81-23.44,2.99-16.38,6.07-33.1,10.12-48.96,7.29-28.53,19.57-52.94,37.08-71.73,8.67-9.31,19.22-17.56,31.28-20.66,15.91-4.05,30.93-.99,44.69-1.26,.72-.01,1.44-.05,2.16-.07,17.24-.47,33.73-5.5,47.56-17.9,13.8-12.27,24.88-32.67,25.07-56.37"/><path class="cls-4" d="M1489.89,899.49c9.87-17.08,21.67-32.38,34.81-45.7,5.86-5.94,12.04-11.54,18.92-15.74,14.69-8.96,31.05-10.49,46.69-9.18,2.78,.23,5.54,.51,8.26,.89,17.54,2.34,34.85,7.65,51.43,15.38,16.44,7.66,32.05,18.18,49.14,26.91,17.97,9.19,36.36,19.1,55.55,23.7,15.57,3.72,32.33,3.33,46.6-4.5,3.35-1.83,6.55-4.05,9.55-6.71,14.3-12.66,21.94-32.72,27.09-53.65,1.95-7.95,3.55-16.02,5.05-23.92,3.18-16.71,6.57-33.76,11.01-49.92,8.02-29.15,21.16-54,39.82-72.61,8.7-8.68,19.1-16.33,30.79-19.49,15.4-4.13,30.02-2.16,43.36-3.57,.7-.07,1.4-.17,2.09-.25,16.58-1.92,32.1-8.44,44.71-21.58,12.56-13,22.19-33.22,21.73-56.05"/><path class="cls-4" d="M1493.11,907.16c9.6-16.68,21.2-31.54,34.15-44.36,5.78-5.72,11.87-11.08,18.58-15.19,14.3-8.76,30.15-10.96,45.45-10.43,2.73,.09,5.44,.24,8.13,.47,17.32,1.45,34.49,5.86,51.03,12.68,16.4,6.77,32.07,16.32,48.88,24.67,18.45,9.17,37.11,19.42,56.7,24.3,15.88,3.94,33.04,3.72,47.66-4.12,3.44-1.83,6.72-4.08,9.81-6.77,14.69-12.83,22.48-33.3,27.82-54.67,2.02-8.11,3.7-16.35,5.29-24.39,3.37-17.04,7.07-34.43,11.91-50.89,8.75-29.77,22.71-55.13,42.57-73.49,8.73-8.07,18.98-15.1,30.31-18.33,14.88-4.21,29.11-3.33,42.03-5.87,.68-.13,1.35-.29,2.02-.43,15.93-3.35,30.48-11.38,41.85-25.25,11.33-13.72,19.5-33.76,18.39-55.74"/><path class="cls-4" d="M1496.33,914.83c9.34-16.29,20.73-30.7,33.48-43.02,5.69-5.5,11.7-10.61,18.24-14.64,13.91-8.55,29.25-11.43,44.2-11.68,2.68-.05,5.35-.04,8,.05,17.1,.55,34.14,4.06,50.63,9.99,16.36,5.87,32.1,14.47,48.62,22.43,18.93,9.13,37.87,19.74,57.85,24.89,16.19,4.16,33.76,4.11,48.72-3.74,3.52-1.84,6.9-4.11,10.06-6.84,15.07-13,23.02-33.87,28.56-55.69,2.09-8.27,3.85-16.67,5.53-24.87,3.57-17.36,7.58-35.1,12.8-51.86,9.48-30.4,24.21-56.33,45.31-74.37,8.75-7.48,18.86-13.87,29.82-17.17,14.36-4.29,28.2-4.5,40.71-8.18,.66-.19,1.31-.41,1.96-.61,15.28-4.77,28.86-14.32,38.99-28.92,10.09-14.44,16.81-34.31,15.05-55.42"/><path class="cls-4" d="M1499.55,922.51c9.08-15.9,20.26-29.86,32.82-41.68,5.61-5.28,11.52-10.15,17.9-14.09,13.51-8.34,28.35-11.9,42.96-12.93,2.63-.19,5.26-.32,7.87-.36,16.87-.34,33.78,2.27,50.23,7.3,16.32,4.98,32.12,12.6,48.36,20.19,19.42,9.08,38.62,20.07,58.99,25.49,16.5,4.38,34.47,4.51,49.79-3.35,3.61-1.85,7.07-4.14,10.32-6.9,15.46-13.17,23.56-34.45,29.29-56.72,2.17-8.43,3.99-17,5.77-25.35,3.76-17.69,8.11-35.75,13.7-52.82,10.26-31,25.69-57.61,48.06-75.25,8.77-6.91,18.74-12.64,29.34-16,13.84-4.37,27.29-5.67,39.38-10.48,.64-.25,1.26-.52,1.89-.79,14.64-6.19,27.23-17.26,36.14-32.59,8.86-15.17,14.12-34.85,11.71-55.11"/><path class="cls-4" d="M1502.77,930.18c8.82-15.5,19.78-29.02,32.16-40.35,5.53-5.05,11.35-9.69,17.56-13.54,13.12-8.14,27.45-12.38,41.72-14.18,2.58-.33,5.17-.59,7.74-.78,16.65-1.24,33.42,.48,49.83,4.6,16.27,4.09,32.15,10.73,48.1,17.95,19.91,9.02,39.38,20.39,60.14,26.08,16.8,4.6,35.18,4.9,50.85-2.97,3.7-1.86,7.25-4.16,10.58-6.97,15.84-13.34,24.1-35.03,30.03-57.74,2.24-8.59,4.14-17.32,6.01-25.82,3.95-18.02,8.6-36.42,14.59-53.79,10.98-31.62,27.13-58.97,50.81-76.13,8.79-6.37,18.62-11.4,28.86-14.84,13.32-4.45,26.38-6.84,38.05-12.78,.61-.31,1.22-.64,1.82-.97,14.02-7.59,25.61-20.2,33.28-36.26,7.62-15.89,11.43-35.4,8.37-54.79"/><path class="cls-4" d="M1505.99,937.86c8.56-15.11,19.31-28.18,31.5-39.01,5.44-4.83,11.18-9.23,17.22-12.99,12.73-7.93,26.54-12.86,40.47-15.43,2.54-.47,5.07-.87,7.61-1.2,16.43-2.13,33.06-1.31,49.43,1.91,16.23,3.2,32.18,8.85,47.84,15.71,20.4,8.94,40.13,20.72,61.29,26.68,17.11,4.82,35.89,5.29,51.91-2.59,3.79-1.86,7.42-4.19,10.84-7.04,16.23-13.51,24.65-35.61,30.76-58.77,2.31-8.75,4.29-17.65,6.25-26.3,4.15-18.34,9.1-37.09,15.49-54.76,11.7-32.25,28.54-60.43,53.55-77.01,8.82-5.85,18.5-10.17,28.37-13.68,12.81-4.53,25.47-8,36.72-15.09,.59-.37,1.18-.76,1.76-1.15,13.41-9,23.99-23.14,30.43-39.94,6.39-16.61,8.74-35.94,5.02-54.48"/><path class="cls-4" d="M1509.21,945.53c19.78-35.11,52.39-58.31,86.94-66.79,34.55-8.47,70.83-3,104.09,11.07,20.9,8.84,40.89,21.04,62.43,27.27,21.54,6.23,45.78,5.75,64.07-9.31,22.88-18.85,30.51-54.44,37.98-86.57,12.28-52.83,31.91-109.01,72.68-133.61,20.3-12.25,44.07-15.32,63.28-29.9,26.63-20.22,39.92-62.78,30.94-99.09"/></g><g class="cls-2"><path class="cls-7" d="M286.9,.37c-27.19,33.03-52.69,67.77-76.31,103.96-10.5,16.09-20.82,32.91-25.53,51.83-12.04,48.37,15.14,95.33,45.18,130.06,27.67,31.99,58.97,60.1,93.01,83.52,33.73,23.22,70.67,42.3,98.17,73.92,27.5,31.62,43.83,80.63,26.68,122.62-10.2,24.98-30.86,43.83-53.46,54.82-22.6,11-47.16,14.92-71.36,16.9-27.71,2.27-56.96,2.6-81.34,18.73-25.23,16.69-41.17,50.05-39.02,81.67,3.06,44.99,37.24,76.31,65.25,107.58,35.58,39.72,65.31,88.92,71.61,145.67,6.3,56.75-15.53,121.47-61.45,151"/><path class="cls-7" d="M298.31,3.43c-27.05,32.78-52.17,67.49-75.17,103.69-10.23,16.09-20.22,32.9-24.8,51.71-3.06,12.55-3.55,25.01-2.07,37.19,4.17,34.47,24,66.72,45.49,92.56,24.39,29.3,51.84,55.46,81.66,77.87,2.92,2.2,5.87,4.36,8.83,6.48,32.95,23.6,69.09,43.18,95.93,74.89,26.9,31.86,42.76,80.62,25.71,122.43-10.5,25.8-31.97,44.96-55.26,56.5-3.33,1.65-6.69,3.15-10.08,4.54-20.26,8.24-41.67,12.18-62.67,14.93-28.05,3.67-56.95,6.22-81.05,23.4-23.94,17.07-39.51,49.2-37.55,80.11,2.79,43.92,35.25,74.82,61.63,105.61,3.97,4.63,7.85,9.38,11.63,14.26,28.09,36.38,49.98,79.46,54.36,127.86,4.87,54.99-17.34,117.16-62.45,145.2"/><path class="cls-7" d="M309.72,6.49c-26.91,32.53-51.65,67.2-74.04,103.42-9.95,16.09-19.61,32.89-24.08,51.59-2.98,12.47-3.48,24.85-2.09,36.97,3.93,34.29,22.96,66.46,43.74,92.48,23.57,29.46,50.26,55.88,79.35,78.61,2.85,2.23,5.73,4.42,8.62,6.58,32.17,23.98,67.5,44.05,93.69,75.86,26.3,32.09,41.69,80.61,24.75,122.25-10.81,26.61-33.08,46.09-57.06,58.17-3.42,1.72-6.87,3.3-10.34,4.77-20.71,8.71-42.54,13.46-63.79,17.27-28.39,5.07-56.92,9.79-80.76,28.07-22.66,17.38-37.84,48.36-36.07,78.54,2.53,42.84,33.25,73.32,58.01,103.65,3.72,4.56,7.36,9.23,10.9,14.02,26.25,35.79,46.37,77.77,49.48,124.55,3.54,53.22-19.14,112.86-63.44,139.4"/><path class="cls-7" d="M321.13,9.56c-26.77,32.28-51.13,66.92-72.91,103.14-9.68,16.09-19.01,32.88-23.35,51.48-2.89,12.38-3.41,24.69-2.1,36.74,3.69,34.12,21.92,66.2,41.98,92.4,22.75,29.63,48.68,56.29,77.05,79.34,2.78,2.26,5.58,4.49,8.41,6.68,31.39,24.36,65.92,44.92,91.45,76.82,25.7,32.33,40.62,80.59,23.78,122.06-11.11,27.42-34.2,47.22-58.86,59.85-3.51,1.79-7.05,3.46-10.61,5-21.16,9.17-43.41,14.74-64.91,19.6-28.72,6.48-56.88,13.32-80.47,32.74-21.41,17.62-36.18,47.52-34.6,76.97,2.26,41.76,31.26,71.82,54.39,101.68,3.48,4.48,6.88,9.08,10.16,13.78,24.41,35.19,42.7,76.09,44.59,121.25,2.15,51.47-20.95,108.55-64.44,133.61"/><path class="cls-7" d="M332.54,12.62c-26.63,32.03-50.61,66.64-71.77,102.87-9.41,16.1-18.41,32.87-22.62,51.36-2.81,12.3-3.34,24.53-2.12,36.51,3.45,33.94,20.88,65.94,40.23,92.31,21.93,29.79,47.11,56.7,74.74,80.08,2.71,2.29,5.44,4.55,8.2,6.78,30.61,24.75,64.4,45.75,89.2,77.79,25.16,32.51,39.56,80.58,22.81,121.87-11.41,28.24-35.31,48.35-60.66,61.52-3.6,1.87-7.23,3.61-10.87,5.24-21.61,9.64-44.27,16.02-66.03,21.93-29.06,7.88-56.83,16.8-80.18,37.41-20.18,17.81-34.52,46.68-33.13,75.41,2,40.69,29.27,70.32,50.76,99.72,3.24,4.41,6.4,8.92,9.43,13.54,22.65,34.55,39.03,74.41,39.7,117.94,.76,49.71-22.75,104.25-65.44,127.81"/><path class="cls-7" d="M343.94,15.68c-26.48,31.78-50.09,66.36-70.64,102.6-9.13,16.1-17.81,32.86-21.9,51.25-2.72,12.21-3.27,24.37-2.13,36.29,3.21,33.77,19.84,65.67,38.48,92.23,21.11,29.95,45.53,57.11,72.44,80.81,2.64,2.33,5.3,4.62,7.99,6.88,29.83,25.13,62.83,46.61,86.96,78.75s38.49,80.57,21.84,121.68c-11.72,29.05-36.42,49.48-62.46,63.2-3.69,1.94-7.41,3.76-11.13,5.47-22.06,10.1-45.14,17.3-67.16,24.26-29.39,9.28-56.78,20.24-79.89,42.09-18.97,17.93-32.85,45.83-31.66,73.84,1.73,39.61,27.28,68.82,47.14,97.75,2.99,4.34,5.91,8.77,8.69,13.3,20.83,33.95,35.36,72.74,34.81,114.63-.63,47.96-24.56,99.95-66.43,122.01"/><path class="cls-7" d="M355.35,18.75c-26.34,31.53-49.57,66.07-69.51,102.32-8.86,16.1-17.21,32.85-21.17,51.13-2.64,12.13-3.2,24.21-2.14,36.06,2.97,33.59,18.8,65.41,36.72,92.14,20.3,30.11,43.95,57.53,70.13,81.54,2.57,2.36,5.16,4.68,7.77,6.98,29.04,25.51,61.26,47.48,84.72,79.72,23.99,32.97,37.42,80.56,20.87,121.49-12.02,29.86-37.53,50.61-64.27,64.87-3.78,2.01-7.59,3.91-11.4,5.7-22.52,10.57-46.01,18.58-68.28,26.6-29.73,10.69-56.73,23.63-79.6,46.76-17.8,18-31.19,44.99-30.19,72.28,1.46,38.54,25.29,67.33,43.52,95.79,2.75,4.27,5.42,8.61,7.96,13.06,19.01,33.35,31.69,71.07,29.93,111.33-2.02,46.21-26.36,95.64-67.43,116.22"/><path class="cls-7" d="M366.76,21.81c-26.2,31.28-49.04,65.79-68.37,102.05-8.59,16.1-16.61,32.84-20.44,51.01-2.55,12.05-3.13,24.05-2.16,35.84,2.74,33.41,17.75,65.15,34.97,92.06,19.48,30.28,42.38,57.94,67.83,82.28,2.5,2.39,5.02,4.75,7.56,7.08,28.26,25.9,59.69,48.35,82.48,80.69,23.4,33.2,36.36,80.54,19.9,121.3-12.32,30.68-38.65,51.74-66.07,66.55-3.87,2.09-7.77,4.06-11.66,5.94-22.97,11.04-46.88,19.85-69.4,28.93-30.06,12.09-56.7,26.98-79.31,51.43-16.66,18.01-29.53,44.15-28.71,70.71,1.2,37.46,23.29,65.83,39.9,93.82,2.5,4.19,4.94,8.46,7.23,12.82,17.18,32.75,28.01,69.4,25.04,108.02-3.42,44.46-28.16,91.34-68.43,110.42"/><path class="cls-7" d="M378.17,24.87c-26.06,31.03-48.52,65.51-67.24,101.78-8.31,16.1-16.01,32.83-19.72,50.9-2.47,11.96-3.06,23.89-2.17,35.61,2.5,33.24,16.71,64.89,33.22,91.98,18.66,30.44,40.8,58.35,65.52,83.01,2.43,2.42,4.88,4.81,7.35,7.18,27.48,26.28,58.11,49.22,80.24,81.65s35.29,80.53,18.93,121.11c-12.63,31.49-39.76,52.87-67.87,68.22-3.96,2.16-7.95,4.21-11.92,6.17-23.42,11.5-47.74,21.13-70.52,31.26-30.4,13.5-56.7,30.27-79.03,56.1-15.55,17.99-27.87,43.31-27.24,69.14,.93,36.39,21.3,64.33,36.28,91.86,2.26,4.12,4.45,8.31,6.49,12.58,15.36,32.15,24.33,67.73,20.15,104.71-4.83,42.72-29.97,87.03-69.42,104.63"/><path class="cls-7" d="M389.58,27.94c-25.92,30.78-48,65.23-66.11,101.5-8.04,16.1-15.41,32.82-18.99,50.78-2.38,11.88-2.99,23.73-2.19,35.39,2.26,33.06,15.67,64.63,31.47,91.89,17.84,30.6,39.22,58.77,63.22,83.74,2.35,2.45,4.73,4.88,7.14,7.28,26.7,26.66,56.53,50.09,77.99,82.62,22.21,33.66,34.22,80.52,17.96,120.92-12.93,32.3-40.87,54-69.67,69.9-4.05,2.23-8.12,4.36-12.19,6.4-23.87,11.97-48.61,22.41-71.64,33.59-30.73,14.9-56.73,33.53-78.74,60.78-14.47,17.92-26.2,42.46-25.77,67.58,.67,35.31,19.31,62.83,32.66,89.89,2.01,4.05,3.96,8.15,5.76,12.34,13.54,31.56,20.64,66.07,15.26,101.41-6.23,40.98-31.77,82.73-70.42,98.83"/><path class="cls-7" d="M400.99,31c-25.77,30.53-47.48,64.95-64.97,101.23-7.77,16.11-14.81,32.81-18.27,50.66-2.29,11.8-2.92,23.57-2.2,35.16,2.02,32.89,14.63,64.36,29.71,91.81,17.02,30.76,37.64,59.18,60.91,84.48,2.28,2.49,4.59,4.94,6.93,7.38,25.92,27.05,54.96,50.97,75.75,83.58s33.16,80.51,17,120.73c-13.23,33.12-41.98,55.13-71.47,71.57-4.14,2.31-8.3,4.51-12.45,6.64-24.32,12.43-49.48,23.69-72.77,35.93-31.07,16.3-56.79,36.73-78.45,65.45-13.44,17.81-24.54,41.62-24.3,66.01,.4,34.23,17.32,61.33,29.04,87.93,1.77,3.98,3.48,8,5.03,12.1,11.71,30.97,16.94,64.41,10.37,98.1-7.65,39.25-33.58,78.42-71.42,93.03"/><path class="cls-7" d="M412.39,34.07c-25.63,30.28-46.96,64.66-63.84,100.96-7.49,16.11-14.2,32.8-17.54,50.55-2.21,11.71-2.85,23.41-2.22,34.94,1.78,32.71,13.59,64.1,27.96,91.73,16.21,30.93,36.07,59.59,58.61,85.21,2.21,2.52,4.45,5.01,6.71,7.47,25.14,27.43,53.37,51.84,73.51,84.55,21.02,34.13,32.09,80.49,16.03,120.54-13.54,33.93-43.1,56.26-73.27,73.25-4.24,2.38-8.48,4.66-12.71,6.87-24.77,12.9-50.34,24.97-73.89,38.26-31.4,17.71-56.91,39.9-78.16,70.12-12.43,17.68-22.88,40.78-22.83,64.44,.13,33.16,15.33,59.84,25.42,85.96,1.52,3.9,2.99,7.85,4.29,11.86,9.88,30.39,13.24,62.75,5.49,94.79-9.08,37.51-35.38,74.12-72.41,87.24"/><path class="cls-7" d="M423.8,37.13c-25.49,30.03-46.44,64.38-62.71,100.68-7.22,16.11-13.6,32.79-16.81,50.43-2.12,11.63-2.78,23.25-2.23,34.71,1.54,32.53,12.55,63.84,26.21,91.64,15.39,31.09,34.49,60,56.3,85.94,2.14,2.55,4.31,5.07,6.5,7.57,24.35,27.81,51.79,52.72,71.27,85.51s31.02,80.48,15.06,120.35c-13.84,34.74-44.21,57.39-75.07,74.92-4.33,2.45-8.66,4.81-12.97,7.1-25.23,13.36-51.21,26.25-75.01,40.59-31.74,19.11-57.1,43.02-77.87,74.79-11.46,17.53-21.22,39.93-21.35,62.88-.13,32.08,13.28,58.35,21.8,84,1.27,3.83,2.5,7.7,3.56,11.62,8.04,29.8,9.53,61.09,.6,91.49-10.51,35.78-37.19,69.81-73.41,81.44"/><path class="cls-7" d="M435.21,40.19c-25.35,29.78-45.92,64.1-61.57,100.41-6.95,16.11-13,32.78-16.09,50.32-2.04,11.55-2.71,23.09-2.25,34.49,1.3,32.36,11.51,63.58,24.45,91.56,14.57,31.25,32.91,60.42,54,86.68,2.07,2.58,4.17,5.14,6.29,7.67,23.57,28.19,50.2,53.6,69.02,86.48,19.81,34.61,29.96,80.47,14.09,120.16-14.14,35.56-45.32,58.52-76.87,76.6-4.42,2.53-8.84,4.96-13.24,7.34-25.68,13.83-52.08,27.52-76.13,42.92-32.07,20.51-57.35,46.11-77.58,79.46-10.53,17.35-19.55,39.09-19.88,61.31-.4,31.01,11.29,56.85,18.17,82.03,1.03,3.76,2.01,7.55,2.83,11.38,6.2,29.22,5.81,59.43-4.29,88.18-11.96,34.04-38.99,65.51-74.41,75.64"/><path class="cls-7" d="M446.62,43.26c-25.21,29.53-45.4,63.82-60.44,100.14-6.68,16.11-12.4,32.77-15.36,50.2-1.95,11.46-2.64,22.93-2.26,34.26,1.06,32.18,10.47,63.32,22.7,91.47,13.75,31.41,31.34,60.83,51.69,87.41,2,2.62,4.03,5.2,6.08,7.77,22.79,28.58,48.62,54.48,66.78,87.45,19.21,34.85,28.89,80.45,13.12,119.97-14.45,36.37-46.43,59.65-78.67,78.27-4.51,2.6-9.02,5.12-13.5,7.57-26.13,14.29-52.95,28.8-77.25,45.26-32.41,21.92-57.68,49.16-77.29,84.14-9.63,17.17-17.89,38.25-18.41,59.75-.66,29.93,9.3,55.35,14.55,80.07,.78,3.69,1.52,7.4,2.09,11.14,4.36,28.64,2.08,57.77-9.18,84.87-13.41,32.3-40.8,61.2-75.4,69.85"/><path class="cls-7" d="M458.03,46.32c-25.06,29.28-44.88,63.54-59.31,99.86-6.4,16.11-11.8,32.76-14.64,50.08-1.87,11.38-2.57,22.77-2.27,34.04,.83,32.01,9.43,63.05,20.95,91.39,12.93,31.58,29.76,61.24,49.39,88.14,1.93,2.65,3.89,5.27,5.86,7.87,22.01,28.96,47.03,55.36,64.54,88.41,18.6,35.09,27.82,80.44,12.15,119.78-14.75,37.18-47.55,60.78-80.47,79.95-4.6,2.67-9.2,5.27-13.76,7.8-26.58,14.76-53.81,30.08-78.38,47.59-32.74,23.32-58.11,52.17-77.01,88.81-8.76,16.97-16.23,37.41-16.94,58.18-.93,28.85,7.31,53.85,10.93,78.1,.54,3.61,1.03,7.25,1.36,10.9,2.51,28.06-1.66,56.1-14.06,81.57-14.88,30.56-42.6,56.9-76.4,64.05"/><path class="cls-7" d="M469.43,49.38c-24.92,29.03-44.36,63.25-58.17,99.59-6.13,16.11-11.2,32.75-13.91,49.97-1.78,11.3-2.5,22.61-2.29,33.81,.59,31.83,8.38,62.79,19.19,91.31,12.12,31.74,28.18,61.66,47.08,88.88,1.86,2.68,3.74,5.34,5.65,7.97,21.23,29.34,45.43,56.24,62.3,89.38,17.99,35.34,26.76,80.43,11.18,119.59-15.06,38-48.66,61.91-82.27,81.62-4.69,2.75-9.38,5.42-14.03,8.04-27.03,15.22-54.68,31.36-79.5,49.92-33.08,24.72-58.63,55.16-76.72,93.48-7.92,16.78-14.57,36.56-15.47,56.61-1.2,27.78,5.37,52.34,7.31,76.14,.3,3.54,.54,7.1,.63,10.66,.65,27.48-5.41,54.42-18.95,78.26-16.37,28.8-44.41,52.59-77.39,58.26"/><path class="cls-7" d="M480.84,52.45c-24.78,28.78-43.84,62.97-57.04,99.32-5.86,16.12-10.6,32.74-13.18,49.85-1.7,11.21-2.43,22.45-2.3,33.58,.35,31.65,7.34,62.53,17.44,91.22,11.3,31.9,26.61,62.07,44.78,89.61,1.79,2.71,3.6,5.4,5.44,8.07,20.45,29.73,43.84,57.12,60.06,90.34,17.37,35.58,25.69,80.42,10.22,119.4-15.36,38.81-49.77,63.04-84.07,83.3-4.78,2.82-9.56,5.57-14.29,8.27-27.48,15.69-55.55,32.64-80.62,52.25-33.41,26.13-59.27,58.13-76.43,98.15-7.11,16.59-12.9,35.72-13.99,55.05-1.46,26.7,3.37,50.85,3.69,74.17,.06,3.47,.05,6.94-.11,10.42-1.21,26.9-9.17,52.74-23.84,74.95-17.86,27.04-46.21,48.29-78.39,52.46"/><path class="cls-7" d="M492.25,55.51c-24.64,28.53-43.32,62.69-55.9,99.04-5.58,16.12-10,32.73-12.46,49.73-1.61,11.13-2.36,22.29-2.32,33.36,.11,31.48,6.3,62.27,15.69,91.14,10.48,32.06,25.03,62.48,42.47,90.35,1.72,2.74,3.46,5.47,5.23,8.17,19.67,30.11,42.18,58.03,57.81,91.31,16.69,35.86,24.62,80.4,9.25,119.21-15.66,39.62-50.88,64.17-85.87,84.97-4.87,2.9-9.74,5.72-14.55,8.51-27.94,16.15-56.42,33.92-81.74,54.58-33.75,27.53-60.02,61.08-76.14,102.82-6.33,16.4-11.24,34.88-12.52,53.48-1.73,25.63,1.38,49.35,.07,72.21-.19,3.4-.44,6.79-.84,10.18-3.08,26.31-12.94,51.04-28.73,71.65-19.36,25.26-48.02,43.98-79.39,46.66"/><path class="cls-7" d="M503.66,58.57c-24.5,28.28-42.8,62.41-54.77,98.77-5.31,16.12-9.4,32.72-11.73,49.62-1.53,11.05-2.29,22.13-2.33,33.13-.13,31.3,5.26,62.01,13.94,91.05,9.66,32.23,23.45,62.9,40.16,91.08,1.65,2.78,3.32,5.53,5.02,8.27,18.88,30.49,40.59,58.91,55.57,92.28,16.09,36.09,23.55,80.39,8.28,119.02-15.97,40.44-52,65.3-87.67,86.65-4.96,2.97-9.92,5.87-14.82,8.74-28.39,16.62-57.28,35.19-82.87,56.92-34.08,28.94-60.9,64.02-75.85,107.5-5.58,16.23-9.58,34.04-11.05,51.92-1.99,24.55-.61,47.85-3.55,70.24-.43,3.32-.94,6.64-1.57,9.94-4.96,25.72-16.71,49.33-33.62,68.34-20.87,23.46-49.82,39.68-80.38,40.87"/><path class="cls-7" d="M515.07,61.64c-24.36,28.03-42.28,62.12-53.64,98.5-5.04,16.12-8.79,32.71-11,49.5-1.44,10.96-2.22,21.97-2.35,32.91-.37,31.13,4.22,61.74,12.18,90.97,8.84,32.39,21.87,63.31,37.86,91.81,1.57,2.81,3.18,5.6,4.8,8.37,18.1,30.87,39.01,59.78,53.33,93.24,15.49,36.33,22.49,80.38,7.31,118.83-16.27,41.25-53.11,66.43-89.48,88.32-5.05,3.04-10.1,6.02-15.08,8.97-28.84,17.08-58.15,36.47-83.99,59.25-34.42,30.34-61.91,66.97-75.56,112.17-4.86,16.08-7.92,33.19-9.58,50.35-2.26,23.47-2.6,46.35-7.17,68.28-.67,3.25-1.44,6.49-2.31,9.7-6.89,25.11-20.48,47.61-38.5,65.03-22.39,21.65-51.63,35.37-81.38,35.07"/><path class="cls-7" d="M526.48,64.7c-41.94,48.12-63.86,115.08-65.14,180.29-1.28,65.21,16.94,128.57,45.98,183.43,18.25,34.48,40.79,66.11,55.68,102.67,14.89,36.56,21.42,80.37,6.34,118.64-18.87,47.9-65.08,74.32-106.62,99.21-68.31,40.92-138.99,96.28-160.38,178.42-10.66,40.91-7.78,84.79-21.94,124.56-19.63,55.15-73.65,94.23-125.77,91"/></g></g></g></g></svg>