<svg id="visual" viewBox="0 0 900 450" width="900" height="450" xmlns="http://www.w3.org/2000/svg" xmlns:xlink="http://www.w3.org/1999/xlink" version="1.1"><rect x="0" y="0" width="900" height="450" fill="#570df8"></rect><path d="M0 128L25 123.3C50 118.7 100 109.3 150 104C200 98.7 250 97.3 300 101.8C350 106.3 400 116.7 450 128.5C500 140.3 550 153.7 600 156.2C650 158.7 700 150.3 750 140.8C800 131.3 850 120.7 875 115.3L900 110L900 0L875 0C850 0 800 0 750 0C700 0 650 0 600 0C550 0 500 0 450 0C400 0 350 0 300 0C250 0 200 0 150 0C100 0 50 0 25 0L0 0Z" fill="#FFFFFF" stroke-linecap="round" stroke-linejoin="miter"></path></svg>