<?xml version="1.0" encoding="UTF-8"?><svg id="Layer_2" xmlns="http://www.w3.org/2000/svg" xmlns:xlink="http://www.w3.org/1999/xlink" viewBox="0 0 36.03 29.14"><defs><style>.cls-1{fill:url(#radial-gradient);}.cls-2{fill:#570df8;}.cls-3{fill:url(#linear-gradient);}</style><radialGradient id="radial-gradient" cx="16.7" cy="10.5" fx="16.7" fy="10.5" r="13.78" gradientUnits="userSpaceOnUse"><stop offset="0" stop-color="#37cdbe"/><stop offset="1" stop-color="#570df7"/></radialGradient><linearGradient id="linear-gradient" x1="-149.32" y1="-55.88" x2="-146.83" y2="-55.88" gradientTransform="translate(99.05 163.87) rotate(45)" gradientUnits="userSpaceOnUse"><stop offset="0" stop-color="#37cdbe"/><stop offset="1" stop-color="#570df7"/></linearGradient></defs><g id="Layer_11"><g><g><path class="cls-1" d="M31.57,3.61l.19,.5c-1.08,.5-2.32,1.01-3.69,1.54l-.38,.15c.06-.34,.12-.76,.18-1.24,.05-.39,.09-.74,.13-1.04,.06-.42,.09-.76,.09-1.02,0-.6-.29-.89-.86-.89-.93,0-2.02,.4-3.28,1.21-1.69,1.08-2.54,2.34-2.54,3.76,0,.52,.22,.86,.67,1.02,.45,.16,1.41,.24,2.87,.24h.19c.03-.31,.04-.53,.04-.64,0-.83-.12-1.56-.35-2.18,.99,.23,1.48,1.09,1.48,2.58v.25l2.32-.04c1.07,0,1.83,.08,2.28,.23,1.47,.52,2.2,1.58,2.2,3.19,0,2.17-.82,4.24-2.45,6.23-1.95,2.37-4.33,3.56-7.14,3.56-2.06,0-3.63-.82-4.7-2.47-2.44,1.52-5.03,2.28-7.76,2.28-2.1,0-4.01-.47-5.73-1.4C1.97,17.57,.29,14.44,.29,10.01,.29,7.2,1.04,4.9,2.55,3.1,4.05,1.31,5.98,.41,8.33,.41s4.24,.73,5.88,2.18c.92,.8,1.66,1.78,2.22,2.93,.56,1.16,1.2,3,1.92,5.54l.74,2.63c.4,1.42,.77,2.5,1.09,3.23,.98-.58,1.95-1.62,2.93-3.13,.98-1.51,1.58-2.91,1.81-4.19h-.68c-1.65,.01-2.81-.12-3.48-.39-.68-.27-1.01-.73-1.01-1.4,0-1.07,.6-2.3,1.79-3.67,.96-1.1,2.08-1.97,3.38-2.6,1.3-.63,2.98-1.12,5.04-1.47l.5-.09-.04,.23c-.1,.44-.18,.83-.24,1.17l-.24,1.38c-.07,.44-.1,.72-.1,.85,0,.28,.12,.42,.35,.42,.17,0,.34-.03,.52-.1,.39-.16,.68-.27,.86-.34Zm-13.01,14.39c-.47-1.03-.82-1.96-1.05-2.78l-1.18-4.3c-.94-3.42-2.06-5.91-3.38-7.46-1.32-1.55-2.97-2.32-4.94-2.32s-3.67,.68-4.83,2.05c-1.16,1.37-1.74,3.26-1.74,5.68,0,1.26,.23,2.53,.7,3.82,.47,1.29,1.1,2.41,1.9,3.35,1.01,1.19,2.22,2.12,3.65,2.78,1.43,.66,2.93,1,4.49,1,2.1,0,4.22-.6,6.37-1.81Zm7.48-8.41c-.33,1.37-1.02,2.8-2.08,4.29s-2.25,2.7-3.55,3.61c.48,1.02,1.01,1.74,1.6,2.16,.58,.41,1.34,.62,2.28,.62,1.9,0,3.58-.78,5.05-2.33s2.19-3.33,2.19-5.34c0-1.13-.32-1.91-.95-2.35-.64-.43-1.78-.65-3.42-.65h-1.11Z"/><circle class="cls-3" cx="33.86" cy="19.66" r="1.24"/></g><g><path class="cls-2" d="M.19,27.06l.46-.31s.04-.04,.06-.07c.02-.03,.05-.07,.08-.12,.02-.04,.05-.08,.09-.11,.04-.03,.08-.06,.13-.08,.03-.03,.07-.08,.12-.13s.12-.11,.19-.18c.04-.02,.08-.05,.14-.09s.12-.09,.19-.16c.31-.29,.58-.51,.81-.66s.43-.22,.59-.22c.09,0,.15,.02,.2,.06,.04,.04,.06,.09,.06,.16,0,.07-.01,.13-.04,.19s-.07,.1-.12,.14c-.08,.06-.18,.13-.27,.2-.05,.07-.12,.15-.2,.23-.08,.08-.17,.16-.27,.24-.03,.04-.06,.08-.09,.12-.02,.02-.05,.05-.1,.09s-.11,.1-.19,.15c-.03,.07-.11,.17-.22,.29-.11,.12-.27,.26-.46,.43-.02,.02-.07,.08-.13,.16-.06,.08-.14,.2-.24,.34l.04,.05c.07-.02,.15-.06,.23-.12,.08-.06,.17-.13,.27-.23,.12-.1,.21-.19,.28-.26,.07-.07,.12-.11,.16-.13,.02-.01,.05-.03,.07-.04,.02-.01,.05-.03,.08-.05,.16-.19,.3-.32,.44-.42,.14-.09,.26-.13,.38-.13,.07,0,.12,.03,.16,.08,.04,.06,.06,.14,.07,.25,0,.17-.01,.33-.01,.49,0,.11,.03,.21,.09,.29,.06,.09,.15,.13,.25,.13,.03,0,.06,0,.09-.03,.03-.02,.06-.04,.09-.07,.02-.03,.05-.06,.07-.09,.02-.03,.04-.05,.07-.08,.01,0,.03-.02,.06-.04s.05-.04,.07-.06c.05,.1,.09,.19,.12,.27,.03,.08,.06,.14,.07,.2-.08,.07-.16,.15-.23,.22-.08,.08-.16,.15-.24,.22-.1,.08-.2,.14-.29,.18-.09,.04-.19,.06-.29,.06-.22,0-.39-.06-.51-.19-.12-.13-.19-.32-.21-.57,0-.03,0-.06-.01-.09,0-.03-.03-.07-.05-.1-.02,.02-.04,.04-.06,.05s-.04,.04-.07,.07c-.04,.03-.1,.08-.17,.13s-.14,.11-.23,.18c-.12,.12-.22,.22-.3,.3-.08,.08-.14,.13-.17,.17-.07,.06-.15,.12-.24,.17s-.19,.12-.3,.18c-.07,.04-.13,.07-.18,.09-.05,.02-.09,.03-.11,.03-.16,0-.28-.04-.36-.12s-.12-.2-.12-.37c0-.09,.02-.18,.06-.26,.04-.08,.1-.16,.18-.24,0-.04,0-.08,0-.11,0-.02,0-.03-.01-.05,0-.02-.02-.04-.03-.06-.02-.05-.04-.1-.07-.16-.03-.06-.05-.12-.08-.19,.01-.01,.03-.04,.06-.08s.05-.09,.09-.15Z"/><path class="cls-2" d="M3.95,27.28s.03-.05,.05-.08,.05-.06,.08-.1c.03-.03,.08-.07,.13-.12,.05-.05,.12-.11,.18-.18,.06-.07,.14-.15,.22-.25,.09-.1,.19-.22,.32-.36,.05-.06,.12-.13,.2-.22,.08-.09,.18-.2,.29-.32,.09-.11,.2-.2,.31-.25,.11-.05,.22-.08,.35-.08s.21,.04,.27,.11,.09,.19,.09,.33c0,.08-.03,.23-.09,.45s-.15,.51-.27,.88c-.03,.07-.06,.13-.09,.19-.02,.04-.03,.08-.04,.12,0,.03-.01,.06-.01,.08,0,.02,.01,.05,.04,.08,.02-.01,.03-.02,.05-.04,.02-.02,.03-.04,.05-.06,.03-.05,.07-.1,.12-.16,.06-.06,.12-.12,.2-.19,.03-.06,.07-.11,.12-.17,.05-.06,.1-.11,.17-.16,.01-.01,.03-.04,.05-.07,.02-.03,.05-.06,.08-.1,.04-.04,.1-.09,.16-.14,.06-.05,.13-.1,.21-.15,.09-.05,.17-.08,.25-.11,.07-.03,.14-.04,.19-.04,.11,0,.2,.03,.28,.08s.15,.13,.21,.24c.07,.21,.13,.41,.19,.59,.04,.11,.08,.18,.12,.23,.04,.05,.1,.08,.16,.08,.04,0,.08,0,.12-.03,.04-.02,.07-.04,.1-.08l.2,.47c-.06,.05-.12,.1-.18,.15-.06,.05-.12,.1-.18,.15-.08,.07-.15,.12-.22,.15-.07,.03-.14,.04-.2,.04-.08,0-.15-.02-.22-.05-.07-.03-.13-.08-.18-.15-.03-.03-.06-.08-.1-.15-.04-.07-.09-.16-.14-.27-.04-.04-.09-.1-.15-.18-.06-.07-.12-.16-.2-.26l-.05-.02c-.06,.02-.13,.05-.19,.09-.06,.04-.13,.09-.2,.16-.15,.14-.26,.22-.33,.25-.07,.03-.11,.07-.14,.12-.05,.08-.13,.19-.24,.32-.12,.13-.26,.28-.43,.46-.04,.04-.09,.09-.13,.13s-.09,.08-.13,.12c-.04,.04-.09,.06-.15,.08-.06,.02-.12,.02-.19,.02-.14,0-.21-.05-.22-.14s-.02-.19-.03-.28c.05-.14,.11-.32,.17-.53,.06-.21,.14-.46,.22-.75,0-.02,0-.04,.02-.07s.03-.07,.04-.11c.02-.04,.03-.08,.04-.11s.01-.06,.01-.08,0-.04-.03-.06c-.02-.01-.04-.02-.08-.02-.03,0-.08,.02-.13,.06-.06,.04-.12,.11-.2,.19-.09,.1-.17,.18-.23,.24s-.1,.09-.12,.1c-.03,.02-.07,.06-.12,.1s-.1,.09-.16,.15c0,.01-.02,.03-.03,.06-.01,.03-.04,.06-.07,.09-.01-.05-.04-.11-.07-.19s-.08-.17-.13-.28Z"/><path class="cls-2" d="M8.81,27.28s.03-.02,.04-.04,.03-.05,.05-.09c.02-.03,.05-.07,.09-.11,.04-.04,.08-.08,.13-.13,.09-.08,.18-.18,.26-.29,.08-.12,.15-.25,.23-.4,.1-.21,.19-.4,.27-.54,.08-.15,.16-.26,.22-.34,.02-.08,.06-.2,.12-.37,.06-.17,.14-.39,.25-.66,.1-.26,.18-.47,.25-.63,.07-.16,.12-.27,.15-.33,.01-.02,.03-.05,.05-.09,.02-.04,.04-.08,.05-.14,.05-.16,.1-.31,.17-.45,.06-.14,.13-.27,.2-.39,.02-.03,.04-.05,.06-.07s.05-.03,.08-.03c.14,0,.24,.05,.3,.16,.07,.11,.1,.26,.1,.46,0,.23-.07,.54-.22,.94-.15,.4-.37,.89-.67,1.46-.06,.13-.13,.29-.2,.47-.07,.19-.14,.4-.21,.64-.06,.19-.11,.38-.17,.57-.05,.19-.11,.38-.17,.57-.05,.18-.09,.32-.12,.43s-.04,.17-.04,.21c0,.02,0,.04,.01,.05,0,.01,.02,.02,.04,.02,.03,0,.06-.01,.09-.03s.04-.05,.06-.09c.07-.1,.13-.21,.2-.33s.13-.26,.2-.41v-.15c.04-.22,.09-.38,.17-.47s.22-.16,.44-.21c.03-.01,.1-.1,.21-.27,.11-.17,.26-.43,.44-.77,.1-.18,.19-.31,.25-.4,.07-.09,.12-.14,.15-.14,.08,0,.13,.03,.17,.08,.03,.05,.05,.13,.05,.23,0,.26-.15,.59-.44,.99s-.44,.66-.44,.78c0,.09,.08,.22,.23,.4,.16,.18,.29,.27,.39,.27,.03,0,.07-.01,.11-.03,.04-.02,.09-.06,.15-.1,.04-.03,.09-.07,.13-.11,.04-.04,.09-.08,.14-.11l.2,.47c-.09,.08-.17,.16-.25,.23-.08,.08-.16,.15-.25,.23-.1,.1-.2,.17-.3,.21-.1,.05-.2,.07-.29,.07s-.27-.1-.52-.31c-.24-.21-.37-.31-.39-.31-.13,.12-.24,.23-.33,.35-.06,.07-.12,.15-.18,.22-.06,.07-.12,.14-.18,.22-.02,.02-.04,.05-.08,.09-.04,.03-.08,.07-.13,.12-.05,.07-.1,.13-.16,.2-.06,.06-.13,.09-.22,.09-.14,0-.24-.04-.31-.12-.07-.08-.1-.2-.1-.36s.01-.34,.04-.52c.03-.18,.07-.38,.13-.58,.02-.09,.04-.18,.06-.25,.01-.07,.02-.14,.02-.19l-.04-.05c-.04,.05-.1,.12-.17,.19-.07,.07-.15,.17-.24,.27-.01,.01-.03,.03-.04,.05-.02,.03-.05,.08-.1,.15-.02-.04-.04-.1-.06-.16s-.05-.13-.08-.21c0-.02-.02-.04-.03-.06-.01-.02-.02-.03-.04-.04Z"/><path class="cls-2" d="M12.83,27.28l.03-.04v-.05c.11-.13,.27-.29,.5-.49,.23-.2,.39-.37,.48-.49,.03-.05,.07-.09,.12-.12,.04-.02,.09-.04,.13-.04,.12,0,.22,.03,.3,.09,.08,.06,.14,.15,.16,.27,.02,.11,.04,.21,.07,.32s.04,.21,.05,.32c.02,.07,.05,.17,.09,.31,.03,.14,.06,.22,.08,.24,.02,.03,.04,.06,.08,.07,.03,.02,.08,.02,.13,.02,.06,0,.12-.01,.19-.03s.13-.06,.2-.11c.05-.04,.1-.09,.16-.13,.06-.05,.11-.09,.17-.13l.2,.47c-.05,.05-.13,.12-.22,.19-.09,.07-.2,.15-.32,.24-.14,.1-.26,.18-.36,.23-.1,.05-.17,.07-.22,.07-.31,0-.51-.04-.6-.11s-.19-.27-.31-.6c-.01-.03-.03-.06-.06-.1-.03-.04-.06-.08-.09-.13-.04-.08-.08-.14-.11-.18-.03-.04-.06-.06-.08-.06-.05,0-.13,.04-.22,.11-.09,.07-.2,.18-.34,.33-.02-.04-.04-.1-.06-.16s-.05-.13-.08-.21c0-.02-.02-.04-.03-.06-.01-.02-.02-.03-.04-.04Zm2.13-4.02c.08,0,.15,.02,.19,.05,.04,.03,.06,.08,.06,.15-.02,.1-.04,.17-.05,.24-.03,.12-.06,.22-.09,.3-.03,.08-.04,.13-.06,.17-.03,.07-.07,.14-.12,.2s-.12,.11-.19,.15c-.08,.05-.14,.09-.2,.11-.05,.02-.09,.03-.11,.03-.06,0-.11-.01-.17-.02-.05,0-.1,0-.16,0-.04-.02-.08-.07-.1-.14s-.04-.16-.04-.27c0-.1,.06-.23,.19-.38,.12-.15,.23-.24,.33-.25,.06-.07,.12-.15,.2-.24,.03-.02,.08-.04,.13-.06,.05-.02,.12-.02,.19-.02Z"/><path class="cls-2" d="M15.74,27.28l.02-.04s.05-.06,.08-.1c.03-.04,.07-.09,.11-.14,.24-.22,.48-.49,.71-.8,.23-.31,.46-.67,.68-1.07,.03-.04,.06-.09,.09-.15s.07-.14,.11-.23c0-.02,0-.04-.02-.05,0-.01-.03-.02-.05-.02-.02,0-.05,0-.1,.02-.04,.01-.08,.02-.1,.02h-.64s-.07,0-.13,0c-.06,0-.11,0-.13,0-.03-.02-.07-.03-.09-.04-.03-.01-.06-.02-.08-.04-.04-.01-.07-.03-.09-.05-.02-.02-.03-.05-.03-.08,0-.22,.02-.38,.07-.5,.05-.12,.12-.17,.21-.17s.18,0,.27,.01c.08,0,.16,.02,.22,.03,.05,0,.1-.02,.14-.03,.09,0,.17,0,.23,.01s.11,.02,.15,.03c.04-.01,.09-.02,.13-.03,.04,0,.09-.02,.14-.03l.17,.05c.12-.01,.25-.18,.38-.5,.13-.32,.28-.48,.43-.48,.08,0,.14,.03,.19,.08s.07,.13,.07,.22c0,.08-.02,.18-.07,.31-.05,.13-.07,.22-.08,.29,0,.01,.02,.03,.03,.04,.01,.02,.03,.03,.05,.05,.02,.01,.03,.04,.04,.07,0,.03,.01,.07,.01,.12,0,.2,0,.36-.03,.47s-.05,.17-.09,.17l-.34,.07s-.02,.08-.03,.12c-.01,.05-.02,.11-.04,.17-.06,.17-.12,.39-.19,.65-.07,.26-.15,.57-.24,.93-.05,.29-.1,.52-.12,.69-.03,.18-.04,.3-.04,.36,0,.05,0,.1,.03,.12,.02,.03,.04,.04,.08,.04,.02,0,.09-.05,.22-.15,.13-.1,.3-.24,.53-.44l.2,.47s-.08,.08-.14,.13c-.06,.05-.13,.11-.22,.16-.03,.04-.08,.08-.13,.12s-.11,.1-.17,.16c-.06,.07-.12,.14-.18,.2s-.12,.13-.18,.2c-.08,.09-.16,.15-.24,.19s-.15,.06-.22,.06c-.15,0-.26-.04-.33-.13-.07-.09-.11-.22-.11-.4,0-.2,0-.37,.02-.51,.01-.14,.04-.26,.07-.35,.01-.03,.02-.05,.03-.07,0-.03,0-.08,.02-.14,0-.06,.02-.13,.04-.2,.02-.13,.04-.26,.07-.4,.04-.08,.08-.17,.12-.26,0-.02-.01-.03-.04-.05l-.05,.03c-.05,.08-.12,.17-.2,.26-.08,.09-.18,.18-.29,.28-.17,.17-.35,.33-.53,.5,0,.02-.03,.04-.06,.08-.03,.03-.06,.08-.09,.13-.02-.04-.04-.09-.06-.16s-.05-.13-.08-.22c0-.02-.02-.04-.03-.06-.01-.02-.02-.03-.04-.04Z"/><path class="cls-2" d="M21.17,27.28l.03-.04s.04-.1,.09-.15,.11-.11,.2-.16c.11-.07,.2-.13,.26-.17,.06-.04,.1-.08,.11-.1,.03-.04,.05-.07,.06-.09,.04-.03,.08-.06,.14-.11,.05-.05,.12-.1,.18-.17,.02-.02,.05-.04,.08-.08,.03-.04,.05-.08,.08-.13,.04-.03,.09-.07,.15-.12,.06-.05,.12-.11,.2-.18,.08-.09,.18-.19,.29-.3,.11-.11,.23-.22,.36-.34,.04-.02,.08-.04,.12-.05,.04-.01,.08-.02,.12-.02,.15,0,.27,.04,.34,.11,.08,.07,.11,.18,.11,.31,0,.03,0,.09-.02,.17-.01,.08-.03,.18-.04,.3-.05,.34-.08,.55-.1,.63s-.09,.31-.21,.7c-.03,.06-.05,.14-.08,.24-.03,.09-.06,.21-.1,.35,0,.01,.02,.03,.05,.04,.02,0,.07-.02,.13-.07,.06-.05,.14-.11,.24-.21,.12-.11,.21-.19,.28-.25,.07-.06,.11-.09,.13-.1,.04,.09,.08,.18,.11,.25,.03,.08,.06,.15,.09,.22-.04,.03-.08,.06-.12,.09-.04,.03-.07,.07-.1,.11-.07,.05-.15,.1-.25,.16-.09,.06-.2,.13-.31,.2-.05,.05-.12,.11-.21,.19-.09,.07-.18,.16-.29,.25l-.1,.02c-.05,.06-.09,.11-.13,.15-.04,.03-.08,.06-.11,.07-.05,.02-.11,.04-.16,.06-.05,.02-.11,.04-.17,.06-.04-.01-.07-.03-.08-.07s-.02-.08-.02-.13c-.05-.09-.09-.2-.12-.32-.03-.12-.05-.25-.05-.4,0-.03,0-.06,0-.09,0-.03,0-.06,.01-.08-.02-.09-.04-.14-.04-.16,0-.1,.04-.19,.12-.25,.08-.07,.17-.1,.26-.1,.05,0,.09,.03,.11,.08,.02,.05,.05,.08,.07,.08s.05-.05,.07-.14c.03-.09,.05-.23,.07-.41,.02-.16,.04-.29,.05-.41,0-.12,0-.2,0-.26,0-.04,0-.08-.03-.1s-.05-.03-.09-.03-.19,.1-.43,.31c-.24,.2-.58,.51-1.01,.91-.01,.02-.03,.05-.06,.09-.03,.03-.05,.08-.09,.13-.01-.05-.04-.11-.07-.19s-.08-.17-.13-.28Z"/><path class="cls-2" d="M24.36,27.28s.05-.06,.07-.09,.05-.08,.09-.13l.39-.27c.05-.06,.12-.13,.22-.22s.22-.2,.37-.33c.02-.04,.04-.08,.08-.13,.04-.05,.09-.1,.14-.15,.05-.04,.09-.09,.14-.12,.05-.04,.09-.08,.13-.11,.05-.05,.1-.1,.15-.15s.09-.1,.14-.15c.05-.05,.11-.08,.17-.11,.06-.03,.12-.04,.19-.04,.07,0,.13,0,.17,.03,.04,.02,.06,.05,.06,.08-.03,.08-.07,.16-.11,.23l.03,.05c.15-.06,.27-.1,.35-.13,.08-.03,.14-.04,.16-.04,.25,0,.43,.08,.56,.23,.12,.15,.19,.38,.19,.69,0,.06,0,.13-.02,.2-.01,.08-.04,.16-.07,.25-.03,.1-.07,.19-.11,.25s-.08,.12-.11,.15c.01,.04,.03,.08,.04,.09,.02,.02,.04,.03,.07,.03s.06,0,.08-.03c.03-.02,.06-.04,.1-.08,.03,.07,.07,.15,.1,.23,.03,.08,.07,.16,.1,.24-.06,.05-.12,.11-.18,.16-.06,.05-.12,.1-.18,.15-.08,.06-.15,.11-.22,.14-.07,.03-.14,.04-.21,.04-.08,0-.14-.02-.19-.06-.05-.04-.09-.09-.12-.16-.08,.11-.19,.21-.31,.31-.12,.09-.25,.17-.4,.23-.08,.04-.16,.07-.23,.09-.07,.02-.13,.03-.19,.03-.02,0-.05,0-.1,.02s-.09,.02-.12,.02c-.19,0-.37-.08-.52-.24-.16-.16-.23-.34-.23-.54,0-.08,.02-.19,.06-.32,.04-.13,.06-.21,.06-.24s0-.04-.02-.06c-.02-.02-.04-.02-.06-.02-.02,0-.06,.03-.12,.08s-.16,.12-.28,.22c0,.01-.02,.03-.04,.06-.01,.03-.04,.06-.07,.09-.03-.08-.06-.16-.09-.24-.03-.08-.07-.16-.11-.23Zm2.45-.93s-.04,.02-.07,.05-.06,.07-.09,.12c-.05,.08-.1,.16-.16,.25-.04,.04-.08,.07-.12,.09-.04,.02-.09,.04-.15,.05-.03,0-.07,.04-.11,.1-.04,.06-.08,.15-.11,.27-.04,.1-.06,.19-.08,.27-.02,.07-.03,.14-.03,.19,0,.1,.02,.17,.07,.21,.05,.05,.12,.07,.22,.07,.16,0,.3-.04,.43-.13s.25-.22,.37-.39c.05-.06,.11-.13,.15-.18,.03-.02,.05-.05,.07-.1,.02-.05,.03-.1,.05-.17l.09-.29c-.03-.1-.06-.18-.09-.24-.03-.06-.05-.1-.08-.11-.02,0-.05-.02-.11-.03-.06-.01-.14-.02-.25-.04Z"/><path class="cls-2" d="M28.04,27.28s.03-.05,.05-.08,.05-.06,.08-.1c.03-.03,.08-.07,.13-.12,.05-.05,.12-.11,.18-.18,.06-.07,.14-.15,.22-.25,.09-.1,.19-.22,.32-.36,.05-.06,.12-.13,.2-.22,.08-.09,.18-.2,.29-.32,.09-.11,.2-.2,.31-.25,.11-.05,.22-.08,.35-.08s.21,.04,.27,.11,.09,.19,.09,.33c0,.08-.03,.23-.09,.45s-.15,.51-.27,.88c-.03,.07-.06,.13-.09,.19-.02,.04-.03,.08-.04,.12,0,.03-.01,.06-.01,.08,0,.02,.01,.05,.04,.08,.02-.01,.03-.02,.05-.04,.02-.02,.03-.04,.05-.06,.03-.05,.07-.1,.12-.16,.06-.06,.12-.12,.2-.19,.03-.06,.07-.11,.12-.17,.05-.06,.1-.11,.17-.16,.01-.01,.03-.04,.05-.07,.02-.03,.05-.06,.08-.1,.04-.04,.1-.09,.16-.14,.06-.05,.13-.1,.21-.15,.09-.05,.17-.08,.25-.11,.07-.03,.14-.04,.19-.04,.11,0,.2,.03,.28,.08s.15,.13,.21,.24c.07,.21,.13,.41,.19,.59,.04,.11,.08,.18,.12,.23,.04,.05,.1,.08,.16,.08,.04,0,.08,0,.12-.03,.04-.02,.07-.04,.1-.08l.2,.47c-.06,.05-.12,.1-.18,.15-.06,.05-.12,.1-.18,.15-.08,.07-.15,.12-.22,.15-.07,.03-.14,.04-.2,.04-.08,0-.15-.02-.22-.05-.07-.03-.13-.08-.18-.15-.03-.03-.06-.08-.1-.15-.04-.07-.09-.16-.14-.27-.04-.04-.09-.1-.15-.18-.06-.07-.12-.16-.2-.26l-.05-.02c-.06,.02-.13,.05-.19,.09-.06,.04-.13,.09-.2,.16-.15,.14-.26,.22-.33,.25-.07,.03-.11,.07-.14,.12-.05,.08-.13,.19-.24,.32-.12,.13-.26,.28-.43,.46-.04,.04-.09,.09-.13,.13s-.09,.08-.13,.12c-.04,.04-.09,.06-.15,.08-.06,.02-.12,.02-.19,.02-.14,0-.21-.05-.22-.14s-.02-.19-.03-.28c.05-.14,.11-.32,.17-.53,.06-.21,.14-.46,.22-.75,0-.02,0-.04,.02-.07s.03-.07,.04-.11c.02-.04,.03-.08,.04-.11s.01-.06,.01-.08,0-.04-.03-.06c-.02-.01-.04-.02-.08-.02-.03,0-.08,.02-.13,.06-.06,.04-.12,.11-.2,.19-.09,.1-.17,.18-.23,.24s-.1,.09-.12,.1c-.03,.02-.07,.06-.12,.1s-.1,.09-.16,.15c0,.01-.02,.03-.03,.06-.01,.03-.04,.06-.07,.09-.01-.05-.04-.11-.07-.19s-.08-.17-.13-.28Z"/><path class="cls-2" d="M32.91,27.28l.03-.04v-.05c.11-.13,.27-.29,.5-.49,.23-.2,.39-.37,.48-.49,.03-.05,.07-.09,.12-.12,.04-.02,.09-.04,.13-.04,.12,0,.22,.03,.3,.09,.08,.06,.14,.15,.16,.27,.02,.11,.04,.21,.07,.32s.04,.21,.05,.32c.02,.07,.05,.17,.09,.31,.03,.14,.06,.22,.08,.24,.02,.03,.04,.06,.08,.07,.03,.02,.08,.02,.13,.02,.06,0,.12-.01,.19-.03s.13-.06,.2-.11c.05-.04,.1-.09,.16-.13,.06-.05,.11-.09,.17-.13l.2,.47c-.05,.05-.13,.12-.22,.19-.09,.07-.2,.15-.32,.24-.14,.1-.26,.18-.36,.23-.1,.05-.17,.07-.22,.07-.31,0-.51-.04-.6-.11s-.19-.27-.31-.6c-.01-.03-.03-.06-.06-.1-.03-.04-.06-.08-.09-.13-.04-.08-.08-.14-.11-.18-.03-.04-.06-.06-.08-.06-.05,0-.13,.04-.22,.11-.09,.07-.2,.18-.34,.33-.02-.04-.04-.1-.06-.16s-.05-.13-.08-.21c0-.02-.02-.04-.03-.06-.01-.02-.02-.03-.04-.04Zm2.13-4.02c.08,0,.15,.02,.19,.05,.04,.03,.06,.08,.06,.15-.02,.1-.04,.17-.05,.24-.03,.12-.06,.22-.09,.3-.03,.08-.04,.13-.06,.17-.03,.07-.07,.14-.12,.2s-.12,.11-.19,.15c-.08,.05-.14,.09-.2,.11-.05,.02-.09,.03-.11,.03-.06,0-.11-.01-.17-.02-.05,0-.1,0-.16,0-.04-.02-.08-.07-.1-.14s-.04-.16-.04-.27c0-.1,.06-.23,.19-.38,.12-.15,.23-.24,.33-.25,.06-.07,.12-.15,.2-.24,.03-.02,.08-.04,.13-.06,.05-.02,.12-.02,.19-.02Z"/></g></g></g></svg>