<svg id="visual" viewBox="0 0 900 600" width="900" height="600" xmlns="http://www.w3.org/2000/svg" xmlns:xlink="http://www.w3.org/1999/xlink" version="1.1"><rect x="0" y="0" width="900" height="600" fill="#37cdbe"></rect><path d="M0 406L21.5 417.5C43 429 86 452 128.8 468.3C171.7 484.7 214.3 494.3 257.2 490.3C300 486.3 343 468.7 385.8 455.8C428.7 443 471.3 435 514.2 443C557 451 600 475 642.8 487.3C685.7 499.7 728.3 500.3 771.2 487C814 473.7 857 446.3 878.5 432.7L900 419L900 601L878.5 601C857 601 814 601 771.2 601C728.3 601 685.7 601 642.8 601C600 601 557 601 514.2 601C471.3 601 428.7 601 385.8 601C343 601 300 601 257.2 601C214.3 601 171.7 601 128.8 601C86 601 43 601 21.5 601L0 601Z" fill="#FFFFFF" stroke-linecap="round" stroke-linejoin="miter"></path></svg>