<svg id="visual" viewBox="0 0 900 600" width="900" height="600" xmlns="http://www.w3.org/2000/svg" xmlns:xlink="http://www.w3.org/1999/xlink" version="1.1"><rect x="0" y="0" width="900" height="600" fill="#570df8"></rect><path d="M0 422L25 419.8C50 417.7 100 413.3 150 421.2C200 429 250 449 300 456C350 463 400 457 450 440.7C500 424.3 550 397.7 600 385.2C650 372.7 700 374.3 750 381.7C800 389 850 402 875 408.5L900 415L900 601L875 601C850 601 800 601 750 601C700 601 650 601 600 601C550 601 500 601 450 601C400 601 350 601 300 601C250 601 200 601 150 601C100 601 50 601 25 601L0 601Z" fill="#FFFFFF" stroke-linecap="round" stroke-linejoin="miter"></path></svg>